<!-- Generator: Adobe Illustrator 19.2.1, SVG Export Plug-In  -->
<svg version="1.1"
	 xmlns="http://www.w3.org/2000/svg" xmlns:xlink="http://www.w3.org/1999/xlink" xmlns:a="http://ns.adobe.com/AdobeSVGViewerExtensions/3.0/"
	 x="0px" y="0px" width="35.5px" height="35.5px" viewBox="0 0 35.5 35.5"
	 overflow="visible" enable-background="new 0 0 35.5 35.5" xml:space="preserve">
<defs>
</defs>
<circle fill="#FAA220" cx="19.8" cy="4.8" r="0.5"/>
<circle fill="#FAA220" cx="11.9" cy="8" r="0.8"/>
<circle fill="#FAA220" cx="26.6" cy="1.8" r="1.1"/>
<circle fill="#FAA220" cx="4.8" cy="12.1" r="0.7"/>
<circle fill="#FAA220" cx="32.1" cy="7.5" r="1.7"/>
<path fill="#381C1C" d="M19.1,34.1c-0.1,0-0.3,0-0.4-0.1c-0.3-0.2-0.4-0.7-0.2-1c0.9-1.3,1-2.4,1.1-3.6c0.2-1.9,0.3-4.1,3-7.2
	c3-3,1.9-6.8-0.4-9c-2.2-2.2-5.9-3.2-8.8-0.2c-3.1,2.7-5.3,2.9-7.3,3c-1.3,0.1-2.5,0.2-3.8,1.2c-0.3,0.2-0.8,0.2-1-0.2
	c-0.2-0.3-0.2-0.8,0.2-1c1.6-1.2,3.1-1.3,4.5-1.4c1.8-0.2,3.7-0.3,6.4-2.7c3.5-3.6,8.1-2.4,10.8,0.2c2.9,2.8,3.9,7.5,0.4,11
	c-2.3,2.7-2.5,4.6-2.6,6.3c-0.1,1.4-0.2,2.8-1.3,4.3C19.6,34,19.3,34.1,19.1,34.1z"/>
<path fill="#381C1C" d="M30.3,19.9c-0.2,0-0.5,0-0.7-0.1c-1-0.3-1.9-1-2.2-1.8l-1.9-4.5c-0.2-0.4,0-0.8,0.4-0.9
	c0.4-0.2,0.8,0,0.9,0.4l1.9,4.5c0.2,0.4,0.8,0.8,1.3,1c0.3,0.1,0.5,0.1,0.7,0l3.3-2.4c0.1,0,0.1-0.2,0.1-0.5c0-0.5-0.2-0.8-0.4-0.9
	l-5.7-3.2c-0.3-0.2-0.5-0.6-0.3-1c0.2-0.3,0.6-0.5,1-0.3l5.7,3.2c0.8,0.4,1.1,1.4,1.1,2.1c0,0.8-0.2,1.4-0.7,1.8l-3.3,2.4
	C31.1,19.8,30.8,19.9,30.3,19.9z"/>
<path fill="#381C1C" d="M22.3,10.1c-0.1,0-0.2,0-0.3-0.1l-4.6-2.3c-0.9-0.4-1.6-1.5-1.8-2.5c-0.1-0.7,0-1.3,0.3-1.7l2.4-3
	c0.4-0.5,1.1-0.7,1.9-0.7c0.7,0.1,1.5,0.4,1.9,1.1l3.2,5.7c0.2,0.3,0.1,0.8-0.3,1c-0.3,0.2-0.8,0.1-1-0.3l-3.2-5.7
	c-0.1-0.1-0.4-0.3-0.8-0.4c-0.4,0-0.6,0.1-0.6,0.1l-2.4,3c-0.1,0.1-0.1,0.4,0,0.5c0.1,0.6,0.6,1.2,1.1,1.5l4.6,2.3
	c0.4,0.2,0.5,0.6,0.3,1C22.8,10,22.5,10.1,22.3,10.1z"/>
<path fill="#381C1C" d="M25.1,13.5c-0.8,0-1.6-0.3-2.2-0.9c-1.2-1.2-1.2-3.2,0-4.5c1.2-1.2,3.3-1.2,4.5,0v0c1.2,1.2,1.2,3.2,0,4.5
	C26.7,13.2,25.9,13.5,25.1,13.5z M25.1,8.6c-0.5,0-0.9,0.2-1.2,0.5c-0.7,0.7-0.7,1.8,0,2.4c0.7,0.7,1.8,0.7,2.4,0
	c0.7-0.7,0.7-1.8,0-2.4C26,8.8,25.6,8.6,25.1,8.6z"/>
<path fill="#381C1C" d="M17.1,35.5c-1.1,0-2.6-0.5-4.3-1.4c-0.3-0.2-0.5-0.6-0.3-1c0.2-0.3,0.6-0.5,1-0.3c2.5,1.4,4,1.4,4.4,1
	c0.4-0.4,0.4-1.6-0.6-3.7c-1.1-2.1-2.9-4.5-5.1-6.8c-2.3-2.3-4.7-4.1-6.8-5.1c-2.1-1.1-3.3-1-3.7-0.6c-0.4,0.4-0.4,1.6,0.6,3.7
	c1.1,2.1,2.9,4.5,5.1,6.8C8,28.5,8.6,29,9.1,29.5c0.3,0.3,0.3,0.7,0.1,1c-0.3,0.3-0.7,0.3-1,0.1c-0.6-0.5-1.2-1-1.7-1.6
	c-2.4-2.4-4.3-4.9-5.4-7.1c-1.3-2.5-1.4-4.4-0.4-5.4c1-1,2.9-0.9,5.4,0.4c2.2,1.1,4.8,3,7.1,5.4c2.4,2.4,4.3,4.9,5.4,7.1
	c1.3,2.5,1.4,4.4,0.4,5.4C18.5,35.2,17.9,35.5,17.1,35.5z"/>
<path fill="#381C1C" d="M11,34.6c-0.6,0-1.2-0.2-1.7-0.5c-1.5-0.9-1.9-2.9-1-4.4c0.9-1.5,2.9-1.9,4.4-1h0c0.7,0.5,1.2,1.2,1.4,2
	c0.2,0.8,0,1.7-0.4,2.4c-0.5,0.7-1.2,1.2-2,1.4C11.4,34.6,11.2,34.6,11,34.6z M11,29.7c-0.6,0-1.1,0.3-1.5,0.8
	C9,31.3,9.2,32.4,10,32.9c0.8,0.5,1.9,0.3,2.4-0.5c0.2-0.4,0.3-0.9,0.2-1.3c-0.1-0.5-0.4-0.8-0.8-1.1C11.6,29.8,11.3,29.7,11,29.7z"
	/>
<path fill="#381C1C" d="M12.5,29.8c-0.1,0-0.3,0-0.4-0.1c-0.3-0.2-0.4-0.7-0.2-1l2.3-3.7c0.2-0.3,0.7-0.4,1-0.2
	c0.3,0.2,0.4,0.7,0.2,1l-2.3,3.7C13,29.6,12.7,29.8,12.5,29.8z"/>
</svg>
