<!-- Generator: Adobe Illustrator 19.2.1, SVG Export Plug-In  -->
<svg version="1.1"
	 xmlns="http://www.w3.org/2000/svg" xmlns:xlink="http://www.w3.org/1999/xlink" xmlns:a="http://ns.adobe.com/AdobeSVGViewerExtensions/3.0/"
	 x="0px" y="0px" width="38.3px" height="34.3px" viewBox="0 0 38.3 34.3" enable-background="new 0 0 38.3 34.3"
	 xml:space="preserve">
<defs>
</defs>
<circle fill="#F9A832" cx="20" cy="4.2" r="0.5"/>
<circle fill="#F9A832" cx="7.8" cy="1.2" r="0.8"/>
<circle fill="#F9A832" cx="26.7" cy="1.2" r="1.1"/>
<circle fill="#F9A832" cx="0.7" cy="5.2" r="0.7"/>
<circle fill="#F9A832" cx="36.6" cy="2.5" r="1.7"/>
<path fill="#381C1C" d="M19.9,29.3c-0.2,0-0.4-0.1-0.5-0.2l-4.8-4.6c-1.5-1.4-2.1-3.5-1.4-5.4c0.6-1.6,2-2.6,3.6-2.6
	c1.1,0,2.2,0.7,3,1.6c0.7-0.9,1.9-1.6,2.9-1.6c1.6,0,3,1,3.6,2.5c0.6,1.5,0.6,3.6-1.3,5.4l-4.7,4.6C20.3,29.2,20.1,29.3,19.9,29.3z
	 M16.8,18c-1,0-1.8,0.6-2.2,1.7c-0.4,1-0.3,2.6,1,3.8l4.3,4.1l4.2-4.1c1.3-1.3,1.4-2.9,0.9-3.9c-0.4-1-1.3-1.6-2.3-1.6
	c-0.8,0-1.8,0.8-2.3,1.7c-0.1,0.2-0.4,0.4-0.6,0.4c-0.3,0-0.5-0.1-0.6-0.4C18.7,18.8,17.6,18,16.8,18z"/>
<path fill="#381C1C" d="M34,34.3H5.7c-0.6,0-1.1-0.2-1.5-0.7c-0.4-0.4-0.6-0.9-0.5-1.4L5,8.2c0.1-1.1,1-2,2.1-2h6.3
	c0.2-3.4,3-6.2,6.5-6.2c3.5,0,6.3,2.7,6.5,6.2h6.3c1.1,0,2,0.9,2.1,2l1.3,24c0,0.5-0.2,1-0.5,1.4C35.1,34.1,34.5,34.3,34,34.3z
	 M7,7.6c-0.3,0-0.6,0.3-0.6,0.7l-1.3,24c0,0.2,0.1,0.3,0.1,0.4c0.1,0.1,0.3,0.2,0.5,0.2H34c0.2,0,0.3-0.1,0.5-0.2
	c0.1-0.1,0.2-0.2,0.1-0.4l-1.3-24c0-0.3-0.3-0.7-0.6-0.7h-6.3v1.8c0.7,0.3,1.2,1,1.2,1.7c0,1-0.8,1.9-1.9,1.9c-1,0-1.9-0.8-1.9-1.9
	c0-0.8,0.5-1.5,1.2-1.7V7.6H14.7v1.8c0.7,0.3,1.2,1,1.2,1.7c0,1-0.8,1.9-1.9,1.9s-1.9-0.8-1.9-1.9c0-0.8,0.5-1.5,1.2-1.7V7.6H7z
	 M14.8,6.2h10.1c-0.2-2.6-2.4-4.7-5.1-4.7C17.1,1.4,14.9,3.5,14.8,6.2z"/>
</svg>