<!-- Generator: Adobe Illustrator 19.2.1, SVG Export Plug-In  -->
<svg version="1.1"
	 xmlns="http://www.w3.org/2000/svg" xmlns:xlink="http://www.w3.org/1999/xlink" xmlns:a="http://ns.adobe.com/AdobeSVGViewerExtensions/3.0/"
	 x="0px" y="0px" width="32.6px" height="35.5px" viewBox="0 0 32.6 35.5"
	 overflow="visible" enable-background="new 0 0 32.6 35.5" xml:space="preserve">
<defs>
</defs>
<path fill="#381C1C" d="M6.7,13.4C3,13.4,0,10.4,0,6.7S3,0,6.7,0s6.7,3,6.7,6.7S10.4,13.4,6.7,13.4z M6.7,1.4
	c-2.9,0-5.3,2.4-5.3,5.3S3.8,12,6.7,12S12,9.6,12,6.7S9.6,1.4,6.7,1.4z"/>
<path fill="#381C1C" d="M19.4,13.4c-3.7,0-6.7-3-6.7-6.7s3-6.7,6.7-6.7s6.7,3,6.7,6.7S23.1,13.4,19.4,13.4z M19.4,1.4
	c-2.9,0-5.3,2.4-5.3,5.3s2.4,5.3,5.3,5.3s5.3-2.4,5.3-5.3S22.3,1.4,19.4,1.4z"/>
<path fill="#381C1C" d="M21.2,26.9H4.9c-1.3,0-2.3-1-2.3-2.3V15c0-1.3,1-2.3,2.3-2.3h16.3c1.3,0,2.3,1,2.3,2.3v9.6
	C23.5,25.9,22.5,26.9,21.2,26.9z M4.9,14.1C4.4,14.1,4,14.5,4,15v9.6c0,0.5,0.4,0.9,0.9,0.9h16.3c0.5,0,0.9-0.4,0.9-0.9V15
	c0-0.5-0.4-0.9-0.9-0.9H4.9z"/>
<path fill="#381C1C" d="M30.6,26.1c-0.2,0-0.4,0-0.6-0.1l-7.3-3c-0.4-0.2-0.5-0.6-0.4-0.9c0.2-0.4,0.6-0.5,0.9-0.4l7.3,3
	c0.1,0,0.2,0,0.3-0.1c0.2-0.1,0.4-0.4,0.4-0.6v-8.3c0-0.2-0.1-0.4-0.4-0.6c-0.2-0.1-0.2-0.1-0.3-0.1l-7.3,3c-0.4,0.2-0.8,0-0.9-0.4
	c-0.2-0.4,0-0.8,0.4-0.9l7.3-3c0.5-0.2,1.1-0.1,1.6,0.2c0.6,0.4,1,1.1,1,1.8V24c0,0.7-0.4,1.4-1,1.8C31.3,26,30.9,26.1,30.6,26.1z"
	/>
<path fill="#381C1C" d="M5.4,35.5c-0.2,0-0.3-0.1-0.5-0.2c-0.3-0.3-0.3-0.7-0.1-1l6.6-7.8c0.3-0.3,0.7-0.3,1-0.1
	c0.3,0.3,0.3,0.7,0.1,1L6,35.2C5.8,35.4,5.6,35.5,5.4,35.5z"/>
<path fill="#381C1C" d="M20.7,35.5c-0.2,0-0.4-0.1-0.6-0.3l-6.6-7.8c-0.3-0.3-0.2-0.8,0.1-1c0.3-0.3,0.8-0.2,1,0.1l6.6,7.8
	c0.3,0.3,0.2,0.8-0.1,1C21.1,35.4,20.9,35.5,20.7,35.5z"/>
<path fill="#381C1C" d="M13,35.5C13,35.5,13,35.5,13,35.5c-0.4,0-0.7-0.3-0.7-0.7l0.1-8.3c0-0.4,0.3-0.7,0.7-0.7
	c0.4,0,0.7,0.3,0.7,0.7l-0.1,8.3C13.7,35.1,13.4,35.5,13,35.5z"/>
</svg>
