<!-- Generator: Adobe Illustrator 19.2.1, SVG Export Plug-In  -->
<svg version="1.1"
	 xmlns="http://www.w3.org/2000/svg" xmlns:xlink="http://www.w3.org/1999/xlink" xmlns:a="http://ns.adobe.com/AdobeSVGViewerExtensions/3.0/"
	 x="0px" y="0px" width="37.9px" height="36.4px" viewBox="0 0 37.9 36.4"
	 overflow="visible" enable-background="new 0 0 37.9 36.4" xml:space="preserve">
<defs>
</defs>
<path fill="#F9A832" d="M17,21.6c0.3-0.4,0.1-1,0-1.6c-0.1-0.4,0-0.9-0.1-1.3c-0.1-0.3-0.4-0.6-0.8-0.8c-0.1,0-0.2-0.1-0.2-0.1
	c-0.1-0.1-0.1-0.2-0.1-0.4c0-0.6,0.1-1.1,0.3-1.7c0-0.1,0.1-0.2,0.2-0.3c0.1-0.1,0.3-0.1,0.4-0.1c1.5-0.1,3-0.1,4.5-0.1
	c0.3,0,0.5,0,0.7,0.2c0.1,0.2,0.1,0.4,0.1,0.6c0,0.5,0,1.1,0,1.6c-0.4,0-0.8,0-1.2,0.1c-0.1,0-0.1,0-0.2,0.1c0,0-0.1,0.1-0.1,0.2
	c-0.2,0.9-0.3,1.8-0.3,2.7c0,0.2,0,0.4,0.1,0.5c0.2,0.4,0.7,0.4,1,0.4c0.9,0,1.8,0.1,2.7,0.1c0.1-2-0.1-4-0.2-6.1
	c-0.1-0.7-0.1-1.3-0.3-2c-0.1-0.5-0.3-1-0.6-1.5c-0.3-0.5-0.6-1-1-1.3c-0.9-0.7-2.2-0.8-3.4-0.9c-0.8,0-1.7,0-2.3,0.6
	c-0.4,0.4-0.7,0.9-1.1,1.3c-0.2,0.2-0.4,0.3-0.6,0.5c-0.2,0.2-0.4,0.4-0.5,0.7c-0.4,0.9-0.5,2-0.5,3c-0.1,1.4-0.1,2.8,0.2,4.2
	c0.1,0.5,0.2,1.2,0.8,1.3C15.4,21.7,16.2,21.6,17,21.6z"/>
<circle fill="#F9A832" cx="26" cy="0.5" r="0.5"/>
<circle fill="#F9A832" cx="5.6" cy="3.4" r="0.8"/>
<circle fill="#F9A832" cx="32.6" cy="13.6" r="1.1"/>
<circle fill="#F9A832" cx="6.6" cy="13.6" r="0.7"/>
<circle fill="#F9A832" cx="2.4" cy="22.5" r="0.7"/>
<circle fill="#F9A832" cx="27.4" cy="34.7" r="0.7"/>
<circle fill="#F9A832" cx="32.5" cy="7.4" r="1.7"/>
<path fill="#FAA220" d="M4.9,18.1c-0.2,0-0.3,0-0.5,0.1c-0.1,0.1-0.3,0.2-0.3,0.3C4,18.8,4.2,19,4.4,19.2c0.2,0.2,0.3,0.5,0.6,0.6
	c0.2,0.2,0.5,0.2,0.8,0c0.1-0.1,0.2-0.2,0.3-0.4c0.1-0.1,0.1-0.3,0.2-0.4c0.1-0.3,0-0.7-0.2-0.9C5.7,18,5.2,18.1,4.9,18.1z"/>
<path fill="#FAA220" d="M0.8,26.1c-0.1,0.3,0,0.7,0.2,1c0.3,0.4,0.8,0.6,1.2,0.5c0,0,0,0,0.1,0c0,0,0.1-0.1,0.1-0.1
	c0-0.1,0.1-0.1,0.1-0.2c0.1-0.2,0.1-0.4,0.1-0.6c0-0.2,0-0.4-0.1-0.5c0-0.2-0.1-0.3-0.3-0.4c0,0-0.1,0-0.2-0.1
	C1.6,25.6,1,25.4,0.8,26.1z"/>
<path fill="#FAA220" d="M35.3,25.5c-0.3,0.2-0.4,0.6-0.3,1c0.1,0.4,0.4,0.8,0.7,1c0.4,0.2,0.9,0.2,1.3,0.1c0.1,0,0.2-0.1,0.3-0.2
	c0-0.1,0.1-0.2,0.1-0.2c0-0.1,0-0.3,0.1-0.4c0-0.1,0-0.2,0-0.3c0-0.3-0.5-0.9-0.8-1C36.3,25.3,35.6,25.4,35.3,25.5z"/>
<path fill="#FAA220" d="M32.6,17.9c-0.2,0-0.5,0.1-0.7,0.1c-0.1,0-0.1,0-0.2,0c-0.2,0.1-0.3,0.2-0.3,0.4s0,0.4,0.1,0.6
	c0.1,0.2,0.2,0.4,0.3,0.6c0,0,0.1,0.1,0.1,0.1c0.1,0.1,0.3,0.2,0.5,0.2c0.4,0,0.8-0.1,1.2-0.3c0.1-0.1,0.2-0.1,0.3-0.2
	c0-0.1,0-0.1,0.1-0.2c0.1-0.4-0.1-0.8-0.3-1.1c-0.1-0.1-0.2-0.3-0.3-0.4C33.1,17.8,32.8,17.8,32.6,17.9z"/>
<g>
	<path fill="#381C1C" d="M13.6,22.5c-0.3,0-0.6-0.3-0.6-0.6v-6.5c0-3.3,2.7-5.9,5.9-5.9c3.3,0,5.9,2.7,5.9,5.9v6.5
		c0,0.3-0.3,0.6-0.6,0.6H13.6z M23.7,21.3v-5.9c0-2.6-2.1-4.7-4.7-4.7s-4.7,2.1-4.7,4.7v5.9H23.7z"/>
	<rect x="16.6" y="0.5" fill="#381C1C" width="4.7" height="1.2"/>
	<path fill="#381C1C" d="M21.3,8.2c-1.6,0-3-1.3-3-3V4.1h1.2v1.2c0,1,0.8,1.8,1.8,1.8h1.2c1,0,1.8-0.8,1.8-1.8V4.7h1.2v0.6
		c0,1.6-1.3,3-3,3H21.3z"/>
	<path fill="#381C1C" d="M15.4,8.2c-1.6,0-3-1.3-3-3V4.7h1.2v0.6c0,1,0.8,1.8,1.8,1.8h1.2c1,0,1.8-0.8,1.8-1.8V1.1h1.2v4.1
		c0,1.6-1.3,3-3,3H15.4z"/>
	<path fill="#381C1C" d="M24.9,5.3c-1,0-1.8-0.8-1.8-1.8V2.3c0-0.3,0.3-0.6,0.6-0.6h2.4c0.3,0,0.6,0.3,0.6,0.6v1.2
		C26.6,4.5,25.8,5.3,24.9,5.3z M24.3,3.5c0,0.3,0.3,0.6,0.6,0.6s0.6-0.3,0.6-0.6V2.9h-1.2V3.5z"/>
	<path fill="#381C1C" d="M13,5.3c-1,0-1.8-0.8-1.8-1.8V2.3c0-0.3,0.3-0.6,0.6-0.6h2.4c0.3,0,0.6,0.3,0.6,0.6v1.2
		C14.8,4.5,14,5.3,13,5.3z M12.4,3.5c0,0.3,0.3,0.6,0.6,0.6s0.6-0.3,0.6-0.6V2.9h-1.2V3.5z"/>
	<path fill="#381C1C" d="M8.9,22.5c-0.3,0-0.6-0.3-0.6-0.6V0.5h1.2v20.7h19V0.5h1.2v21.3c0,0.3-0.3,0.6-0.6,0.6H8.9z"/>
	
		<rect x="-3" y="28.4" transform="matrix(0.4763 -0.8793 0.8793 0.4763 -22.8373 19.5956)" fill="#381C1C" width="16.2" height="1.2"/>
	
		<rect x="26.9" y="21.2" transform="matrix(0.9093 -0.4162 0.4162 0.9093 -9.559 14.0874)" fill="#381C1C" width="1.2" height="15.6"/>
	
		<rect x="2.5" y="28.4" transform="matrix(0.4167 -0.9091 0.9091 0.4167 -20.291 26.3178)" fill="#381C1C" width="15.6" height="1.2"/>
	<rect x="32" y="20.1" fill="#381C1C" width="1.2" height="8.3"/>
	<rect x="35.5" y="27.8" fill="#381C1C" width="1.2" height="7.7"/>
	
		<rect x="32.3" y="20.9" transform="matrix(0.879 -0.4767 0.4767 0.879 -9.836 19.1706)" fill="#381C1C" width="1.2" height="16.2"/>
	<path fill="#381C1C" d="M32.6,20.7c-1,0-1.8-0.8-1.8-1.8s0.8-1.8,1.8-1.8s1.8,0.8,1.8,1.8S33.5,20.7,32.6,20.7z M32.6,18.3
		c-0.3,0-0.6,0.3-0.6,0.6s0.3,0.6,0.6,0.6s0.6-0.3,0.6-0.6S32.9,18.3,32.6,18.3z"/>
	<path fill="#381C1C" d="M36.1,28.4c-1,0-1.8-0.8-1.8-1.8s0.8-1.8,1.8-1.8s1.8,0.8,1.8,1.8S37.1,28.4,36.1,28.4z M36.1,26
		c-0.3,0-0.6,0.3-0.6,0.6s0.3,0.6,0.6,0.6s0.6-0.3,0.6-0.6S36.4,26,36.1,26z"/>
	<rect x="4.7" y="20.1" fill="#381C1C" width="1.2" height="8.3"/>
	<rect x="1.2" y="27.8" fill="#381C1C" width="1.2" height="7.7"/>
	<path fill="#381C1C" d="M5.3,20.7c-1,0-1.8-0.8-1.8-1.8s0.8-1.8,1.8-1.8s1.8,0.8,1.8,1.8S6.3,20.7,5.3,20.7z M5.3,18.3
		c-0.3,0-0.6,0.3-0.6,0.6s0.3,0.6,0.6,0.6s0.6-0.3,0.6-0.6S5.7,18.3,5.3,18.3z"/>
	<path fill="#381C1C" d="M1.8,28.4c-1,0-1.8-0.8-1.8-1.8s0.8-1.8,1.8-1.8s1.8,0.8,1.8,1.8S2.8,28.4,1.8,28.4z M1.8,26
		c-0.3,0-0.6,0.3-0.6,0.6s0.3,0.6,0.6,0.6s0.6-0.3,0.6-0.6S2.1,26,1.8,26z"/>
	<path fill="#381C1C" d="M17.2,22.5c-0.3,0-0.6-0.3-0.6-0.6v-3.6H16c-0.3,0-0.6-0.3-0.6-0.6v-2.4c0-0.3,0.3-0.6,0.6-0.6h5.9
		c0.3,0,0.6,0.3,0.6,0.6v2.4c0,0.3-0.3,0.6-0.6,0.6h-0.6v3.6c0,0.3-0.3,0.6-0.6,0.6H17.2z M20.1,21.3v-3.6c0-0.3,0.3-0.6,0.6-0.6
		h0.6v-1.2h-4.7v1.2h0.6c0.3,0,0.6,0.3,0.6,0.6v3.6H20.1z"/>
</g>
</svg>
