<!-- Generator: Adobe Illustrator 19.2.1, SVG Export Plug-In  -->
<svg version="1.1"
	 xmlns="http://www.w3.org/2000/svg" xmlns:xlink="http://www.w3.org/1999/xlink" xmlns:a="http://ns.adobe.com/AdobeSVGViewerExtensions/3.0/"
	 x="0px" y="0px" width="35.3px" height="37px" viewBox="0 0 35.3 37" enable-background="new 0 0 35.3 37" xml:space="preserve">
<defs>
</defs>
<path fill="#F9A832" d="M16.8,28.8c0.2-0.8,0.3-1.7,0.3-2.6c0-0.6,0.1-1.3-0.2-1.8c-0.1-0.2-0.2-0.3-0.3-0.5
	c-0.2-0.6,0.5-1.2,0.3-1.8c-0.4-0.1-0.8-0.4-1.1-0.8c-0.2-0.4-0.3-0.9-0.3-1.3c0-0.5,0-0.9,0.2-1.3c0.5-1,1.7-1.3,2.7-1.5
	c0.2,0,0.4-0.1,0.6,0c0.2,0,0.3,0.1,0.4,0.2c0.3,0.2,0.6,0.4,0.9,0.6c0.4,0.3,0.8,0.6,0.9,1c0.2,0.7-0.2,1.6,0.3,2.1
	c-1-0.2-1.9-0.2-2.9-0.2c0.7,0,1.4-0.1,2.1,0.1s1.3,0.5,1.7,1.1c0.6-1.1,1.7-2,2.9-2.3c0.9-0.2,2-0.1,2.7,0.6
	c0.6,0.7,0.6,1.7,0.6,2.6c0,1.2,0,2.3,0,3.5c0,0.5,0,1-0.2,1.4c-0.1,0.3-0.3,0.6-0.5,0.9c-0.3,0.5-0.7,1.1-1,1.6
	c-0.2,0.4-0.5,0.8-0.6,1.3c-0.2,0.5-0.2,1-0.2,1.6c0,0.9,0,1.8,0,2.6c0,0.1,0,0.3-0.1,0.4c-0.1,0.1-0.3,0.1-0.5,0.1
	c-1.7,0.1-3.5,0.1-5.2,0.2c-1.9,0.1-3.8,0.1-5.6-0.2c-0.1,0-0.2,0-0.2-0.1c-0.1-0.1-0.1-0.2-0.1-0.2c0-0.8-0.1-1.6-0.1-2.5
	c0-0.3-0.2-0.9-0.1-1.2c0.1-0.2,0.5-0.3,0.7-0.5C16.1,31.2,16.6,29.9,16.8,28.8z"/>
<circle fill="#F9A832" cx="34.6" cy="19.7" r="0.6"/>
<circle fill="#F9A832" cx="31.4" cy="24.1" r="0.5"/>
<circle fill="#F9A832" cx="6" cy="25.1" r="0.5"/>
<circle fill="#F9A832" cx="31.9" cy="12.7" r="0.9"/>
<circle fill="#F9A832" cx="6.4" cy="10.5" r="0.9"/>
<circle fill="#F9A832" cx="1.2" cy="17" r="1.2"/>
<path fill="#381C1C" d="M27,37c-4.4,0-8.8,0-13.1,0c0-1-0.1-2,0-3c0.1-1-0.2-1.7-1-2.3c-2.8-2.4-4.7-5.4-5.9-8.8
	c-0.8-2.4-1.7-4.7-2.5-7.1c-0.4-1.2,0.1-2.5,1.2-3c1.1-0.5,2.4-0.1,3.1,1c0.9,1.5,1.7,3,2.6,4.5c0.2,0.3,0.5,0.6,0.8,0.7
	c0.9,0.4,1.7-0.3,1.7-1.2c0-3.5,0-6.9,0-10.4c0-1,0-2.1,0-3.1c0-1.9,1.7-3,3.4-2.3c0,0,0.1,0,0.2,0.1C17.7,0.7,18.6-0.1,20,0
	c1,0,1.8,0.8,2.2,2.1c1-0.5,1.9-0.4,2.7,0.3c0.9,0.7,0.9,1.7,0.8,2.7c0.6-0.3,1.2-0.4,1.8-0.2c1.1,0.3,1.8,1.2,1.8,2.3
	c0,5.8,0,11.7,0,17.5c0,2.7-0.8,5.2-2.2,7.5C27,32.4,27,32.6,27,32.8C27,34.2,27,35.6,27,37z M17.4,15.5c0-0.1,0-0.2,0-0.3
	c0-1.4,0-2.9,0-4.3c0-2.2,0-4.4,0-6.6c0-0.6-0.3-1.1-0.8-1.2C15.8,2.7,15,3.3,15,4.3c0,4.5,0,9,0,13.5c0,0.6-0.2,1.2-0.6,1.7
	c-1.1,1.3-3.2,1.1-4.1-0.4c-0.9-1.6-1.8-3.1-2.7-4.7c-0.3-0.6-1-0.8-1.5-0.5c-0.6,0.3-0.8,0.9-0.6,1.5c0.9,2.4,1.7,4.8,2.6,7.2
	c1.1,3.2,2.9,6,5.5,8.2c0.3,0.2,0.6,0.5,0.9,0.7c1.6-1.5,2.4-3.2,2.4-5.3c0-0.4-0.2-0.9-0.4-1.3c-0.6-0.9-1.7-1.2-2.7-0.9
	c-1.1,0.4-1.7,1.3-1.7,2.5c0,0.6,0.4,1,0.9,1c0.5,0,0.9-0.4,0.9-1c0-0.3,0-0.5,0-0.8c0.4,0,0.8,0,1.2,0c0,0.3,0,0.6,0,0.9
	c0,1-0.8,1.9-1.8,2.1c-1,0.1-2.1-0.5-2.3-1.6c-0.5-2.6,1.7-4.8,4.1-4.4c0.5,0.1,0.9,0.3,1.4,0.4c0.1-0.2,0.2-0.5,0.2-0.5
	c-1.3-0.6-1.6-1.2-1.6-2.6c0.1-1.8,1.6-3.3,3.4-3.4c2.2-0.1,3.8,1.5,3.8,3.7c0,0.3,0,0.6,0.4,0.7c0.5-1,1.4-1.7,2.5-2
	c1.2-0.2,2.2,0.1,3.1,0.8c0-0.3,0-0.5,0-0.8c0-2.6,0-5.3,0-7.9c0-1.4,0-2.8,0-4.1C28.2,6.5,27.7,6,27,6c-0.7,0-1.2,0.5-1.2,1.2
	c0,0.1,0,0.1,0,0.2c0,3.3,0,6.7,0,10c0,0.2,0,0.3,0,0.5c-0.4,0-0.8,0-1.2,0c0-1.2,0-2.5,0-3.7c0-3.3,0-6.6,0-9.9
	c0-0.5-0.2-0.9-0.6-1.2c-0.8-0.5-1.8,0.1-1.8,1.1c0,3.6,0,7.2,0,10.8c0,0.2,0,0.3,0,0.5c-0.4,0-0.8,0-1.2,0c0-0.1,0-0.3,0-0.4
	c0-2.1,0-4.2,0-6.3c0-2.1,0-4.2,0-6.4c0-0.5-0.2-0.9-0.7-1.1c-0.4-0.2-0.8-0.2-1.2,0.1c-0.4,0.3-0.5,0.7-0.5,1.2c0,3.9,0,7.7,0,11.6
	c0,0.5,0,0.9,0,1.4C18.2,15.5,17.8,15.5,17.4,15.5z M22.2,34.1c-0.4,0-0.8,0-1.1,0c0-0.1,0-0.2,0-0.3c-0.1-0.5-0.5-0.8-0.9-0.8
	c-0.9,0-1.6,0.9-1.4,1.8c0.2,0.8,0.8,1.2,1.8,1.2c1.6,0,2.9-1.2,3-2.8c0.1-1.5-0.9-2.9-2.5-3.2c-0.4-0.1-0.7-0.1-1.1-0.1
	c0-0.4,0-0.8,0-1.1c0.4,0,0.8,0,1.2,0c0.4-1.5,1.3-2.6,2.6-2.9c1.8-0.4,3.1,0.3,4.2,1.7c0.1-0.9,0.2-1.8,0.4-2.8
	c-0.9,0.4-1.7,0.5-2.4,0c-0.8-0.4-1.2-1.3-1.1-2c0.4,0,0.7,0,1.1,0c0,0.1,0,0.1,0,0.2c0.2,0.7,0.8,1.1,1.4,1c0.7-0.1,1.1-0.7,1-1.4
	c-0.1-1.2-1.1-2.1-2.2-2.2c-1.2-0.1-2.2,0.7-2.5,1.9c-0.1,0.4-0.1,0.8-0.1,1.2c0,1.2-0.6,2-1.6,2.6c-0.9,0.5-1.9,0.5-2.8-0.1
	c-0.9-0.6-1.1-1.5-1-2.5c0.4,0,0.8,0,1.2,0c0,0.2,0,0.4,0,0.6c0,0.7,0.6,1.2,1.4,1.2c0.9-0.1,1.6-0.8,1.6-1.7
	c0.1-0.9-0.5-1.6-1.4-1.9c-1.4-0.4-3.1,0.8-3.4,2.4c0,0.2,0,0.4,0.1,0.6c0.3,0.6,0.5,1.3,0.5,2c-0.1,0.7-0.2,1.4-0.3,2.2
	c0.3,0,0.6,0,0.9,0c0,0.4,0,0.8,0,1.2c-0.4,0-0.7,0-1.1,0c-0.2,0-0.4,0-0.5,0.3c-0.4,0.9-1.1,1.6-1.8,2.2c-0.1,0.1-0.2,0.3-0.2,0.5
	c0,0.9,0,1.7,0,2.6c0,0.1,0,0.2,0,0.4c0.9,0,1.9,0,2.8,0c-0.1-0.1-0.1-0.3-0.2-0.4c-0.6-1.4,0-3,1.4-3.6
	C20.7,31.2,22.3,32.3,22.2,34.1z M24.5,29.3c0,0.1,0.1,0.2,0.1,0.4c0.2,0.5,0.6,0.8,1.1,0.8c0.5,0,1-0.3,1.1-0.8
	c0.1-0.3,0.1-0.6,0-0.9c-0.2-1.1-1.3-1.9-2.4-1.8c-1.1,0-2.1,0.8-2.3,1.9c0,0.1,0,0.3,0.1,0.4c0.4,0.3,0.7,0.5,1.1,0.8
	c0-0.2,0-0.4-0.1-0.6C23.8,29.3,24.2,29.3,24.5,29.3z M19.2,19.7c0,0.3,0,0.5,0,0.7c0.6,0,1.2-0.1,1.8-0.1c0.1-0.4-0.1-0.9-0.4-1.4
	c-0.6-0.9-1.7-1.2-2.7-0.9c-1.1,0.4-1.7,1.3-1.7,2.5c0,0.5,0.4,1,0.9,1c0.5,0,0.9-0.4,0.9-1c0-0.3,0-0.5,0-0.8
	C18.4,19.7,18.8,19.7,19.2,19.7z M25.9,31.8c-0.5-0.2-1.1-0.3-1.6-0.5c0.7,1.6,0.3,3.2-0.9,4.6c0.8,0,1.6,0,2.4,0c0-1,0-2,0-3
	C25.8,32.5,25.9,32.1,25.9,31.8z"/>
</svg>
