<!-- Generator: Adobe Illustrator 19.2.1, SVG Export Plug-In  -->
<svg version="1.1"
	 xmlns="http://www.w3.org/2000/svg" xmlns:xlink="http://www.w3.org/1999/xlink" xmlns:a="http://ns.adobe.com/AdobeSVGViewerExtensions/3.0/"
	 x="0px" y="0px" width="68.7px" height="66.1px" viewBox="0 0 68.7 66.1"
	 overflow="visible" enable-background="new 0 0 68.7 66.1" xml:space="preserve">
<defs>
</defs>
<g>
	<path fill="#381C1C" d="M17.1,11.1c0,0.7-0.6,1.3-1.3,1.3c-0.7,0-1.3-0.6-1.3-1.3c0-0.7,0.6-1.3,1.3-1.3c0,0,0,0,0,0
		C16.6,9.8,17.1,10.4,17.1,11.1L17.1,11.1z"/>
	<circle fill="#381C1C" cx="4.9" cy="11.1" r="1.8"/>
	<circle fill="#381C1C" cx="50.4" cy="5.3" r="2.3"/>
	<circle fill="#381C1C" cx="3.1" cy="25.4" r="3.1"/>
	<path fill="#381C1C" d="M68.7,28c0,1.7-1.4,3.1-3.1,3.1c-1.7,0-3.1-1.4-3.1-3.1c0-1.7,1.4-3.1,3.1-3.1C67.3,24.9,68.7,26.2,68.7,28
		z"/>
	<path fill="#F9A832" d="M11.8,21.8c0.6-1.2,1.5-2.3,2.4-3.3c0.8-0.7,1.7-1.4,2.6-2c1.6-1.1,3.2-2.2,4.9-3.2
		c2.6-1.4,5.4-2.5,8.2-3.1c1.2-0.3,2.4-0.4,3.6-0.4c1.9,0.1,3.8,0.5,5.6,1.2c3.7,1.2,7.2,2.9,10.4,5.1c3.2,2.2,5.7,5.3,7.3,8.9
		c1.2,3.5,1.8,7.2,1.7,10.8c-10.3,1.2-31,1.2-31,1.2s-10.1-1.9-15.1-1.2C11,36.1,7.8,38,7.4,35.8c-0.4-1.9,0.8-4.9,1.4-6.7
		C9.5,26.6,10.5,24.1,11.8,21.8z"/>
	<path fill="#381C1C" d="M27.8,66.1v-2.4l4.9-5.1L45,44.4l-0.3-0.4c-0.5,0.2-0.9,0.4-1.3,0.7L33.3,51c-0.3,0.2-0.6,0.3-1,0.3
		c-1.1,0-6.8-0.3-7.7-1.6l-0.1-0.1L21,42.8l-0.1,0c-0.1,0-0.2,0-0.3,0c-0.1,0-0.2,0-0.3,0l-0.2,0l-0.4,13c0,1.4,0.4,2.8,1.3,3.8
		l0.6,0.8l-1.6,4.9l0,0.8h-2.3l0.1-1.4l1.3-3.8L19,60.8c-1.1-1.5-1.6-3.2-1.6-5l0.4-13.3c0.6-1.6,2.3-2.4,3.9-1.8
		c0.6,0.2,1.1,0.6,1.5,1.1l3.3,6.4l0.1,0c1.8,0.3,3.6,0.6,5.4,0.7l10.1-6.3c1.6-1,3.4-1.5,5.3-1.5c0.3,0,0.7,0,1,0.1l2.3,0.2
		L34.4,60.2l-4.2,4.5v1.4L27.8,66.1z"/>
	<path fill="#381C1C" d="M31.6,40.8H34c1.7,0,3.3,1,3.9,2.6l1.4,3.1l-2.2,1l-1.4-3.1c-0.2-0.4-0.5-0.8-0.9-1l-0.5-0.2l0.8,4.9
		l-2.3,0.4L31.6,40.8z"/>
	<path fill="#381C1C" d="M1.9,41.9c-0.8,0-1.5-0.7-1.5-1.5v-3.7c0-0.8,0.7-1.5,1.5-1.5h62.2c0.8,0,1.5,0.7,1.5,1.5v3.7
		c0,0.8-0.7,1.5-1.5,1.5H1.9z M2.7,39.5h60.6v-2.1H2.7V39.5z"/>
	<path fill="#381C1C" d="M57.6,36c0-13.6-11.1-24.6-24.7-24.6c-13.6,0-24.6,11-24.6,24.6H6C6.1,21.1,18.4,9.2,33.3,9.3
		C48,9.5,59.8,21.4,60,36H57.6z"/>
	<path fill="#381C1C" d="M33,8.4c-2.3,0-4.2-1.9-4.2-4.2C28.8,1.9,30.7,0,33,0c2.3,0,4.2,1.9,4.2,4.2v0C37.2,6.5,35.3,8.4,33,8.4z
		 M33,2.4c-1,0-1.8,0.8-1.8,1.8C31.1,5.2,32,6,33,6c1,0,1.8-0.8,1.8-1.8c0,0,0,0,0,0C34.8,3.2,34,2.4,33,2.4L33,2.4z"/>
</g>
</svg>
