<!-- Generator: Adobe Illustrator 19.2.1, SVG Export Plug-In  -->
<svg version="1.1"
	 xmlns="http://www.w3.org/2000/svg" xmlns:xlink="http://www.w3.org/1999/xlink" xmlns:a="http://ns.adobe.com/AdobeSVGViewerExtensions/3.0/"
	 x="0px" y="0px" width="34.8px" height="34.7px" viewBox="0 0 34.8 34.7" enable-background="new 0 0 34.8 34.7"
	 xml:space="preserve">
<defs>
</defs>
<path fill="#381C1C" d="M12.3,34.7c-0.7,0-1.4-0.1-2.2-0.2c-3.2-0.6-6.1-2.4-7.9-5.1c-1.9-2.7-2.6-6-2-9.2c1.2-6.7,7.6-11.2,14.3-10
	c2.4,0.4,4.6,1.6,6.4,3.3c0.3,0.3,0.3,0.7,0,1c-0.3,0.3-0.7,0.3-1,0c-1.6-1.5-3.5-2.5-5.7-2.9c-5.9-1-11.5,2.9-12.6,8.8
	c-0.5,2.9,0.1,5.7,1.8,8.1s4.2,4,7,4.5c2.9,0.5,5.7-0.1,8.1-1.8c2.4-1.7,4-4.2,4.5-7c0.3-1.8,0.2-3.6-0.4-5.3
	c-0.1-0.4,0.1-0.8,0.5-0.9c0.4-0.1,0.8,0.1,0.9,0.5c0.6,1.9,0.8,4,0.4,6c-0.6,3.2-2.4,6.1-5.1,7.9C17.3,34,14.8,34.7,12.3,34.7z"/>
<path fill="#381C1C" d="M24.9,34.7c-0.4,0-0.8,0-1.1-0.1c-0.6-0.1-1.3-0.2-1.9-0.4c-0.3-0.1-0.6-0.2-0.9-0.3
	c-0.4-0.2-0.5-0.6-0.4-0.9c0.2-0.4,0.6-0.5,0.9-0.4c0.2,0.1,0.5,0.2,0.8,0.3c0.5,0.2,1.1,0.3,1.6,0.4c0.6,0.1,1.1,0.1,1.7,0
	c4.6-0.4,8.1-4.5,7.7-9.1c-0.4-4.6-4.5-8.1-9.1-7.7c-4.6,0.4-8.1,4.5-7.7,9.1c0,0.6,0.2,1.1,0.3,1.7c0.2,0.5,0.4,1,0.6,1.5
	c0.1,0.2,0.3,0.5,0.4,0.7c0.2,0.3,0.1,0.8-0.2,1c-0.3,0.2-0.8,0.1-1-0.2c-0.2-0.3-0.3-0.5-0.5-0.8c-0.3-0.6-0.5-1.2-0.7-1.8
	c-0.2-0.6-0.3-1.3-0.4-2c-0.5-5.4,3.6-10.2,9-10.7c5.4-0.5,10.2,3.6,10.7,9c0.5,5.4-3.6,10.2-9,10.7C25.5,34.7,25.2,34.7,24.9,34.7z
	"/>
<path fill="#381C1C" d="M25,12.8c-0.2,0-0.4-0.1-0.5-0.2L19.7,8c-1.5-1.4-2.1-3.5-1.4-5.4C19,1,20.3,0,21.9,0c1.1,0,2.2,0.7,3,1.6
	C25.7,0.7,26.8,0,27.9,0c1.6,0,3,1,3.6,2.5C32.1,4,32,6.2,30.2,8l-4.7,4.6C25.4,12.7,25.2,12.8,25,12.8z M21.9,1.4
	c-1,0-1.8,0.6-2.2,1.7c-0.4,1-0.3,2.6,1,3.8l4.3,4.1l4.2-4.1c1.3-1.3,1.4-2.9,0.9-3.9c-0.4-1-1.3-1.6-2.3-1.6
	c-0.8,0-1.8,0.8-2.3,1.7c-0.1,0.2-0.4,0.4-0.6,0.4c0,0,0,0,0,0c-0.3,0-0.5-0.2-0.6-0.4C23.8,2.2,22.7,1.4,21.9,1.4z"/>
</svg>
