<!-- Generator: Adobe Illustrator 19.2.1, SVG Export Plug-In  -->
<svg version="1.1"
	 xmlns="http://www.w3.org/2000/svg" xmlns:xlink="http://www.w3.org/1999/xlink" xmlns:a="http://ns.adobe.com/AdobeSVGViewerExtensions/3.0/"
	 x="0px" y="0px" width="33.7px" height="33.5px" viewBox="0 0 33.7 33.5"
	 overflow="visible" enable-background="new 0 0 33.7 33.5" xml:space="preserve">
<defs>
</defs>
<path fill="#381C1C" d="M0.7,33.5c-0.2,0-0.4-0.1-0.5-0.2C0,33.1,0,32.9,0,32.7L1,27c0.1-0.4,0.4-0.7,0.8-0.6
	c0.4,0.1,0.7,0.4,0.6,0.8l-0.8,4.7l4.7-0.8c0.4-0.1,0.8,0.2,0.8,0.6c0.1,0.4-0.2,0.8-0.6,0.8l-5.7,1C0.8,33.5,0.8,33.5,0.7,33.5z"/>
<path fill="#381C1C" d="M1.2,33.1c-0.2,0-0.4-0.1-0.5-0.2c-0.3-0.3-0.3-0.7,0-1l5.5-5.5c0.3-0.3,0.7-0.3,1,0c0.3,0.3,0.3,0.7,0,1
	l-5.5,5.5C1.6,33,1.4,33.1,1.2,33.1z"/>
<path fill="#381C1C" d="M15.1,19.3c-0.2,0-0.4-0.1-0.5-0.2c-0.3-0.3-0.3-0.7,0-1L28.1,4.5c0.3-0.3,0.7-0.3,1,0c0.3,0.3,0.3,0.7,0,1
	L15.6,19.1C15.4,19.2,15.2,19.3,15.1,19.3z"/>
<path fill="#381C1C" d="M28.7,11.3c-0.1,0-0.1,0-0.2,0l-3.7-1.2c-0.4-0.1-0.6-0.5-0.5-0.9s0.5-0.6,0.9-0.5l3.3,1l3.2-3.2l-2.6-0.8
	c-0.4-0.1-0.6-0.5-0.5-0.9c0.1-0.4,0.5-0.6,0.9-0.5l3.7,1.2c0.2,0.1,0.4,0.3,0.5,0.5c0.1,0.2,0,0.5-0.2,0.7l-4.3,4.3
	C29.1,11.2,28.9,11.3,28.7,11.3z"/>
<path fill="#381C1C" d="M24.3,9.5c-0.3,0-0.6-0.2-0.7-0.5l-1.2-3.7c-0.1-0.3,0-0.5,0.2-0.7L27,0.2C27.1,0,27.4,0,27.7,0
	c0.2,0.1,0.4,0.2,0.5,0.5l1.2,3.7c0.1,0.4-0.1,0.8-0.5,0.9C28.5,5.2,28.1,5,28,4.6l-0.8-2.6L24,5.2l1,3.3c0.1,0.4-0.1,0.8-0.5,0.9
	C24.5,9.5,24.4,9.5,24.3,9.5z"/>
<path fill="#381C1C" d="M13.1,33.5c-0.2,0-0.4-0.1-0.5-0.2l-9.4-9.1c-2.9-2.6-3.9-6.5-2.6-9.9C1.7,11.5,4.1,9.7,7,9.7
	c2.2,0,4.5,1.6,5.9,3.5c1.3-1.9,3.6-3.5,5.8-3.5c2.8,0,5.3,1.7,6.5,4.5c1.1,2.7,1,6.7-2.3,10l-9.3,9.1
	C13.4,33.5,13.3,33.5,13.1,33.5z M7,11.1c-2.3,0-4.2,1.4-5.1,3.8c-0.9,2.3-0.8,5.6,2.2,8.3l9,8.6l8.8-8.6c2.9-2.8,2.9-6.2,2-8.4
	c-0.9-2.2-2.9-3.6-5.1-3.6c-2,0-4.3,1.9-5.2,3.7c-0.1,0.2-0.4,0.4-0.6,0.4c-0.3,0-0.5-0.1-0.6-0.4C11.3,13.1,9,11.1,7,11.1z"/>
</svg>
