<!-- Generator: Adobe Illustrator 19.2.1, SVG Export Plug-In  -->
<svg version="1.1"
	 xmlns="http://www.w3.org/2000/svg" xmlns:xlink="http://www.w3.org/1999/xlink" xmlns:a="http://ns.adobe.com/AdobeSVGViewerExtensions/3.0/"
	 x="0px" y="0px" width="34.3px" height="35.4px" viewBox="0 0 34.3 35.4"
	 overflow="visible" enable-background="new 0 0 34.3 35.4" xml:space="preserve">
<defs>
</defs>
<path fill="#381C1C" d="M9,35.4c-0.5,0-1-0.1-1.5-0.4c-1.4-0.8-1.8-2.6-1-4l0.7-1.2l-1.6,0.7c-0.7,0.3-1.5,0.3-2.2,0.1
	c-0.7-0.3-1.3-0.8-1.6-1.5c-0.3-0.7-0.3-1.5-0.1-2.2s0.8-1.3,1.5-1.6l1-0.5l-1.7-0.3c-0.8-0.1-1.4-0.6-1.9-1.2
	c-0.4-0.7-0.6-1.4-0.5-2.2c0.1-0.8,0.6-1.4,1.2-1.9c0.7-0.4,1.4-0.6,2.2-0.5c0.7,0.1,1.5,0.3,2.2,0.5c2.5,0.6,5.1,1.1,7.5,0.9
	c-2.7-0.8-6.2-2.4-8-6.2c-1.8-3.6-0.7-7.5,0-10.1l0.2-0.8C5.6,1.5,5.8,1,6.4,1c0.6-0.1,0.8,0.4,1,0.9c0.3,0.6,0.7,1.6,1.8,2.7
	c2.2,2.3,3.9,2.7,5.4,3c1.7,0.3,3.3,0.6,5,3.1c0-0.6-0.1-1.2-0.3-1.8c-0.5-1.9-0.5-4.6,1-6.4c1-1.3,2.6-2,4.5-2
	c1.5,0,2.9,0.6,3.9,1.6c0.8,0.8,2.2,0.8,3.5,0.8c0.5,0,0.9,0,1.3,0.1c0.3,0,0.6,0.3,0.6,0.6c0.1,0.3-0.1,0.6-0.3,0.8l-0.3,0.2
	c-2.4,1.4-3,1.8-3.4,4.1c-0.2,0.9-0.3,1.6-0.4,2.1c-0.3,1.2-0.4,1.6,0,2.8c0.5,1.5,0.8,3,0.8,4.4c0,7.2-5.5,12.6-12.8,12.6
	c-1.2,0-2.5-0.2-3.9-0.7l-2.5,4.2C10.9,34.9,10,35.4,9,35.4z M8.9,27.4c0.2,0,0.4,0.1,0.5,0.2c0.2,0.2,0.2,0.6,0.1,0.8l-1.9,3.1
	c-0.2,0.3-0.3,0.7-0.2,1.1c0.1,0.4,0.3,0.7,0.7,0.9c0.3,0.2,0.7,0.3,1.1,0.2c0.4-0.1,0.7-0.3,0.9-0.7l2.8-4.7
	c0.2-0.3,0.6-0.4,0.9-0.3c1.4,0.6,2.7,0.8,3.9,0.8c6.5,0,11.4-4.8,11.4-11.1c0-1.3-0.2-2.6-0.7-3.9c-0.5-1.6-0.4-2.3-0.1-3.6
	c0.1-0.5,0.3-1.2,0.4-2c0.4-2.2,1-3.1,2.3-4c-1.3-0.1-2.5-0.3-3.4-1.2C27,2.3,26,1.9,24.9,1.9c-1.5,0-2.6,0.5-3.4,1.4
	c-1.1,1.5-1.1,3.6-0.7,5.2c0.3,1.3,0.4,3,0.3,4.7c0,0.3-0.3,0.6-0.6,0.6c-0.3,0.1-0.6-0.1-0.8-0.4c-2-3.8-3.5-4.1-5.4-4.5
	c-1.7-0.3-3.7-0.7-6.2-3.4C7.4,4.8,6.9,4.1,6.6,3.5L6.5,4C5.6,7.2,5,10.2,6.4,13.1c2.1,4.3,6.6,5.5,9.9,6c0.3,0.1,0.6,0.3,0.6,0.6
	c0,0.3-0.1,0.6-0.4,0.8c-3.5,1.7-7.3,0.8-11.1,0c-0.7-0.2-1.4-0.3-2.2-0.5c-0.4-0.1-0.8,0-1.1,0.2c-0.3,0.2-0.6,0.6-0.6,1
	c-0.1,0.4,0,0.8,0.2,1.1c0.2,0.3,0.6,0.6,1,0.6l4,0.8c0.3,0.1,0.5,0.3,0.6,0.6S7.1,24.9,6.8,25l-3.1,1.4c-0.4,0.2-0.6,0.5-0.8,0.8
	c-0.1,0.4-0.1,0.8,0,1.1c0.2,0.4,0.5,0.6,0.8,0.8c0.4,0.1,0.8,0.1,1.1,0l3.7-1.7C8.7,27.5,8.8,27.4,8.9,27.4z"/>
<path fill="#381C1C" d="M16.2,9.1c-0.1,0-0.3,0-0.4-0.1c-1.4-1-2.4-2.3-3.3-4.2c-0.4-0.9-0.6-1.7-0.7-2.3l-0.3,0.4
	c-0.7,0.9-1.4,1.9-2,2.9C9.3,6,8.9,6.2,8.5,6C8.2,5.8,8.1,5.3,8.3,5c0.6-1.1,1.4-2.1,2.1-3.1l0.5-0.6c0.8-1.1,1.1-1.4,1.7-1.3
	c0.6,0.2,0.6,0.7,0.6,1.2c0,0.6,0.1,1.6,0.7,2.9c1,2.1,2,3.1,2.8,3.6c0.3,0.2,0.4,0.7,0.2,1C16.7,9,16.5,9.1,16.2,9.1z"/>
<path fill="#381C1C" d="M25.5,6.9c-0.8,0-1.4-0.6-1.4-1.4c0-0.8,0.6-1.4,1.4-1.4s1.4,0.6,1.4,1.4C26.9,6.3,26.3,6.9,25.5,6.9z
	 M25.5,4.8v0.7c0,0,0,0,0,0L25.5,4.8z"/>
</svg>