<!-- Generator: Adobe Illustrator 19.2.1, SVG Export Plug-In  -->
<svg version="1.1"
	 xmlns="http://www.w3.org/2000/svg" xmlns:xlink="http://www.w3.org/1999/xlink" xmlns:a="http://ns.adobe.com/AdobeSVGViewerExtensions/3.0/"
	 x="0px" y="0px" width="34.3px" height="38px" viewBox="0 0 34.3 38" overflow="scroll" enable-background="new 0 0 34.3 38"
	 xml:space="preserve">
<defs>
</defs>
<path fill="#F9A832" d="M15.1,15.9c-0.4-0.3-0.8-0.7-1.3-0.9c-0.4-0.1-0.8-0.1-1.3-0.1c-0.4,0.1-0.9,0.2-1.2,0.5
	c-0.4,0.4-0.6,0.9-0.7,1.4c-0.1,0.4-0.2,0.8-0.2,1.2c0,1.5,1,2.9,2,4.1c1.2,1.4,2.5,2.7,3.9,3.9c0.7-0.2,1.3-0.5,1.8-0.9
	c0.8-0.6,1.4-1.3,2-2.1c0.2-0.3,0.4-0.5,0.6-0.8c0.8-1,1.6-2.1,1.8-3.4c0.1-1-0.2-2.1-0.9-2.8C21,15.3,20,14.8,19,14.8
	c-0.3,0-0.7,0.1-1,0.2c-0.6,0.3-0.8,0.9-1.3,1.2C16.2,16.6,15.5,16.2,15.1,15.9z"/>
<circle fill="#F9A832" cx="19.9" cy="2" r="0.5"/>
<circle fill="#F9A832" cx="2" cy="6.9" r="0.8"/>
<circle fill="#F9A832" cx="16.2" cy="1.1" r="1.1"/>
<circle fill="#F9A832" cx="30.1" cy="8.2" r="1.1"/>
<circle fill="#F9A832" cx="2" cy="12.6" r="0.7"/>
<circle fill="#F9A832" cx="27.6" cy="5.2" r="1.7"/>
<path fill="#FAA220" d="M22.1,36.9c2.9,0,5.8,0.1,8.8,0.2c0.8,0.1,1.7,0,2.2-0.6c0.3-0.4,0.3-0.8,0.3-1.3c0.1-1.6,0.1-3.3,0-4.9
	c-0.1-0.8-0.2-1.6-0.3-2.4c-0.1-1.1,0-2.3,0.1-3.4c0.1-1.4,0.2-2.8,0.4-4.3c-0.4-0.2-0.8,0.2-1.2,0.6c-1,1.1-2.4,1.7-3.6,2.5
	c-1.7,1.2-3,3-4.7,4.2c-2.2,1.6-5.2,2.4-6.7,4.7c-1.9-1.1-3.7-2.4-5.4-3.8c-0.4-0.4-0.8-0.8-1.3-1.2c-2.9-2.7-6.1-5.2-9.5-7.3
	c-0.2,2.1-0.3,4.2-0.5,6.4c-0.2,2.3-0.4,4.6-0.3,6.9c0,1-0.1,3.4,0.9,3.9c0.5,0.3,1.5,0.1,2,0.1c0.9,0,1.8,0,2.7,0
	c3.5,0,7-0.2,10.4-0.4C18.3,37,20.2,36.9,22.1,36.9z"/>
<path fill="#381C1C" d="M16.7,26.9c-0.2,0-0.4-0.1-0.5-0.2l-4.8-4.6c-1.5-1.4-2.1-3.5-1.4-5.4c0.6-1.6,2-2.6,3.6-2.6
	c1.1,0,2.2,0.7,3,1.6c0.7-0.9,1.9-1.6,2.9-1.6c1.6,0,3,1,3.6,2.5c0.6,1.5,0.6,3.6-1.3,5.5l-4.7,4.6C17,26.8,16.9,26.9,16.7,26.9z
	 M13.6,15.6c-1,0-1.8,0.6-2.2,1.7c-0.4,1-0.3,2.6,1,3.8l4.3,4.1l4.2-4.1c1.3-1.3,1.4-2.9,0.9-3.9c-0.4-1-1.3-1.6-2.3-1.6
	c-0.8,0-1.8,0.8-2.3,1.7c-0.1,0.2-0.4,0.4-0.6,0.4c-0.3,0-0.5-0.1-0.6-0.4C15.5,16.3,14.4,15.6,13.6,15.6z"/>
<path fill="#381C1C" d="M29.4,23.2c-0.4,0-0.7-0.3-0.7-0.7V12.2c0-0.4,0.3-0.7,0.7-0.7s0.7,0.3,0.7,0.7v10.2
	C30.1,22.8,29.8,23.2,29.4,23.2z"/>
<path fill="#381C1C" d="M5,23.3c-0.4,0-0.7-0.3-0.7-0.7V5.5c0-1.1,0.9-1.9,1.9-1.9h15.2c0.4,0,0.7,0.3,0.7,0.7S21.8,5,21.4,5H6.2
	C5.9,5,5.7,5.2,5.7,5.5v17.1C5.7,23,5.4,23.3,5,23.3z"/>
<path fill="#381C1C" d="M29.4,12.9h-6.7c-1.1,0-1.9-0.9-1.9-1.9V4.3c0-0.3,0.2-0.6,0.4-0.7c0.3-0.1,0.6-0.1,0.8,0.2l7.9,7.9
	c0.2,0.2,0.3,0.5,0.2,0.8C29.9,12.8,29.7,12.9,29.4,12.9z M22.1,6v5c0,0.3,0.2,0.5,0.5,0.5h5L22.1,6z"/>
<path fill="#381C1C" d="M33.6,38H0.7C0.3,38,0,37.7,0,37.3V19c0-0.2,0.1-0.4,0.3-0.6L4,15.7c0.3-0.2,0.8-0.2,1,0.2
	c0.2,0.3,0.2,0.8-0.2,1l-3.4,2.5v17.2h31.4V19.4l-3.4-2.5c-0.3-0.2-0.4-0.7-0.2-1c0.2-0.3,0.7-0.4,1-0.2l3.7,2.7
	c0.2,0.1,0.3,0.4,0.3,0.6v18.3C34.3,37.7,34,38,33.6,38z"/>
<path fill="#381C1C" d="M17.2,33.4c-0.2,0-0.3-0.1-0.4-0.2L0.3,20.3c-0.3-0.2-0.4-0.7-0.1-1c0.2-0.3,0.7-0.4,1-0.1l16,12.5l16-12.5
	c0.3-0.2,0.8-0.2,1,0.1c0.2,0.3,0.2,0.8-0.1,1L17.6,33.2C17.5,33.3,17.3,33.4,17.2,33.4z"/>
</svg>