<!-- Generator: Adobe Illustrator 19.2.1, SVG Export Plug-In  -->
<svg version="1.1"
	 xmlns="http://www.w3.org/2000/svg" xmlns:xlink="http://www.w3.org/1999/xlink" xmlns:a="http://ns.adobe.com/AdobeSVGViewerExtensions/3.0/"
	 x="0px" y="0px" width="67.9px" height="53.7px" viewBox="0 0 67.9 53.7" overflow="scroll" enable-background="new 0 0 67.9 53.7"
	 xml:space="preserve">
<defs>
</defs>
<g>
	<path fill="#F9A832" d="M19.5,1c0,0.5-0.4,1-1,1c-0.5,0-1-0.4-1-1c0-0.5,0.4-1,1-1c0,0,0,0,0,0C19.1,0,19.5,0.4,19.5,1z"/>
	<ellipse fill="#F9A832" cx="8.1" cy="1.9" rx="1.3" ry="1.3"/>
	<ellipse fill="#F9A832" cx="16.7" cy="9.7" rx="1.8" ry="1.8"/>
	<path fill="#F9A832" d="M45.9,3.1c0,0.5,0.4,1,1,1c0.5,0,1-0.4,1-1s-0.4-1-1-1l0,0C46.4,2.2,45.9,2.6,45.9,3.1z"/>
	<ellipse fill="#F9A832" cx="62.8" cy="18.7" rx="1.3" ry="1.3"/>
	<ellipse fill="#F9A832" cx="48.7" cy="11.9" rx="1.8" ry="1.8"/>
	<path fill="#FFFFFF" d="M60.1,23.3h-0.3c-1.5-5-6.7-7.9-11.7-6.5c-0.9,0.3-1.7,0.6-2.5,1.1C44.5,10.8,37.9,6,30.8,7.1
		c-4.9,0.8-8.9,4.2-10.4,9c-4.7-1.3-9.6,1.5-10.9,6.2c-0.1,0.3-0.2,0.6-0.2,1H7.8c-3.7,0-6.7,3-6.7,6.7v0.5c0,3.7,3,6.7,6.7,6.7
		h52.3c3.7,0,6.6-3,6.7-6.7v-0.5C66.7,26.2,63.8,23.3,60.1,23.3z"/>
	<path fill="#FFFFFF" d="M54,24.9h-0.2c-1.3-4.4-5.9-7-10.3-5.7c-0.8,0.2-1.5,0.6-2.2,1c-1-6.2-6.8-10.5-13-9.6
		c-4.3,0.7-7.9,3.7-9.2,7.9c-4.2-1.1-8.5,1.3-9.6,5.5c-0.1,0.3-0.1,0.6-0.2,0.9H7.9c-3.2,0-5.9,2.6-5.9,5.9v0.4
		c0,3.2,2.6,5.9,5.9,5.9H54c3.2,0,5.9-2.6,5.9-5.9v-0.4C59.8,27.5,57.2,24.9,54,24.9z"/>
	<path fill="#381C1C" d="M40.3,17.5c-2.8-4.4-8.6-5.7-13-3.1l-1.2-2c5.5-3.3,12.6-1.6,16.1,3.8L40.3,17.5z"/>
	<path fill="#381C1C" d="M60.1,38.2h-8v-2.3h8c3,0,5.5-2.5,5.5-5.5v-0.5c0-3-2.5-5.5-5.5-5.5H59l-0.2-0.8c-1.3-4.4-5.9-7-10.3-5.7
		c-0.8,0.2-1.5,0.6-2.2,1l-1.5,1l-0.3-1.7c-1-6.5-7-10.9-13.5-9.9c-2.8,0.4-5.4,1.9-7.3,4.1c-0.5,0.6-0.9,1.2-1.3,1.8
		c-0.4,0.7-0.7,1.5-1,2.3l-0.3,1.1l-1.1-0.3c-4.1-1.1-8.3,1.2-9.5,5.3c-0.1,0.3-0.2,0.6-0.2,0.9l-0.2,1H7.8c-3,0-5.5,2.5-5.5,5.5
		v0.5c0,3,2.5,5.5,5.5,5.5h6.8v2.3H7.8c-4.3,0-7.8-3.5-7.8-7.8v-0.5c0-4.3,3.5-7.8,7.8-7.8h0.5c1.3-5,6.2-8.2,11.3-7.4
		c0.2-0.6,0.5-1.2,0.8-1.7c2.5-4.5,7.2-7.2,12.3-7.2c6.4,0,12,4.2,13.6,10.4c1.4-0.6,2.8-0.9,4.3-0.9c4.4,0,8.4,2.7,9.9,6.9
		c4.1,0.3,7.2,3.7,7.2,7.8v0.5C67.9,34.7,64.4,38.2,60.1,38.2z"/>
	<path fill="#381C1C" d="M24,20.3h-2.3c0-1.9-1.6-3.5-3.5-3.5v-2.3C21.4,14.6,24,17.1,24,20.3z"/>
	<line fill="none" stroke="#381C1C" stroke-width="1.8348" stroke-linejoin="round" x1="33.9" y1="38.6" x2="33.9" y2="53.7"/>
	<path fill="none" stroke="#381C1C" stroke-width="1.8348" stroke-linejoin="round" d="M33.9,38.6"/>
	<path fill="none" stroke="#381C1C" stroke-width="1.8348" stroke-linejoin="round" d="M33.9,34.9"/>
	<line fill="none" stroke="#381C1C" stroke-width="1.8348" stroke-linejoin="round" x1="33.9" y1="19.8" x2="33.9" y2="34.9"/>
	<line fill="none" stroke="#381C1C" stroke-width="1.8348" stroke-linejoin="round" x1="33.9" y1="24.3" x2="36.7" y2="22"/>
	<line fill="none" stroke="#381C1C" stroke-width="1.8348" stroke-linejoin="round" x1="33.9" y1="29" x2="38.1" y2="25.7"/>
	<line fill="none" stroke="#381C1C" stroke-width="1.8348" stroke-linejoin="round" x1="33.9" y1="24.3" x2="31.2" y2="22"/>
	<line fill="none" stroke="#381C1C" stroke-width="1.8348" stroke-linejoin="round" x1="33.9" y1="29" x2="29.8" y2="25.7"/>
	<line fill="none" stroke="#381C1C" stroke-width="1.8348" stroke-linejoin="round" x1="33.9" y1="49.1" x2="31.2" y2="51.4"/>
	<line fill="none" stroke="#381C1C" stroke-width="1.8348" stroke-linejoin="round" x1="33.9" y1="44.4" x2="29.8" y2="47.8"/>
	<line fill="none" stroke="#381C1C" stroke-width="1.8348" stroke-linejoin="round" x1="33.9" y1="49.1" x2="36.7" y2="51.4"/>
	<line fill="none" stroke="#381C1C" stroke-width="1.8348" stroke-linejoin="round" x1="33.9" y1="44.4" x2="38.1" y2="47.8"/>
	<line fill="none" stroke="#381C1C" stroke-width="1.8348" stroke-linejoin="round" x1="35.6" y1="37.7" x2="48.6" y2="45.2"/>
	<line fill="none" stroke="#381C1C" stroke-width="1.8348" stroke-linejoin="round" x1="19.3" y1="28.3" x2="32.3" y2="35.8"/>
	<line fill="none" stroke="#381C1C" stroke-width="1.8348" stroke-linejoin="round" x1="23.1" y1="30.5" x2="22.5" y2="27"/>
	<line fill="none" stroke="#381C1C" stroke-width="1.8348" stroke-linejoin="round" x1="27.2" y1="32.9" x2="26.4" y2="27.6"/>
	<line fill="none" stroke="#381C1C" stroke-width="1.8348" stroke-linejoin="round" x1="23.1" y1="30.5" x2="19.8" y2="31.7"/>
	<line fill="none" stroke="#381C1C" stroke-width="1.8348" stroke-linejoin="round" x1="27.2" y1="32.9" x2="22.3" y2="34.8"/>
	<line fill="none" stroke="#381C1C" stroke-width="1.8348" stroke-linejoin="round" x1="44.6" y1="42.9" x2="45.3" y2="46.5"/>
	<line fill="none" stroke="#381C1C" stroke-width="1.8348" stroke-linejoin="round" x1="40.6" y1="40.6" x2="41.4" y2="45.8"/>
	<line fill="none" stroke="#381C1C" stroke-width="1.8348" stroke-linejoin="round" x1="44.6" y1="42.9" x2="48" y2="41.7"/>
	<line fill="none" stroke="#381C1C" stroke-width="1.8348" stroke-linejoin="round" x1="40.6" y1="40.6" x2="45.5" y2="38.7"/>
	<line fill="none" stroke="#381C1C" stroke-width="1.8348" stroke-linejoin="round" x1="35.6" y1="35.8" x2="48.6" y2="28.3"/>
	<line fill="none" stroke="#381C1C" stroke-width="1.8348" stroke-linejoin="round" x1="19.3" y1="45.2" x2="32.3" y2="37.7"/>
	<line fill="none" stroke="#381C1C" stroke-width="1.8348" stroke-linejoin="round" x1="23.1" y1="43" x2="19.8" y2="41.8"/>
	<line fill="none" stroke="#381C1C" stroke-width="1.8348" stroke-linejoin="round" x1="27.2" y1="40.7" x2="22.3" y2="38.8"/>
	<line fill="none" stroke="#381C1C" stroke-width="1.8348" stroke-linejoin="round" x1="23.1" y1="43" x2="22.5" y2="46.5"/>
	<line fill="none" stroke="#381C1C" stroke-width="1.8348" stroke-linejoin="round" x1="27.2" y1="40.7" x2="26.4" y2="45.9"/>
	<line fill="none" stroke="#381C1C" stroke-width="1.8348" stroke-linejoin="round" x1="44.6" y1="30.6" x2="48" y2="31.8"/>
	<line fill="none" stroke="#381C1C" stroke-width="1.8348" stroke-linejoin="round" x1="40.6" y1="32.9" x2="45.5" y2="34.8"/>
	<line fill="none" stroke="#381C1C" stroke-width="1.8348" stroke-linejoin="round" x1="44.6" y1="30.6" x2="45.3" y2="27.1"/>
	<line fill="none" stroke="#381C1C" stroke-width="1.8348" stroke-linejoin="round" x1="40.6" y1="32.9" x2="41.4" y2="27.7"/>
	<ellipse fill="none" stroke="#381C1C" stroke-width="1.8348" stroke-linejoin="round" cx="33.9" cy="36.8" rx="1.9" ry="1.9"/>
</g>
</svg>
