<!-- Generator: Adobe Illustrator 19.2.1, SVG Export Plug-In  -->
<svg version="1.1"
	 xmlns="http://www.w3.org/2000/svg" xmlns:xlink="http://www.w3.org/1999/xlink" xmlns:a="http://ns.adobe.com/AdobeSVGViewerExtensions/3.0/"
	 x="0px" y="0px" width="35.5px" height="36.2px" viewBox="0 0 35.5 36.2"
	 overflow="visible" enable-background="new 0 0 35.5 36.2" xml:space="preserve">
<defs>
</defs>
<path fill="#381C1C" d="M9.6,36.2c-0.9,0-1.7-0.3-2.3-0.9l-6.3-6.3c-0.6-0.6-1-1.5-0.9-2.4c0-0.8,0.4-1.6,1-2.1l6.5-5.9
	c1.8-1.6,3.7-2.3,5.7-2.9c2.5-0.8,5.2-1.7,8.1-4.7l0.2-0.2c0.3-0.3,0.7-0.3,1,0c0.3,0.3,0.3,0.7,0,1l-0.2,0.2
	c-3.2,3.3-6.1,4.2-8.7,5.1c-1.9,0.6-3.6,1.2-5.2,2.6l-6.5,5.9c-0.3,0.3-0.5,0.7-0.5,1.1c0,0.5,0.2,1,0.5,1.3l6.3,6.3
	c0.3,0.3,0.8,0.5,1.3,0.5c0.4,0,0.8-0.2,1.1-0.5l5.9-6.5c1.3-1.5,1.9-3.1,2.5-4.9c0.9-2.6,1.9-5.5,5.3-8.9l0.2-0.2
	c0.3-0.3,0.7-0.3,1,0c0.3,0.3,0.3,0.7,0,1L25.4,15c-3.2,3.2-4.1,5.9-4.9,8.4c-0.7,1.9-1.3,3.7-2.8,5.4l-5.9,6.5
	C11.2,35.8,10.5,36.2,9.6,36.2C9.6,36.2,9.6,36.2,9.6,36.2z"/>
<path fill="#381C1C" d="M25.4,15.1c-0.2,0-0.4,0-0.6-0.1c-0.1,0-0.2-0.1-0.2-0.2l-3.3-3.3c-0.1-0.1-0.1-0.1-0.2-0.2
	c-0.2-0.6-0.1-1.2,0.3-1.7l2.2-2.5c0.3-0.3,0.7-0.5,1.1-0.5c0.4,0,0.9,0.2,1.2,0.5l3.1,3.1c0.3,0.3,0.5,0.8,0.5,1.2
	c0,0.4-0.2,0.8-0.5,1.1l-2.5,2.2C26.2,15,25.8,15.1,25.4,15.1z M22.4,10.7l3,3c0,0,0.1,0,0.1-0.1l2.5-2.2c0-0.1,0-0.2,0-0.2
	l-3.1-3.1c0,0-0.1-0.1-0.1-0.1l-2.3,2.5C22.4,10.6,22.4,10.6,22.4,10.7z"/>
<path fill="#381C1C" d="M16.1,30.2c-0.2,0-0.4-0.1-0.5-0.2l-2.3-2.3c-1.7,0.8-3.4,0.6-4.4-0.4c-1-1-1.2-2.7-0.4-4.4l-2.1-2.1
	c-0.3-0.3-0.3-0.7,0-1s0.7-0.3,1,0l2.5,2.5c0.2,0.2,0.3,0.6,0.1,0.9c-0.7,1.2-0.7,2.5-0.1,3.2c0.7,0.7,1.9,0.6,3.2-0.1
	c0.3-0.2,0.6-0.1,0.9,0.1l2.6,2.6c0.3,0.3,0.3,0.7,0,1C16.4,30.1,16.3,30.2,16.1,30.2z"/>
<path fill="#381C1C" d="M18.2,27.6c-0.2,0-0.4-0.1-0.5-0.2L15.3,25c-0.2-0.2-0.3-0.6-0.1-0.9c0.7-1.2,0.7-2.5,0.1-3.2
	c-0.7-0.7-1.9-0.6-3.2,0.1c-0.3,0.2-0.6,0.1-0.9-0.1L9,18.7c-0.3-0.3-0.3-0.7,0-1s0.7-0.3,1,0l1.9,1.9c1.7-0.8,3.4-0.6,4.4,0.4
	c1,1,1.2,2.7,0.4,4.4l2,2c0.3,0.3,0.3,0.7,0,1C18.6,27.5,18.4,27.6,18.2,27.6z"/>
<path fill="#381C1C" d="M27,5.9c-0.1,0-0.1,0-0.2,0c-0.4-0.1-0.6-0.5-0.5-0.9l1.1-4.5c0.1-0.4,0.5-0.6,0.9-0.5
	c0.4,0.1,0.6,0.5,0.5,0.9l-1.1,4.5C27.6,5.7,27.3,5.9,27,5.9z"/>
<path fill="#381C1C" d="M28.8,7.7c-0.2,0-0.4-0.1-0.5-0.2c-0.3-0.3-0.3-0.7,0-1L33,1.8c0.3-0.3,0.7-0.3,1,0c0.3,0.3,0.3,0.7,0,1
	l-4.7,4.6C29.2,7.6,29,7.7,28.8,7.7z"/>
<path fill="#381C1C" d="M30.3,9.7c-0.3,0-0.6-0.2-0.7-0.5c-0.1-0.4,0.1-0.8,0.5-0.9l4.4-1.4c0.4-0.1,0.8,0.1,0.9,0.5
	c0.1,0.4-0.1,0.8-0.5,0.9l-4.4,1.4C30.5,9.7,30.4,9.7,30.3,9.7z"/>
</svg>
