<!-- Generator: Adobe Illustrator 19.2.1, SVG Export Plug-In  -->
<svg version="1.1"
	 xmlns="http://www.w3.org/2000/svg" xmlns:xlink="http://www.w3.org/1999/xlink" xmlns:a="http://ns.adobe.com/AdobeSVGViewerExtensions/3.0/"
	 x="0px" y="0px" width="33.2px" height="33.3px" viewBox="0 0 33.2 33.3" overflow="scroll" enable-background="new 0 0 33.2 33.3"
	 xml:space="preserve">
<defs>
</defs>
<path fill="#381C1C" d="M27.7,33.3v-1.4c0.5,0,0.9-0.4,1-1l0.6-13.5H4l0.8,13.5c0,0.6,0.5,1,1,1h21.8V33.3H5.8c-1.3,0-2.3-1-2.4-2.4
	L2.6,17.4c-1.2-0.1-2.2-1.1-2.3-2.4L0,10.6C0,10,0.2,9.4,0.6,8.9c0.5-0.5,1.1-0.8,1.8-0.8h28.3c0.7,0,1.3,0.3,1.8,0.8
	c0.4,0.5,0.7,1.1,0.6,1.7L32.9,15c-0.1,1.3-1.1,2.3-2.3,2.4L30.1,31l-0.7,0l0.7,0C30,32.3,28.9,33.3,27.7,33.3z M2.4,9.6
	c-0.3,0-0.6,0.1-0.8,0.3c-0.1,0.1-0.3,0.3-0.2,0.6L1.7,15c0,0.6,0.5,1,1,1h27.8c0.5,0,0.9-0.4,1-1l0.3-4.4c0-0.2-0.1-0.4-0.2-0.6
	c-0.2-0.2-0.5-0.3-0.8-0.3H2.4z"/>
<path fill="#381C1C" d="M16.6,33.3c-0.4,0-0.7-0.3-0.7-0.7V8.9c0-0.4,0.3-0.7,0.7-0.7s0.7,0.3,0.7,0.7v23.7
	C17.3,33,17,33.3,16.6,33.3z"/>
<path fill="#381C1C" d="M14.9,8.8C6.2,8.8,4.9,5.4,4.7,4.3C4.4,2.5,5.6,0.8,7.6,0.2c2.5-0.8,6.3,0.4,9.2,5.8c0-0.1,0.1-0.2,0.1-0.3
	c2.4-4.4,5.6-5.1,7.7-4.5c1.5,0.5,2.5,1.8,2.3,3.2c-0.1,0.9-1.3,4.1-9.9,4.3C16.2,8.8,15.6,8.8,14.9,8.8z M9,1.4
	C8.7,1.4,8.3,1.5,8,1.6C6.7,2,5.9,3,6.1,4c0.3,1.7,3,3.5,9.7,3.3C13.7,3,11.1,1.4,9,1.4z M23.2,2.5c-1.5,0-3.4,1-5,3.9
	c-0.1,0.1-0.2,0.5-0.3,0.9c5.3-0.3,7.4-1.8,7.5-3c0.1-0.7-0.4-1.3-1.3-1.6C23.9,2.5,23.5,2.5,23.2,2.5z"/>
</svg>
