<!-- Generator: Adobe Illustrator 19.2.1, SVG Export Plug-In  -->
<svg version="1.1"
	 xmlns="http://www.w3.org/2000/svg" xmlns:xlink="http://www.w3.org/1999/xlink" xmlns:a="http://ns.adobe.com/AdobeSVGViewerExtensions/3.0/"
	 x="0px" y="0px" width="25.1px" height="40.2px" viewBox="0 0 25.1 40.2"
	 overflow="visible" enable-background="new 0 0 25.1 40.2" xml:space="preserve">
<defs>
</defs>
<path fill="#381C1C" d="M24.4,40.2h-8c-0.2,0-0.4-0.1-0.5-0.2s-0.2-0.3-0.2-0.5l0-1.1c0-1.8,0-3.6,0-5.5c0-1.7-1.4-3.1-3.1-3.1
	s-3.1,1.4-3.1,3.1c0,1.8,0,3.7,0,5.5l0,1.1c0,0.2-0.1,0.4-0.2,0.5S9,40.2,8.8,40.2h-8c-0.4,0-0.7-0.3-0.7-0.7V28.6
	c0-0.3,0.2-0.6,0.5-0.7l6.5-4.7v-7c0-0.4,0.3-0.7,0.7-0.7s0.7,0.3,0.7,0.7v7.3c0,0.2-0.1,0.5-0.3,0.6L1.4,29v9.8H8l0-0.3
	c0-1.9,0-3.7,0-5.6c0-2.5,2.1-4.6,4.6-4.6s4.6,2,4.6,4.6c0,1.8,0,3.6,0,5.5l0,0.4h6.6V29l-6.8-4.8c-0.2-0.1-0.3-0.4-0.3-0.6v-7.3
	c0-0.4,0.3-0.7,0.7-0.7s0.7,0.3,0.7,0.7v7l6.6,4.7c0.3,0.1,0.5,0.4,0.5,0.6v10.9C25.1,39.9,24.8,40.2,24.4,40.2z"/>
<path fill="#381C1C" d="M17.7,16.2H7.4c-0.2,0-0.5-0.1-0.6-0.3c-0.1-0.2-0.2-0.4-0.1-0.7l4.5-11.6c-0.5-0.4-0.7-1-0.7-1.6
	c0-1.1,0.9-2.1,2.1-2.1s2.1,0.9,2.1,2.1c0,0.7-0.3,1.3-0.8,1.6l4.5,11.5c0.1,0.2,0.1,0.5-0.1,0.7C18.2,16.1,18,16.2,17.7,16.2z
	 M8.4,14.8h8.2L12.6,4.3L8.4,14.8z M12.6,1.4c-0.4,0-0.6,0.3-0.6,0.6c0,0.3,0.2,0.5,0.4,0.6c0.1,0,0.1,0.1,0.2,0.1
	c0.1,0,0.1-0.1,0.2-0.1c0.3-0.1,0.5-0.3,0.5-0.6C13.3,1.7,13,1.4,12.6,1.4z"/>
<path fill="#381C1C" d="M14.4,24.2h-3.6c-0.4,0-0.7-0.3-0.7-0.7c0-0.9,0-1.3,0-1.7c0-0.4,0-0.9,0-1.7c0-1.4,1.1-2.6,2.6-2.6
	c1.4,0,2.6,1.1,2.6,2.6c0,0.9,0,1.3,0,1.7c0,0.4,0,0.8,0,1.7C15.1,23.8,14.8,24.2,14.4,24.2z M11.5,22.7h2.2c0-0.4,0-0.7,0-1
	c0-0.4,0-0.8,0-1.7c0-0.6-0.5-1.1-1.1-1.1c-0.6,0-1.1,0.5-1.1,1.1c0,0.9,0,1.3,0,1.7C11.5,22,11.5,22.3,11.5,22.7z"/>
</svg>
