<!-- Generator: Adobe Illustrator 19.2.1, SVG Export Plug-In  -->
<svg version="1.1"
	 xmlns="http://www.w3.org/2000/svg" xmlns:xlink="http://www.w3.org/1999/xlink" xmlns:a="http://ns.adobe.com/AdobeSVGViewerExtensions/3.0/"
	 x="0px" y="0px" width="48.1px" height="44.6px" viewBox="0 0 48.1 44.6" overflow="scroll" enable-background="new 0 0 48.1 44.6"
	 xml:space="preserve">
<defs>
</defs>
<g>
	<path fill="#F9A832" d="M11.2,13.3c1.1-0.8,2.4-1.5,3-2.7c0.3-0.7,0.4-1.5,0.4-2.2c0-0.5-0.1-1-0.2-1.5c-0.4-1.2-1.3-2-2.5-2.4
		c-1.2-0.3-2.4-0.2-3.5,0.4C8.2,5,7.8,5.2,7.5,5.2C7.3,5.2,7,5.1,6.8,5C5.7,4.4,4.4,4.1,3.1,4.1c-0.2,0-0.4,0-0.6,0.1
		C2.4,4.2,2.3,4.3,2.2,4.4C0.9,5.5,0.5,7.2,0.9,8.8c0.4,1.3,1.4,2.3,2.3,3.3l2.3,2.4c0.8,0.9,1.7,1.8,2.6,2.5
		c0.2-0.3,0.1-0.6,0.2-0.9c0.2-0.4,0.5-0.7,0.9-1.1C9.8,14.4,10.5,13.8,11.2,13.3z"/>
	<path fill="#F9A832" d="M39.1,29.9c1-0.5,2.1,0.2,3.1,0.4c1.4,0.2,2.9-0.6,4.3-0.2c0.2,0.1,0.4,0.2,0.5,0.3
		c0.1,0.1,0.2,0.3,0.2,0.4c0.2,1,0,2-0.7,2.8c-0.3,0.3-0.6,0.7-0.9,1l-3,3.1c-0.1,0.1-0.2,0.2-0.4,0.1c-0.1,0-0.1-0.1-0.1-0.1
		c-1.2-1.3-2.6-2.6-3.6-4.1c-0.4-0.6-0.5-1.2-0.5-1.9C38.1,31.4,38.4,29.9,39.1,29.9z"/>
	<g transform="translate(22.539 2.146)">
		<path fill="#F9A832" d="M-7.8-0.2c0,0.4-0.3,0.6-0.6,0.6C-8.8,0.4-9,0.1-9-0.2c0-0.4,0.3-0.6,0.6-0.6S-7.8-0.6-7.8-0.2L-7.8-0.2z"
			/>
	</g>
	<g transform="translate(10.049)">
		<path fill="#F9A832" d="M-2.1,1c0,0.5-0.4,1-1,1c-0.5,0-1-0.4-1-1c0-0.5,0.4-1,1-1h0C-2.5,0-2.1,0.4-2.1,1z"/>
	</g>
	<g transform="translate(55.106 22.216)">
		<path fill="#F9A832" d="M-19.5-7.6c0,0.7-0.6,1.3-1.3,1.3c-0.7,0-1.3-0.6-1.3-1.3c0-0.7,0.6-1.3,1.3-1.3c0,0,0,0,0,0
			C-20.1-8.9-19.5-8.3-19.5-7.6L-19.5-7.6z"/>
	</g>
	<g transform="translate(16.447 45.038)">
		<circle fill="#F9A832" cx="-5.8" cy="-17.3" r="0.8"/>
	</g>
	<g transform="translate(16.447 52.252)">
		<circle fill="#F9A832" cx="-5.8" cy="-20.2" r="0.8"/>
	</g>
	<g transform="translate(62.82 43.717)">
		<circle fill="#F9A832" cx="-24.4" cy="-16.7" r="0.8"/>
	</g>
	<g transform="translate(69.753 45.061)">
		<circle fill="#F9A832" cx="-27.2" cy="-17.3" r="0.8"/>
	</g>
	<g transform="translate(48.147 15.683)">
		<path fill="#F9A832" d="M-15.3-4.3c0,1.1-0.9,2-2,2s-2-0.9-2-2s0.9-2,2-2l0,0C-16.2-6.3-15.3-5.4-15.3-4.3z"/>
	</g>
	<path fill="#381C1C" d="M7.9,17.2c-0.2,0-0.3-0.1-0.4-0.2l-6-5.7c-1.8-1.6-2-4.4-0.4-6.2C1.2,5,1.4,4.9,1.5,4.8
		c1.7-1.7,4.4-1.9,6.4-0.5l0.1,0.1l0.1-0.1c1.9-1.4,4.6-1.2,6.4,0.4c1.8,1.6,2,4.4,0.4,6.2c-0.1,0.1-0.2,0.3-0.4,0.4l-6,5.7
		C8.3,17.2,8.1,17.2,7.9,17.2z M4.9,4.7c-1,0-1.9,0.4-2.6,1C1,6.8,0.9,8.8,2,10.1c0.1,0.1,0.2,0.2,0.3,0.3l5.6,5.3l5.6-5.3
		C14.8,9.3,15,7.3,13.9,6c-0.1-0.1-0.2-0.2-0.3-0.3c-1.4-1.4-3.7-1.4-5.1,0c-0.2,0.2-0.6,0.2-0.9,0C6.8,5,5.9,4.7,4.9,4.7L4.9,4.7z"
		/>
	<path fill="#381C1C" d="M42.6,38.6c-0.2,0-0.3-0.1-0.4-0.2l-4-3.7c-1.3-1.1-1.4-3.1-0.3-4.3c0.1-0.1,0.2-0.2,0.3-0.3
		c1.2-1.1,3-1.2,4.4-0.4l0.1,0.1l0.1-0.1c1.4-0.8,3.2-0.7,4.4,0.4c1.3,1.1,1.4,3.1,0.3,4.3c-0.1,0.1-0.2,0.2-0.3,0.3l-4,3.7
		C42.9,38.5,42.7,38.6,42.6,38.6z M40.6,30.5c-0.6,0-1.1,0.2-1.6,0.6c-0.8,0.6-0.8,1.8-0.2,2.5c0.1,0.1,0.1,0.1,0.2,0.2l3.6,3.3
		l3.9-3.6h-0.1c0.6-0.8,0.4-1.8-0.3-2.4c-0.9-0.8-2.3-0.8-3.2,0c-0.2,0.2-0.6,0.2-0.9,0C41.7,30.7,41.1,30.5,40.6,30.5L40.6,30.5z"
		/>
	<path fill="#381C1C" d="M30.5,35.5c-0.1,0-0.2,0-0.3-0.1L24,32.3l-6.2,3.1c-0.3,0.2-0.7,0-0.9-0.3c0-0.1-0.1-0.2-0.1-0.3v-3.3
		c0-0.2,0.1-0.4,0.2-0.5l3.8-3.1v-6.8l-7.2,3.6c-0.3,0.2-0.7,0-0.9-0.3c0-0.1-0.1-0.2-0.1-0.3v-3.1c0-0.2,0.1-0.4,0.3-0.5l7.9-5.6
		v-4.5c0-1.6,1.2-4.7,3.1-4.7s3.1,3.1,3.1,4.7v4.6l7.1,5.6c0.2,0.1,0.2,0.3,0.2,0.5v3.1c0,0.2-0.1,0.4-0.3,0.6
		C34,24.9,33.8,25,33.7,25c-0.1,0-0.2,0-0.3-0.1l-6.4-3.5v6.7l3.8,3.1c0.2,0.1,0.2,0.3,0.2,0.5v3.2C31.1,35.2,30.8,35.5,30.5,35.5
		C30.5,35.5,30.5,35.5,30.5,35.5L30.5,35.5z M21.5,19.6c0.4,0,0.6,0.3,0.6,0.6v0v8.1c0,0.2-0.1,0.4-0.2,0.5l-3.8,3.1v1.9l5.6-2.8
		c0.2-0.1,0.4-0.1,0.6,0l5.6,2.8v-1.9L26,28.9c-0.2-0.1-0.2-0.3-0.2-0.5v-8.1c0-0.4,0.3-0.6,0.6-0.6c0,0,0,0,0,0
		c0.1,0,0.2,0,0.3,0.1l6.4,3.5v-1.7L26,15.9c-0.2-0.1-0.2-0.3-0.2-0.5v-4.9c0-1.5-1-3.4-1.8-3.4s-1.8,2-1.8,3.4v4.9
		c0,0.2-0.1,0.4-0.3,0.5l-7.9,5.6v1.8l7.2-3.6C21.3,19.7,21.4,19.6,21.5,19.6L21.5,19.6z"/>
	<path fill="#381C1C" d="M24,44.6c-0.4,0-0.6-0.3-0.6-0.6v-9.6c0-0.4,0.3-0.6,0.6-0.6c0.4,0,0.6,0.3,0.6,0.6v9.6
		C24.6,44.3,24.3,44.6,24,44.6z"/>
	<path fill="#381C1C" d="M20,43c-0.4,0-0.6-0.3-0.6-0.6v-5.5c0-0.4,0.3-0.6,0.6-0.6s0.6,0.3,0.6,0.6l0,0v5.5
		C20.6,42.7,20.3,43,20,43z"/>
	<path fill="#381C1C" d="M28,43c-0.4,0-0.6-0.3-0.6-0.6v-5.5c0-0.4,0.3-0.6,0.7-0.6c0.3,0,0.6,0.3,0.6,0.6v5.5
		C28.6,42.7,28.4,43,28,43z"/>
	<path fill="#381C1C" d="M13.5,35.8c-0.4,0-0.6-0.3-0.6-0.6v-8c0-0.4,0.3-0.6,0.6-0.6c0.4,0,0.6,0.3,0.6,0.6v8
		C14.1,35.5,13.9,35.8,13.5,35.8z"/>
	<path fill="#381C1C" d="M33.6,35.8c-0.4,0-0.6-0.3-0.6-0.6v-8c0-0.4,0.3-0.6,0.6-0.6c0.4,0,0.6,0.3,0.6,0.6v8
		C34.3,35.5,34,35.8,33.6,35.8z"/>
	<path fill="#381C1C" d="M13.5,39.7c-0.4,0-0.6-0.3-0.6-0.6v-0.8c0-0.4,0.3-0.6,0.6-0.6c0.4,0,0.6,0.3,0.6,0.6l0,0v0.8
		C14.1,39.4,13.9,39.7,13.5,39.7z"/>
	<path fill="#381C1C" d="M33.6,39.7c-0.4,0-0.6-0.3-0.6-0.6v-0.8c0-0.4,0.3-0.6,0.6-0.6c0.4,0,0.6,0.3,0.6,0.6l0,0v0.8
		C34.3,39.4,34,39.7,33.6,39.7z"/>
</g>
</svg>