<!-- Generator: Adobe Illustrator 19.2.1, SVG Export Plug-In  -->
<svg version="1.1"
	 xmlns="http://www.w3.org/2000/svg" xmlns:xlink="http://www.w3.org/1999/xlink" xmlns:a="http://ns.adobe.com/AdobeSVGViewerExtensions/3.0/"
	 x="0px" y="0px" width="66.7px" height="60.4px" viewBox="0 0 66.7 60.4" overflow="auto" enable-background="new 0 0 66.7 60.4"
	 xml:space="preserve">
<defs>
</defs>
<g transform="translate(-850 -570)">
	<g transform="translate(850 570)">
		<circle fill="#F9A832" cx="32.3" cy="34.6" r="13.6"/>
		<g transform="translate(0 4.597)">
			<path fill="#381C1C" d="M63.1,55.8H1.4c-0.8,0-1.4-0.6-1.4-1.4V13.5C0,12.7,0.6,12,1.4,12h11.4l4.5-10.9c0.2-0.5,0.7-0.9,1.3-0.9
				h27.3c0.6,0,1.1,0.3,1.3,0.9L51.7,12h11.4c0.8,0,1.4,0.6,1.4,1.4c0,0,0,0,0,0v40.9C64.5,55.2,63.9,55.8,63.1,55.8z M2.8,53h58.8
				V14.9H50.8c-0.6,0-1.1-0.3-1.3-0.9L44.9,3.1H19.6L15.1,14c-0.2,0.5-0.7,0.9-1.3,0.9H2.8V53z"/>
			<path fill="#381C1C" d="M32.3,50.4C21,50.4,11.8,41.2,11.8,30c0-11.3,9.1-20.4,20.4-20.4S52.7,18.7,52.7,30
				C52.7,41.2,43.5,50.4,32.3,50.4z M32.3,12.4c-9.7,0-17.6,7.9-17.6,17.6c0,9.7,7.9,17.6,17.6,17.6c9.7,0,17.6-7.9,17.6-17.6
				C49.8,20.3,42,12.4,32.3,12.4L32.3,12.4z M32.3,44.5c-8,0-14.6-6.5-14.6-14.6s6.5-14.6,14.6-14.6S46.8,21.9,46.8,30l0,0
				C46.8,38,40.3,44.5,32.3,44.5z M32.3,18.3c-6.5,0-11.7,5.2-11.7,11.7c0,6.5,5.2,11.7,11.7,11.7C38.7,41.7,44,36.4,44,30v0
				C43.9,23.5,38.7,18.3,32.3,18.3L32.3,18.3z"/>
		</g>
		<g transform="translate(59.536)">
			<path fill="#F9A832" d="M5,1.1c0,0.6-0.5,1.1-1.1,1.1c-0.6,0-1.1-0.5-1.1-1.1C2.8,0.5,3.3,0,3.9,0c0,0,0,0,0,0C4.5,0,5,0.5,5,1.1
				z"/>
		</g>
		<g transform="translate(8.993)">
			<path fill="#F9A832" d="M2.6,1.1c0,0.6-0.5,1.1-1.1,1.1c-0.6,0-1.1-0.5-1.1-1.1C0.4,0.5,0.9,0,1.5,0C2.1,0,2.6,0.5,2.6,1.1z"/>
		</g>
		<g transform="translate(0.752 9.963)">
			<path fill="#F9A832" d="M3.3,2.1c0,0.9-0.7,1.6-1.6,1.6S0,3,0,2.1c0-0.9,0.7-1.6,1.6-1.6C2.6,0.5,3.3,1.2,3.3,2.1z"/>
		</g>
		<g transform="translate(59.536 9.963)">
			<path fill="#F9A832" d="M7.2,2.7c0,1.2-1,2.2-2.2,2.2s-2.2-1-2.2-2.2c0-1.2,1-2.2,2.2-2.2C6.2,0.5,7.2,1.4,7.2,2.7L7.2,2.7z"/>
		</g>
		<g transform="translate(10.029 5.178)">
			<circle fill="#F9A832" cx="1.8" cy="1.6" r="1.4"/>
		</g>
		<g transform="translate(49.49 0.217)">
			<path fill="#F9A832" d="M9,3.3c0,1.8-1.5,3.3-3.3,3.3c-1.8,0-3.3-1.5-3.3-3.3C2.3,1.5,3.8,0,5.7,0h0C7.5,0,9,1.5,9,3.3
				C9,3.3,9,3.3,9,3.3z"/>
		</g>
	</g>
</g>
</svg>
