<!-- Generator: Adobe Illustrator 19.2.1, SVG Export Plug-In  -->
<svg version="1.1"
	 xmlns="http://www.w3.org/2000/svg" xmlns:xlink="http://www.w3.org/1999/xlink" xmlns:a="http://ns.adobe.com/AdobeSVGViewerExtensions/3.0/"
	 x="0px" y="0px" width="35.5px" height="35.6px" viewBox="0 0 35.5 35.6" overflow="auto" enable-background="new 0 0 35.5 35.6"
	 xml:space="preserve">
<defs>
</defs>
<path fill="#381C1C" d="M12,30c-0.2,0-0.3,0-0.5,0c-5.7-0.3-10-5.1-9.8-10.8c0.1-2.7,1.3-5.3,3.4-7.1c1-0.9,2.1-1.6,3.4-2
	c1.3-0.5,2.6-0.7,4-0.6c0.4,0,0.7,0.4,0.7,0.8c0,0.4-0.4,0.7-0.8,0.7c-1.2-0.1-2.4,0.1-3.5,0.5c-1.1,0.4-2,1-2.9,1.8
	c-1.7,1.6-2.8,3.8-2.9,6.1c-0.2,4.9,3.5,9,8.4,9.3c4.8,0.2,9-3.5,9.3-8.4c0.1-2.4-0.7-4.6-2.3-6.4c-0.4-0.4-0.8-0.8-1.3-1.1
	c-0.3-0.2-0.4-0.7-0.1-1c0.2-0.3,0.7-0.4,1-0.1c0.5,0.4,1,0.8,1.5,1.3c1.8,2,2.8,4.7,2.6,7.4C22,25.7,17.5,30,12,30z"/>
<path fill="#381C1C" d="M23.5,25.9c-0.2,0-0.3,0-0.5,0c-0.4,0-0.7-0.4-0.7-0.8c0-0.4,0.3-0.7,0.8-0.7c1.2,0.1,2.4-0.1,3.5-0.5
	c1.1-0.4,2-1,2.9-1.8c1.7-1.6,2.8-3.8,2.9-6.1c0.1-2.4-0.7-4.6-2.3-6.4C28.4,8,26.2,7,23.9,6.8c-2.4-0.1-4.6,0.7-6.4,2.3
	c-1.7,1.6-2.8,3.8-2.9,6.1s0.7,4.6,2.3,6.4c0.4,0.4,0.8,0.8,1.3,1.1c0.3,0.2,0.4,0.7,0.1,1c-0.2,0.3-0.7,0.4-1,0.1
	c-0.5-0.4-1-0.8-1.5-1.3c-1.8-2-2.8-4.7-2.6-7.4c0.1-2.7,1.3-5.3,3.4-7.1c2-1.8,4.7-2.8,7.4-2.6c2.7,0.1,5.3,1.3,7.1,3.4
	c1.8,2,2.8,4.7,2.6,7.4c-0.1,2.7-1.3,5.3-3.4,7.1c-1,0.9-2.1,1.6-3.4,2C25.8,25.7,24.7,25.9,23.5,25.9z"/>
<path fill="#381C1C" d="M32.3,35.4c-0.3,0-0.5-0.2-0.7-0.4l-4.8-10.4c-0.2-0.4,0-0.8,0.3-1c0.4-0.2,0.8,0,1,0.3L33,34.4
	c0.2,0.4,0,0.8-0.3,1C32.5,35.4,32.4,35.4,32.3,35.4z"/>
<path fill="#381C1C" d="M32.4,35.6c-0.1,0-0.2,0-0.3-0.1l-7.3-3.1c-0.4-0.2-0.5-0.6-0.4-0.9c0.2-0.4,0.6-0.5,0.9-0.4l6.6,2.8L34,27
	c0.1-0.4,0.5-0.6,0.9-0.5c0.4,0.1,0.6,0.5,0.5,0.9l-2.4,7.6c-0.1,0.2-0.2,0.4-0.4,0.4C32.6,35.5,32.5,35.6,32.4,35.6z"/>
<path fill="#381C1C" d="M8,11.8c-0.3,0-0.5-0.2-0.7-0.4L2.5,1c-0.2-0.4,0-0.8,0.3-1c0.4-0.2,0.8,0,1,0.3l4.8,10.4
	c0.2,0.4,0,0.8-0.3,1C8.2,11.8,8.1,11.8,8,11.8z"/>
<path fill="#381C1C" d="M0.7,8.9c-0.3,0-0.5-0.2-0.7-0.4c-0.2-0.4,0-0.8,0.3-1L10.1,3c0.4-0.2,0.8,0,1,0.3c0.2,0.4,0,0.8-0.3,1
	L1,8.8C0.9,8.9,0.8,8.9,0.7,8.9z"/>
</svg>
