<!-- Generator: Adobe Illustrator 19.2.1, SVG Export Plug-In  -->
<svg version="1.1"
	 xmlns="http://www.w3.org/2000/svg" xmlns:xlink="http://www.w3.org/1999/xlink" xmlns:a="http://ns.adobe.com/AdobeSVGViewerExtensions/3.0/"
	 x="0px" y="0px" width="35.2px" height="35.3px" viewBox="0 0 35.2 35.3"
	 overflow="visible" enable-background="new 0 0 35.2 35.3" xml:space="preserve">
<defs>
</defs>
<path fill="#FAA220" d="M19.6,20.8c0.8-1.2,1.3-2.7,1.5-4.2c0.1-0.6,0.1-1.2,0.1-1.9c0-1.9-0.4-3.7-0.8-5.5
	c-0.4-1.6-0.9-3.3-1.6-4.8c-0.2-0.5-0.5-1-0.9-1.4c-0.3-0.3-0.7-0.5-1.1-0.7c-2.2-1.1-4.7-1.6-7.2-1.5c-1,0.1-2.1,0.3-3,0.7
	c-1.3,0.7-2.4,1.8-3.2,3c-0.7,1-1.3,2.1-1.9,3.1C1.3,8,1.1,8.4,1,8.8c-0.2,0.5-0.2,1-0.2,1.6c0,0.9,0,1.7-0.1,2.6
	c0,0.5,0,1.1,0.1,1.6c0.1,0.6,0.4,1.1,0.7,1.7c0.5,1.1,1.1,2.2,1.7,3.1c2.3,3.4,6.2,5.5,10.2,5.7c0.8,0,1.6,0,2.3-0.4
	c0.5-0.3,0.6-0.8,0.9-1.2c0.4-0.5,1.1-0.7,1.6-1.1C18.8,21.9,19.2,21.3,19.6,20.8z"/>
<path fill="#381C1C" d="M21.9,30.5C21.9,30.5,21.9,30.5,21.9,30.5c-0.8-0.1-2.7-0.7-2.7-1.9c0-0.5,0.5-1,1.3-1.8
	c0,0,0.1-0.1,0.1-0.1c-1.7-0.8-2.4-1.8-3-2.5c-0.1-0.1-0.2-0.2-0.3-0.3c-0.2-0.3-0.2-0.8,0.1-1c0.3-0.2,0.8-0.2,1,0.1
	c0.1,0.1,0.2,0.3,0.3,0.4c0.6,0.8,1.2,1.7,3.2,2.4c0.2,0.1,0.4,0.3,0.4,0.5c0.1,0.2,0,0.5-0.1,0.6c-0.2,0.3-0.5,0.6-0.9,1
	c-0.2,0.2-0.6,0.6-0.8,0.9c0.3,0.2,0.8,0.4,1.2,0.5c0.4,0,0.7,0.4,0.7,0.8C22.6,30.2,22.3,30.5,21.9,30.5z"/>
<path fill="#381C1C" d="M19.8,35.3c-0.4,0-0.7-0.3-0.7-0.7c-0.1-0.9-0.2-2.3,1.5-3.3c0.4-0.4,0.4-0.5,0.5-1c0-0.2,0.1-0.4,0.1-0.6
	c0.1-0.3,0.4-0.6,0.7-0.6c0.2,0,0.4,0,0.7,0c0.2,0,0.5,0,0.8,0c-0.2-0.3-0.4-0.7-0.5-0.9c-0.5-0.8-0.7-1.3-0.8-1.6
	c-0.1-0.2,0-0.5,0.1-0.6c0.1-0.2,0.4-0.3,0.6-0.3c2,0.1,4.9-0.4,6.4-1.8c1.8-1.6,3.1-3.9,3.9-6.6c2.2-7-2.3-10.9-5.3-12
	c-3.1-1.2-5.4-1.1-7.6,0.4c-0.3,0.2-0.8,0.1-1-0.2c-0.2-0.3-0.1-0.8,0.2-1C22,2.8,24.9,2.6,28.4,4c3.5,1.3,8.7,5.7,6.1,13.8
	c-0.8,2.8-2.3,5.4-4.3,7.2c-1.7,1.5-4.3,2.1-6.2,2.2c0.1,0.1,0.1,0.2,0.2,0.3c0.7,1.2,0.9,1.7,0.9,2.1c-0.1,1-1.3,1-2.6,0.9
	c0,0,0,0,0,0c0,0,0,0,0,0c-0.2,0.9-0.2,1.1-1,1.8c0,0-0.1,0.1-0.1,0.1c-0.9,0.6-1,1.1-0.9,2C20.5,34.9,20.2,35.2,19.8,35.3
	C19.8,35.3,19.8,35.3,19.8,35.3z"/>
<path fill="#381C1C" d="M16.1,35.1c-0.3,0-0.5-0.1-0.6-0.4c-1.1-2.1-0.6-3.4-0.1-4.5c0.3-0.7,0.5-1.2,0.3-2c-1,0.2-2.1,0.3-2.4-0.6
	c-0.2-0.5,0-1.1,0.3-2.1c0,0,0-0.1,0-0.1c-5.4,0.4-11.1-3.9-13-10C-1.4,8.8,1.4,3,7.6,0.8c3.3-1.2,6.5-1,9,0.7L17.4,2
	c1.8,1.4,3,3.5,3.8,6.1c1.6,5.4,1.3,12.6-4.6,16.3c1,0.6,1.5,1,1.7,1.4c0.2,0.7-0.2,1.4-1.2,2c0.4,1.3,0,2.3-0.4,3.1
	c-0.4,0.9-0.7,1.7,0.1,3.2c0.2,0.4,0.1,0.8-0.3,1C16.3,35.1,16.2,35.1,16.1,35.1z M15.2,25.2C15.1,25.5,15,25.7,15,26
	c-0.1,0.3-0.2,0.7-0.3,1c0.3,0,0.8-0.1,1.2-0.2c0.4-0.2,0.7-0.4,0.9-0.5C16.5,26,15.7,25.5,15.2,25.2C15.2,25.3,15.2,25.3,15.2,25.2
	z M11.7,1.4c-1.1,0-2.4,0.2-3.6,0.7C3.8,3.7-0.1,7.9,2,15.1c1.9,6.4,8,9.8,12.4,8.9c0,0,0.1,0,0.1,0c0.1-0.1,0.1-0.1,0.2-0.2
	c6.2-3,6.6-10.1,5-15.2c-0.7-2.4-1.8-4.2-3.3-5.4l-0.7-0.5C14.6,1.8,13.2,1.4,11.7,1.4z"/>
<path fill="#381C1C" d="M18.2,9.5c-0.3,0-0.6-0.2-0.7-0.5c-0.6-2-1.5-3.4-2.7-4.3l-0.3-0.2c-1.2-0.8-2.5-1-4.2-0.7
	C9.9,3.8,9.6,3.6,9.5,3.2c-0.1-0.4,0.2-0.8,0.6-0.8c2-0.4,3.8-0.1,5.3,0.9l0.4,0.3c1.4,1.1,2.4,2.7,3.2,5c0.1,0.4-0.1,0.8-0.5,0.9
	C18.4,9.4,18.3,9.5,18.2,9.5z"/>
<path fill="#381C1C" d="M32.1,16c0,0-0.1,0-0.1,0c-0.4-0.1-0.7-0.4-0.6-0.8l0-0.3c0.2-1.8-0.2-3.6-1.2-5c-1-1.5-2.5-2.5-4.2-2.8
	c-0.4-0.1-0.6-0.5-0.6-0.9c0.1-0.4,0.5-0.6,0.9-0.6c2.1,0.4,3.9,1.6,5.1,3.4c1.2,1.8,1.7,3.9,1.4,6l0,0.3C32.8,15.8,32.5,16,32.1,16
	z"/>
</svg>