<!-- Generator: Adobe Illustrator 19.2.1, SVG Export Plug-In  -->
<svg version="1.1"
	 xmlns="http://www.w3.org/2000/svg" xmlns:xlink="http://www.w3.org/1999/xlink" xmlns:a="http://ns.adobe.com/AdobeSVGViewerExtensions/3.0/"
	 x="0px" y="0px" width="34.3px" height="34.1px" viewBox="0 0 34.3 34.1"
	 overflow="visible" enable-background="new 0 0 34.3 34.1" xml:space="preserve">
<defs>
</defs>
<path fill="#381C1C" d="M17.2,28c-0.2,0-0.4-0.1-0.5-0.2L12,23.2c-1.5-1.4-2.1-3.5-1.4-5.4c0.6-1.6,2-2.6,3.6-2.6
	c1.1,0,2.2,0.7,3,1.6c0.7-0.9,1.9-1.6,2.9-1.6c1.6,0,3,1,3.6,2.5c0.6,1.5,0.6,3.6-1.3,5.4l-4.7,4.6C17.6,27.9,17.4,28,17.2,28z
	 M14.2,16.6c-1,0-1.8,0.6-2.2,1.7c-0.4,1-0.3,2.6,1,3.8l4.3,4.1l4.2-4.1c1.3-1.3,1.4-2.9,0.9-3.9c-0.4-1-1.3-1.6-2.3-1.6
	c-0.8,0-1.8,0.8-2.3,1.7c-0.1,0.2-0.4,0.4-0.6,0.4c0,0,0,0,0,0c-0.3,0-0.5-0.2-0.6-0.4C16,17.4,15,16.6,14.2,16.6z"/>
<path fill="#381C1C" d="M29.9,34.1H4.4c-2.4,0-4.4-2-4.4-4.4v-23c0-2.4,2-4.4,4.4-4.4h25.5c2.4,0,4.4,2,4.4,4.4v23
	C34.3,32.1,32.3,34.1,29.9,34.1z M4.4,3.6c-1.6,0-3,1.3-3,3v23c0,1.6,1.3,3,3,3h25.5c1.6,0,3-1.3,3-3v-23c0-1.6-1.3-3-3-3H4.4z"/>
<path fill="#381C1C" d="M7.1,6C6.8,6,6.4,5.7,6.4,5.3V0.7C6.4,0.3,6.8,0,7.1,0s0.7,0.3,0.7,0.7v4.6C7.9,5.7,7.5,6,7.1,6z"/>
<path fill="#381C1C" d="M13.8,6c-0.4,0-0.7-0.3-0.7-0.7V0.7c0-0.4,0.3-0.7,0.7-0.7s0.7,0.3,0.7,0.7v4.6C14.5,5.7,14.2,6,13.8,6z"/>
<path fill="#381C1C" d="M20.5,6c-0.4,0-0.7-0.3-0.7-0.7V0.7c0-0.4,0.3-0.7,0.7-0.7s0.7,0.3,0.7,0.7v4.6C21.2,5.7,20.9,6,20.5,6z"/>
<path fill="#381C1C" d="M27.2,6c-0.4,0-0.7-0.3-0.7-0.7V0.7c0-0.4,0.3-0.7,0.7-0.7s0.7,0.3,0.7,0.7v4.6C27.9,5.7,27.6,6,27.2,6z"/>
<rect x="1.2" y="9.2" fill="#381C1C" width="32.4" height="1.4"/>
<path fill="#381C1C" d="M7.1,8C6.4,8,5.7,7.3,5.7,6.5c0-0.8,0.6-1.4,1.4-1.4s1.4,0.6,1.4,1.4C8.6,7.3,7.9,8,7.1,8z M7.1,5.8v0.7
	c0,0,0,0,0,0L7.1,5.8z"/>
<path fill="#381C1C" d="M13.8,8c-0.8,0-1.4-0.6-1.4-1.4c0-0.8,0.6-1.4,1.4-1.4c0.8,0,1.4,0.6,1.4,1.4C15.3,7.3,14.6,8,13.8,8z
	 M13.8,5.8v0.7c0,0,0,0,0,0L13.8,5.8z"/>
<path fill="#381C1C" d="M20.5,8c-0.8,0-1.4-0.6-1.4-1.4c0-0.8,0.6-1.4,1.4-1.4c0.8,0,1.4,0.6,1.4,1.4C21.9,7.3,21.3,8,20.5,8z
	 M20.5,5.8v0.7c0,0,0,0,0,0L20.5,5.8z"/>
<path fill="#381C1C" d="M27.2,8c-0.8,0-1.4-0.6-1.4-1.4c0-0.8,0.6-1.4,1.4-1.4s1.4,0.6,1.4,1.4C28.6,7.3,28,8,27.2,8z M27.2,5.8v0.7
	c0,0,0,0,0,0L27.2,5.8z"/>
</svg>
