<!-- Generator: Adobe Illustrator 19.2.1, SVG Export Plug-In  -->
<svg version="1.1"
	 xmlns="http://www.w3.org/2000/svg" xmlns:xlink="http://www.w3.org/1999/xlink" xmlns:a="http://ns.adobe.com/AdobeSVGViewerExtensions/3.0/"
	 x="0px" y="0px" width="20.4px" height="35.5px" viewBox="0 0 20.4 35.5" enable-background="new 0 0 20.4 35.5"
	 xml:space="preserve">
<defs>
</defs>
<path fill="#381C1C" d="M10.3,32.3c-0.2,0-0.4-0.1-0.5-0.2L5,27.5c-1.5-1.4-2.1-3.5-1.4-5.4c0.6-1.6,2-2.6,3.6-2.6
	c1.1,0,2.2,0.7,3,1.6c0.7-0.9,1.9-1.6,2.9-1.6c1.6,0,3,1,3.6,2.5c0.6,1.5,0.6,3.6-1.3,5.5l-4.7,4.6C10.7,32.2,10.5,32.3,10.3,32.3z
	 M7.2,20.9c-1,0-1.8,0.6-2.2,1.7c-0.4,1-0.3,2.6,1,3.8l4.3,4.1l4.2-4.1c1.3-1.3,1.4-2.9,0.9-3.9c-0.4-1-1.3-1.6-2.3-1.6
	c-0.8,0-1.8,0.8-2.3,1.7c-0.1,0.2-0.4,0.4-0.6,0.4c-0.2,0-0.5-0.1-0.6-0.4C9.1,21.7,8,20.9,7.2,20.9z"/>
<path fill="#381C1C" d="M17.1,35.5H3.3C1.5,35.5,0,34,0,32.1v-10c0-2.2,2-4.2,3.8-5.2c2.3-1.3,3.6-1.9,5-2.5
	c0.8-0.3,1.7-0.7,2.8-1.3c2-1,2.4-2.9,1.9-4.4c-0.5-1.5-1.8-2.3-3.4-2.4c-2-0.1-3.3,0.9-3.5,1.8C6,10.4,4.4,11.2,3,11
	c-1.3-0.2-2.7-1.4-2.6-3.3l0,0C0.4,6.8,0.6,6,1,5.2c2.2-4.1,7.1-6.1,11.9-4.9c3.6,0.9,7.5,3.9,7.5,9.7v22.1
	C20.4,34,18.9,35.5,17.1,35.5z M10,4.9c0.1,0,0.1,0,0.2,0c2.6,0.1,4.2,1.8,4.7,3.4c0.7,2.1,0,4.8-2.6,6.1c-1.2,0.6-2,0.9-2.9,1.3
	c-1.4,0.6-2.6,1.1-4.9,2.4c-1.4,0.8-3.1,2.4-3.1,4v10c0,1,0.9,1.9,1.9,1.9h13.7c1,0,1.9-0.9,1.9-1.9V10.1c0-5-3.3-7.5-6.4-8.3
	C9.1,0.9,4.5,1.8,2.3,5.9C2,6.5,1.8,7.1,1.8,7.7c0,1.1,0.7,1.7,1.4,1.8c0.7,0.1,1.7-0.3,2.1-1.8C5.7,6.1,7.7,4.9,10,4.9z"/>
</svg>
