<!-- Generator: Adobe Illustrator 19.2.1, SVG Export Plug-In  -->
<svg version="1.1"
	 xmlns="http://www.w3.org/2000/svg" xmlns:xlink="http://www.w3.org/1999/xlink" xmlns:a="http://ns.adobe.com/AdobeSVGViewerExtensions/3.0/"
	 x="0px" y="0px" width="36px" height="36.7px" viewBox="0 0 36 36.7" overflow="visible" enable-background="new 0 0 36 36.7"
	 xml:space="preserve">
<defs>
</defs>
<path fill="#381C1C" d="M8,26c-0.7,0-1.3-0.5-1.7-0.9c-0.2-0.2-0.6-0.5-0.7-0.5c-0.1,0-0.5,0.2-0.7,0.4c-0.6,0.5-1.5,1.1-2.6,0.7
	c-0.1,0-0.2-0.1-0.3-0.2c-0.7-0.9-0.3-1.8,0-2.5C2,22.7,2.1,22.3,2,22.1c-0.1-0.2-0.4-0.4-0.6-0.6C0.8,20.9,0,20.3,0,19.1
	c0-0.1,0-0.3,0.1-0.4c0.6-1,1.6-0.9,2.3-0.8c0.3,0,0.7,0.1,0.9,0c0.2-0.1,0.3-0.5,0.4-0.9c0.2-0.7,0.6-1.8,1.7-2.1
	c0.1,0,0.3,0,0.4,0c1.1,0.3,1.3,1.3,1.5,2c0.1,0.3,0.2,0.8,0.3,0.9c0.1,0.1,0.5,0.1,0.8,0.1c0.7,0,1.8,0,2.5,1
	c0.1,0.1,0.1,0.2,0.1,0.4c0.1,1.1-0.8,1.7-1.4,2.1C9.3,21.6,9,21.8,8.9,22c-0.1,0.2,0.1,0.6,0.2,0.9c0.2,0.7,0.5,1.8-0.2,2.7
	c-0.1,0.1-0.2,0.2-0.3,0.3C8.4,26,8.2,26,8,26z M5.5,23.2C5.5,23.2,5.5,23.2,5.5,23.2c0.7,0,1.2,0.5,1.7,0.9
	c0.3,0.3,0.5,0.4,0.7,0.5c0.1-0.3,0-0.7-0.2-1.2c-0.2-0.6-0.4-1.2-0.2-1.8c0.2-0.7,0.8-1,1.3-1.4c0.4-0.3,0.6-0.4,0.7-0.6
	c-0.2-0.2-0.5-0.2-1.1-0.2c-0.6,0-1.2,0-1.7-0.4c-0.5-0.4-0.7-1.1-0.8-1.7c-0.1-0.4-0.2-0.7-0.3-0.9c-0.2,0.2-0.3,0.5-0.5,1
	C4.9,18,4.7,18.6,4.2,19c-0.6,0.4-1.3,0.4-1.8,0.3c-0.5,0-0.7,0-0.9,0c0.1,0.3,0.4,0.6,0.8,0.9c0.5,0.3,1,0.7,1.1,1.4
	c0.2,0.7-0.1,1.3-0.3,1.9C3,24,2.9,24.2,2.9,24.4c0.3,0,0.5-0.2,1-0.5C4.3,23.6,4.8,23.2,5.5,23.2z"/>
<path fill="#381C1C" d="M16.7,36.7c-0.7,0-1.3-0.5-1.7-0.8c-0.2-0.2-0.5-0.4-0.7-0.4c-0.1,0-0.4,0.1-0.6,0.3
	c-0.5,0.3-1.3,0.8-2.3,0.4c-0.1-0.1-0.2-0.1-0.3-0.3c-0.5-0.8-0.2-1.7,0-2.3c0.1-0.3,0.2-0.7,0.2-0.9c0-0.2-0.2-0.3-0.4-0.5
	c-0.4-0.4-1.1-1-1-2.1c0-0.1,0.1-0.3,0.1-0.4c0.6-0.8,1.5-0.8,2.2-0.8c0.3,0,0.6,0,0.8-0.1c0.1-0.1,0.2-0.4,0.3-0.6
	c0.2-0.6,0.6-1.4,1.6-1.7c0.1,0,0.3,0,0.4,0c0.9,0.3,1.2,1.3,1.3,1.9c0.1,0.3,0.2,0.7,0.3,0.8c0.1,0.1,0.4,0.1,0.6,0.1
	c0.6,0.1,1.5,0.1,2,1.1c0.1,0.1,0.1,0.2,0.1,0.4c0,1-0.8,1.5-1.3,1.9c-0.3,0.2-0.6,0.4-0.6,0.6c-0.1,0.2,0,0.4,0.1,0.7
	c0.1,0.6,0.3,1.5-0.4,2.3c-0.1,0.1-0.2,0.2-0.3,0.2C17.1,36.7,16.9,36.7,16.7,36.7z M14.4,34c0,0,0.1,0,0.2,0c0.6,0.1,1,0.4,1.4,0.8
	c0.3,0.2,0.5,0.4,0.6,0.4c0.1-0.2,0-0.5,0-0.9c-0.1-0.5-0.2-1,0-1.6c0.2-0.6,0.7-0.9,1.1-1.2c0.4-0.2,0.6-0.4,0.7-0.6
	c-0.2-0.1-0.4-0.2-0.8-0.2c-0.5,0-1-0.1-1.5-0.5c-0.4-0.4-0.6-1-0.7-1.5c-0.1-0.4-0.2-0.6-0.3-0.8c-0.1,0.1-0.3,0.3-0.4,0.7
	c-0.2,0.4-0.4,1-0.9,1.3c-0.5,0.3-1.1,0.3-1.6,0.3c-0.4,0-0.7,0-0.8,0.1c0,0.2,0.2,0.4,0.5,0.7c0.3,0.3,0.7,0.7,0.9,1.3
	c0.1,0.6-0.1,1.1-0.3,1.6c-0.1,0.4-0.2,0.7-0.2,0.9c0.2,0,0.4-0.1,0.7-0.3C13.4,34.3,13.8,34,14.4,34z"/>
<path fill="#381C1C" d="M18.9,18.7c-0.3,0-0.5-0.2-0.7-0.4c-0.2-0.4,0-0.8,0.4-1l7.9-3.6c0.4-0.2,0.8,0,1,0.4c0.2,0.4,0,0.8-0.4,1
	l-7.9,3.6C19.1,18.7,19,18.7,18.9,18.7z"/>
<path fill="#381C1C" d="M9.2,22.3c-0.4,0-0.7-0.3-0.7-0.7c0-0.4,0.3-0.7,0.6-0.8l6.7-0.6c0.4,0,0.7,0.3,0.8,0.6
	c0,0.4-0.3,0.7-0.6,0.8L9.2,22.3C9.2,22.3,9.2,22.3,9.2,22.3z"/>
<path fill="#381C1C" d="M26.9,31.3c-0.2,0-0.4-0.1-0.6-0.3l-7.4-10.4c-0.2-0.3-0.2-0.8,0.2-1c0.3-0.2,0.8-0.2,1,0.2l7.4,10.4
	c0.2,0.3,0.2,0.8-0.2,1C27.2,31.3,27,31.3,26.9,31.3z"/>
<path fill="#381C1C" d="M16.6,30.5c0,0-0.1,0-0.1,0c-0.4-0.1-0.7-0.4-0.6-0.8l1.3-7.2c0.1-0.4,0.4-0.7,0.8-0.6
	c0.4,0.1,0.7,0.4,0.6,0.8l-1.3,7.2C17.3,30.2,17,30.5,16.6,30.5z"/>
<path fill="#381C1C" d="M16.2,19.2c-0.4,0-0.7-0.3-0.7-0.7l-0.7-9.4c0-0.4,0.3-0.7,0.7-0.8c0.4,0,0.7,0.3,0.8,0.7l0.7,9.4
	C17,18.8,16.7,19.2,16.2,19.2C16.3,19.2,16.3,19.2,16.2,19.2z"/>
<path fill="#381C1C" d="M18.9,18.7c-0.1,0-0.2,0-0.3-0.1c-0.4-0.2-0.5-0.6-0.4-0.9l2.9-6.7c0.2-0.4,0.6-0.5,0.9-0.4
	c0.4,0.2,0.5,0.6,0.4,0.9l-2.9,6.7C19.4,18.6,19.1,18.7,18.9,18.7z"/>
<path fill="#381C1C" d="M24.6,35.9c-0.3,0-0.5-0.1-0.6-0.4l-6.7-12.6c-0.2-0.4-0.1-0.8,0.3-1c0.3-0.2,0.8-0.1,1,0.3l6.7,12.6
	c0.2,0.4,0.1,0.8-0.3,1C24.8,35.9,24.7,35.9,24.6,35.9z"/>
<path fill="#381C1C" d="M27.6,23.5c-0.1,0-0.1,0-0.2,0l-8.1-2.6c-0.4-0.1-0.6-0.5-0.5-0.9c0.1-0.4,0.5-0.6,0.9-0.5l8.1,2.6
	c0.4,0.1,0.6,0.5,0.5,0.9C28.2,23.3,27.9,23.5,27.6,23.5z"/>
<path fill="#381C1C" d="M6.2,31.3c-0.2,0-0.4-0.1-0.5-0.2c-0.3-0.3-0.3-0.7,0-1l9.7-9.6c0.3-0.3,0.7-0.3,1,0c0.3,0.3,0.3,0.7,0,1
	L6.7,31C6.5,31.2,6.3,31.3,6.2,31.3z"/>
<path fill="#381C1C" d="M16.2,19.2c-0.2,0-0.3,0-0.4-0.1L5.2,11c-0.3-0.2-0.4-0.7-0.1-1c0.2-0.3,0.7-0.4,1-0.1l10.6,8.1
	c0.3,0.2,0.4,0.7,0.1,1C16.7,19.1,16.5,19.2,16.2,19.2z"/>
<path fill="#381C1C" d="M31.7,28.4c-1,0-1.5-0.8-1.9-1.5c-0.2-0.3-0.4-0.7-0.6-0.7c-0.1,0-0.5,0.1-0.7,0.2c-0.6,0.3-1.6,0.7-2.6,0
	c-0.1-0.1-0.2-0.2-0.2-0.3c-0.4-1,0.3-1.9,0.7-2.5c0.2-0.3,0.5-0.7,0.5-0.9c0-0.2-0.2-0.4-0.4-0.7c-0.4-0.5-1.1-1.3-0.7-2.5
	c0-0.1,0.1-0.2,0.2-0.3c0.8-0.7,1.8-0.4,2.5-0.1c0.3,0.1,0.7,0.3,0.9,0.2c0.2-0.1,0.4-0.4,0.5-0.7c0.4-0.6,0.9-1.5,2.1-1.5
	c0.2,0,0.3,0,0.4,0.1c0.9,0.6,0.9,1.7,0.8,2.4c0,0.4,0,0.8,0.1,1c0.1,0.1,0.4,0.2,0.7,0.3c0.7,0.2,1.7,0.4,2,1.6c0,0.1,0,0.3,0,0.4
	c-0.3,1.1-1.3,1.4-2,1.6c-0.4,0.1-0.8,0.2-0.9,0.4c-0.1,0.1-0.1,0.5-0.1,0.9c0,0.7,0.1,1.7-0.9,2.5c-0.1,0.1-0.2,0.1-0.4,0.1
	C31.8,28.4,31.7,28.4,31.7,28.4z M29.1,24.8c0.2,0,0.3,0,0.5,0.1c0.6,0.2,1,0.8,1.3,1.3c0.2,0.3,0.4,0.6,0.6,0.7
	c0.1-0.2,0.1-0.5,0.1-1c0-0.6-0.1-1.2,0.3-1.8c0.4-0.6,1-0.8,1.6-0.9c0.5-0.1,0.8-0.3,0.9-0.4c-0.1-0.2-0.4-0.3-0.9-0.4
	c-0.5-0.1-1.2-0.3-1.5-0.9c-0.4-0.5-0.3-1.2-0.3-1.9c0-0.4,0-0.8,0-1c-0.2,0.1-0.4,0.4-0.6,0.8c-0.3,0.5-0.6,1-1.3,1.3
	c-0.6,0.2-1.3,0-1.8-0.2c-0.5-0.2-0.7-0.2-0.9-0.2c0,0.3,0.2,0.5,0.5,0.9c0.3,0.4,0.7,0.9,0.7,1.6c0,0.7-0.4,1.2-0.8,1.7
	c-0.3,0.4-0.5,0.7-0.5,0.9c0.2,0,0.4-0.1,0.9-0.3C28.2,25,28.7,24.8,29.1,24.8z"/>
<path fill="#381C1C" d="M30.4,13.6c-0.7,0-1.3-0.5-1.7-0.8c-0.2-0.2-0.5-0.4-0.7-0.4c-0.1,0-0.4,0.1-0.6,0.3
	c-0.5,0.3-1.3,0.8-2.3,0.4c-0.1-0.1-0.2-0.1-0.3-0.3c-0.5-0.8-0.2-1.7,0-2.3c0.1-0.3,0.2-0.7,0.2-0.9c0-0.2-0.2-0.3-0.4-0.5
	c-0.4-0.4-1.1-1-1-2.1c0-0.1,0.1-0.3,0.1-0.4c0.6-0.8,1.5-0.8,2.2-0.8c0.3,0,0.6,0,0.8-0.1c0.1-0.1,0.2-0.4,0.3-0.6
	c0.2-0.6,0.6-1.4,1.6-1.7c0.1,0,0.3,0,0.4,0c0.9,0.3,1.2,1.3,1.3,1.9c0.1,0.3,0.2,0.7,0.3,0.8c0.1,0.1,0.4,0.1,0.6,0.1
	c0.6,0.1,1.5,0.1,2,1.1c0.1,0.1,0.1,0.2,0.1,0.4c0,1-0.8,1.5-1.3,1.9c-0.3,0.2-0.6,0.4-0.6,0.6c-0.1,0.2,0,0.4,0.1,0.7
	c0.1,0.6,0.3,1.5-0.4,2.3c-0.1,0.1-0.2,0.2-0.3,0.2C30.7,13.6,30.5,13.6,30.4,13.6z M28,10.9c0.1,0,0.1,0,0.2,0
	c0.6,0.1,1,0.4,1.4,0.8c0.3,0.2,0.5,0.4,0.6,0.4c0.1-0.2,0-0.5-0.1-0.9c-0.1-0.5-0.2-1,0-1.6c0.2-0.6,0.7-0.9,1.1-1.2
	c0.4-0.2,0.6-0.4,0.7-0.6c-0.2-0.1-0.4-0.2-0.8-0.2c-0.5,0-1-0.1-1.5-0.5c-0.4-0.4-0.6-1-0.7-1.5c-0.1-0.4-0.2-0.6-0.3-0.8
	c-0.1,0.1-0.3,0.3-0.4,0.7c-0.2,0.4-0.4,1-0.9,1.3c-0.5,0.3-1.1,0.3-1.6,0.3c-0.4,0-0.7,0-0.8,0.1c0,0.2,0.2,0.4,0.5,0.7
	c0.3,0.3,0.7,0.7,0.9,1.3c0.1,0.6-0.1,1.1-0.3,1.6c-0.1,0.4-0.2,0.7-0.2,0.9c0.2,0,0.4-0.1,0.7-0.3C27,11.2,27.5,10.9,28,10.9z"/>
<path fill="#381C1C" d="M18,11.2c-0.7,0-1.3-0.5-1.7-0.9c-0.2-0.2-0.6-0.5-0.7-0.5c-0.1,0-0.5,0.2-0.7,0.4c-0.6,0.5-1.5,1.1-2.6,0.7
	c-0.1,0-0.2-0.1-0.3-0.2c-0.7-0.9-0.3-1.8,0-2.5c0.1-0.3,0.3-0.7,0.2-0.9c-0.1-0.2-0.4-0.4-0.6-0.6c-0.6-0.5-1.4-1.1-1.4-2.3
	c0-0.1,0-0.3,0.1-0.4c0.6-1,1.6-0.9,2.3-0.8c0.3,0,0.7,0.1,0.9,0c0.1-0.1,0.3-0.5,0.4-0.9C14,1.4,14.3,0.4,15.4,0c0.1,0,0.3,0,0.4,0
	c1.1,0.3,1.3,1.3,1.5,2c0.1,0.3,0.2,0.8,0.3,0.9c0.1,0.1,0.5,0.1,0.8,0.1c0.7,0,1.8,0,2.5,1c0.1,0.1,0.1,0.2,0.1,0.4
	c0.1,1.1-0.8,1.7-1.4,2.1C19.4,6.7,19,6.9,19,7.1c-0.1,0.2,0.1,0.6,0.2,0.9c0.2,0.7,0.5,1.8-0.2,2.7c-0.1,0.1-0.2,0.2-0.3,0.3
	C18.4,11.1,18.2,11.2,18,11.2z M15.6,8.3C15.6,8.3,15.6,8.3,15.6,8.3c0.7,0,1.2,0.5,1.7,0.9c0.3,0.3,0.5,0.4,0.7,0.5
	c0.1-0.3,0-0.7-0.2-1.2c-0.2-0.6-0.4-1.2-0.2-1.8c0.2-0.7,0.8-1,1.3-1.4c0.4-0.3,0.6-0.4,0.7-0.6c-0.2-0.2-0.5-0.2-1.1-0.2
	c-0.6,0-1.2,0-1.7-0.4C16.2,3.7,16,3,15.9,2.4c-0.1-0.4-0.2-0.7-0.3-0.9c-0.2,0.2-0.3,0.5-0.5,1c-0.2,0.6-0.4,1.2-0.9,1.6
	c-0.6,0.4-1.3,0.4-1.8,0.3c-0.5,0-0.7,0-0.9,0c0.1,0.3,0.4,0.6,0.8,0.9c0.5,0.3,1,0.7,1.2,1.4c0.2,0.7-0.1,1.3-0.3,1.9
	C13.1,9.1,13,9.4,13,9.6c0.3,0,0.5-0.2,1-0.5C14.4,8.7,14.9,8.3,15.6,8.3z"/>
</svg>
