<!-- Generator: Adobe Illustrator 19.2.1, SVG Export Plug-In  -->
<svg version="1.1"
	 xmlns="http://www.w3.org/2000/svg" xmlns:xlink="http://www.w3.org/1999/xlink" xmlns:a="http://ns.adobe.com/AdobeSVGViewerExtensions/3.0/"
	 x="0px" y="0px" width="36.1px" height="35.5px" viewBox="0 0 36.1 35.5"
	 overflow="visible" enable-background="new 0 0 36.1 35.5" xml:space="preserve">
<defs>
</defs>
<path fill="#381C1C" d="M16.3,35.5c-0.4,0-0.7-0.1-1-0.4c-1-0.7-1.6-2.4-1.5-4c0-0.1,0-0.2,0.1-0.3c1.2-2.5,3-4.2,4.8-5.9
	c2.3-2.1,4.2-3.9,4.5-7.2c-0.3-3.1-3-5.7-5.5-8.3C16.2,8,14.7,6.6,13.7,5c-0.1-0.1-0.1-0.2-0.1-0.3c-0.2-2.1,0.9-3.9,2.1-4.5
	C16.3-0.1,17,0,17.5,0.4c0.5,0.5,0.8,1.6-0.3,3.1c0,0-0.1,0.8,3.5,3.2c3.3,2.2,6.6,5.2,7,10.2l0,1.4c-0.3,5.5-3.4,8-6.6,9.9
	c-4.3,2.5-3.6,3.7-3.4,4.2c0,0,0,0.1,0,0.1c0.5,1.5-0.1,2.5-0.9,2.8C16.7,35.4,16.5,35.5,16.3,35.5z M15.2,31.3
	c0,1.1,0.4,2.3,0.9,2.7c0.1,0.1,0.2,0.1,0.2,0.1c0.1,0,0.2-0.4,0-1c-1.4-2.9,2.7-5.2,4-6c2.7-1.6,5.7-3.7,5.9-8.6l0-1.4
	c-0.3-4.4-3.2-6.9-6.3-9.1c-2.5-1.7-4.9-3.7-3.9-5.2c0.5-0.7,0.5-1.2,0.5-1.2c0,0-0.1-0.1-0.3,0C15.6,1.8,14.9,3,15,4.4
	c1,1.3,2.3,2.6,3.6,4c2.8,2.8,5.6,5.6,6,9.2c0,0,0,0.1,0,0.1c-0.3,3.9-2.6,6.1-4.9,8.2C18,27.5,16.3,29.1,15.2,31.3z"/>
<path fill="#381C1C" d="M5.4,15.2c-0.2,0-0.3-0.1-0.5-0.2c-0.3-0.3-0.4-0.7-0.1-1l8.9-11c0.2-0.3,0.7-0.4,1-0.1
	c0.3,0.3,0.4,0.7,0.1,1L6,14.9C5.8,15.1,5.6,15.2,5.4,15.2z"/>
<path fill="#381C1C" d="M14.6,33.1c-0.2,0-0.4-0.1-0.6-0.3L5.8,22.3c-0.2-0.3-0.2-0.8,0.1-1c0.3-0.2,0.8-0.2,1,0.1l8.2,10.5
	c0.2,0.3,0.2,0.8-0.1,1C14.9,33,14.7,33.1,14.6,33.1z"/>
<path fill="#381C1C" d="M31,21.9c-0.2,0-0.4-0.1-0.6-0.3c-0.2-0.3-0.2-0.8,0.2-1l3.6-2.6l-3.6-2.6c-0.3-0.2-0.4-0.7-0.2-1
	c0.2-0.3,0.7-0.4,1-0.2l4.4,3.1c0.2,0.1,0.3,0.4,0.3,0.6s-0.1,0.5-0.3,0.6l-4.4,3.1C31.2,21.8,31.1,21.9,31,21.9z"/>
<path fill="#381C1C" d="M27,18.8c-0.4,0-0.7-0.3-0.7-0.7c0-0.4,0.3-0.7,0.7-0.7l7.3,0h0c0.4,0,0.7,0.3,0.7,0.7
	c0,0.4-0.3,0.7-0.7,0.7L27,18.8C27,18.8,27,18.8,27,18.8z"/>
<path fill="#381C1C" d="M2.5,18.8c-0.4,0-0.7-0.3-0.7-0.7c0-0.4,0.3-0.7,0.7-0.7l20.5,0c0,0,0,0,0,0c0.4,0,0.7,0.3,0.7,0.7
	c0,0.4-0.3,0.7-0.7,0.7L2.5,18.8C2.5,18.8,2.5,18.8,2.5,18.8z"/>
<path fill="#381C1C" d="M6.5,22.6H0.7c-0.3,0-0.5-0.1-0.6-0.3C0,22,0,21.7,0.1,21.5l1.7-3.2c0.2-0.4,0.6-0.5,1-0.3s0.5,0.6,0.3,1
	l-1.1,2.2H6l1.5-2.8c0.2-0.4,0.6-0.5,1-0.3c0.4,0.2,0.5,0.6,0.3,1l-1.7,3.2C7,22.4,6.7,22.6,6.5,22.6z"/>
<path fill="#381C1C" d="M8.1,18.4c-0.3,0-0.5-0.1-0.6-0.4L6,15.2H1.9L3,17.4c0.2,0.4,0,0.8-0.3,1c-0.4,0.2-0.8,0-1-0.3l-1.7-3.2
	c-0.1-0.2-0.1-0.5,0-0.7c0.1-0.2,0.4-0.3,0.6-0.3h5.7c0.3,0,0.5,0.1,0.6,0.4l1.7,3.2c0.2,0.4,0,0.8-0.3,1
	C8.4,18.4,8.3,18.4,8.1,18.4z"/>
</svg>
