<!-- Generator: Adobe Illustrator 19.2.1, SVG Export Plug-In  -->
<svg version="1.1"
	 xmlns="http://www.w3.org/2000/svg" xmlns:xlink="http://www.w3.org/1999/xlink" xmlns:a="http://ns.adobe.com/AdobeSVGViewerExtensions/3.0/"
	 x="0px" y="0px" width="35.3px" height="35.5px" viewBox="0 0 35.3 35.5"
	 overflow="visible" enable-background="new 0 0 35.3 35.5" xml:space="preserve">
<defs>
</defs>
<path fill="#381C1C" d="M16.6,35.5c-0.9,0-1.7-0.1-2.2-0.4c-1.5-0.4-2.7-0.8-3.8-1.1c-2.7-0.9-4.3-1.4-7.6-1
	c-0.4,0.1-0.8-0.2-0.8-0.6c-0.1-0.4,0.2-0.8,0.6-0.8c3.5-0.5,5.4,0.1,8.2,1c1.1,0.3,2.3,0.7,3.8,1.1c0.1,0,0.1,0,0.2,0.1
	c0.7,0.4,3.8,0.4,6.2-1.1L33.4,25c0.4-0.2,0.4-0.4,0.4-0.6c0-0.2-0.1-0.5-0.4-0.7c-0.6-0.3-1.6,0-2.7,0.8c-0.3,0.2-0.6,0.2-0.9,0
	c-0.3-0.2-0.3-0.5-0.2-0.8c0.2-0.6,0.2-1,0-1.2c-0.3-0.2-1-0.2-1.9,0.5l-0.8,0.5c-0.2,0.2-0.5,0.2-0.7,0c-0.2-0.1-0.4-0.4-0.4-0.6
	c0-0.3-0.1-0.6-0.2-0.6c-0.2-0.1-0.8-0.1-2,0.5L19,25.3c-0.3,0.2-0.8,0.1-1-0.3c-0.2-0.4-0.1-0.8,0.3-1l4.6-2.4
	c1.5-0.8,2.6-1,3.4-0.5c0.2,0.1,0.4,0.3,0.6,0.7c1.3-0.9,2.7-1,3.5-0.3c0.4,0.3,0.6,0.7,0.7,1.2c1.4-0.6,2.4-0.4,2.9-0.1
	c0.7,0.4,1.2,1.1,1.2,1.9c0,0.8-0.4,1.5-1.1,1.8L22,33.9C20.3,35,18.2,35.5,16.6,35.5z"/>
<path fill="#381C1C" d="M17.7,29.7c-2.5,0-4.7-1-7.2-2.3c-0.4-0.2-0.5-0.6-0.3-1c0.2-0.4,0.6-0.5,1-0.3c4.4,2.3,6.9,2.9,11.1,1
	c0.3-0.1,0.7-0.3,0.7-0.7c0-0.2-0.2-0.4-0.4-0.4c-1-0.1-1.8-0.1-2.5-0.1c-2.8-0.1-3.9-0.1-7.4-2.7l-3-2.2c-0.3-0.3-1.6-0.4-2.9,0.1
	L1,23.3c-0.4,0.2-0.8,0-0.9-0.4c-0.1-0.4,0-0.8,0.4-0.9L6,19.7c1.5-0.6,3.4-0.6,4.3,0.1l3,2.2c3.2,2.3,3.9,2.4,6.6,2.4
	c0.7,0,1.5,0,2.6,0.1c0.9,0.1,1.6,0.7,1.8,1.7c0.1,0.8-0.2,1.8-1.6,2.3C20.8,29.3,19.2,29.7,17.7,29.7z"/>
<path fill="#381C1C" d="M17.9,20.9c-0.2,0-0.4-0.1-0.5-0.2l-8.2-7.9C6.7,10.5,5.8,7.1,7,4.1C8,1.6,10.1,0,12.7,0
	c1.9,0,3.9,1.4,5.1,3c1.2-1.6,3.1-3,5.1-3c2.5,0,4.7,1.5,5.7,4c1,2.3,0.9,5.9-2.1,8.8l-8,7.9C18.3,20.8,18.1,20.9,17.9,20.9z
	 M12.7,1.4c-1.9,0-3.6,1.2-4.3,3.2c-0.7,1.9-0.6,4.8,1.9,7.1l7.7,7.4l7.5-7.4c2.5-2.4,2.5-5.3,1.7-7.2c-0.8-1.9-2.5-3.1-4.4-3.1
	c-1.7,0-3.6,1.6-4.4,3.2C18.3,4.9,18,5,17.8,5c-0.3,0-0.5-0.1-0.6-0.4C16.3,3.1,14.3,1.4,12.7,1.4z"/>
</svg>
