<!-- Generator: Adobe Illustrator 19.2.1, SVG Export Plug-In  -->
<svg version="1.1"
	 xmlns="http://www.w3.org/2000/svg" xmlns:xlink="http://www.w3.org/1999/xlink" xmlns:a="http://ns.adobe.com/AdobeSVGViewerExtensions/3.0/"
	 x="0px" y="0px" width="36.6px" height="35.9px" viewBox="0 0 36.6 35.9"
	 overflow="visible" enable-background="new 0 0 36.6 35.9" xml:space="preserve">
<defs>
</defs>
<path fill="#F9A832" d="M5.3,29.8c0.6,0.3,1.3-0.1,1.8-0.6c0.5-0.4,1.1-0.8,1.6-1.3c0.2-0.2,0.4-0.3,0.6-0.3
	c0.5-0.1,0.9,0.5,1.1,0.9c0.5,0.9,1.6,1.7,2.5,1.3c0.6-0.3,0.9-0.9,1.4-1.4c0.3-0.4,0.8-0.7,1.3-0.9c0.1,0,0.2-0.1,0.3,0
	c0.2,0,0.2,0.2,0.3,0.4c0.3,0.8,0.8,1.5,1.6,1.9s1.8,0.4,2.4-0.2c0.4-0.3,0.6-0.8,0.9-1.2c0.3-0.4,0.8-0.8,1.3-0.7
	c0.6,0.1,0.8,0.8,1.2,1.2c0.8,1,2.5,1.2,3.5,0.3c0.5-0.5,0.9-1.2,1.6-1.2c0.7,0,1.2,0.8,1.8,1.2c0.8,0.5,1.7,0.2,2.6-0.1
	c0.4-0.1,0.8-0.3,0.9-0.6c0.1-0.2,0.1-0.4,0.1-0.5c0.1-1.3-0.2-2.8-1.4-3.3c-0.5-0.2-1.1-0.3-1.6-0.3c-4.6-0.2-9.1-0.5-13.7-0.4
	c-3.4,0-6.8,0.2-10.2,0.4c-0.5,0-1,0.1-1.5,0.2c-1,0.4-1.6,1.5-1.7,2.6C3.8,27.9,4.5,29.4,5.3,29.8z"/>
<path fill="#F9A832" d="M11.1,6.2c0.1-0.9,0.6-1.8,1.4-2.4c0.2-0.2,0.5-0.4,0.8-0.4c0.2-0.1,0.4-0.1,0.7-0.1
	c0.5-0.1,0.9-0.1,1.4-0.2c1.1-0.1,2.3-0.3,3.4-0.3c1.9,0,3.8,0.3,5.6,0.7c0.4,0.1,0.9,0.2,1.2,0.4c0.6,0.4,0.9,1.1,1,1.8
	c0.1,0.6,0.2,1.2,0,1.7c-0.1,0.2-0.3,0.5-0.4,0.7c-0.2,0.2-0.4,0.5-0.6,0.6c-0.4,0.2-0.8,0.2-1.2,0.1C24,8.5,23.6,8.3,23.3,8
	c-0.4-0.3-0.7-0.8-1.2-0.8c-0.5,0-0.9,0.3-1.2,0.6c-0.3,0.3-0.6,0.5-0.9,0.8c-0.4,0.3-0.8,0.7-1.3,0.6c-0.4-0.1-0.7-0.5-1.1-0.8
	c-0.2-0.2-0.5-0.2-0.7-0.4c-0.4-0.3-0.6-0.8-1.1-1c-0.1,0-0.1,0-0.2,0c-0.1,0-0.1,0.1-0.1,0.1c-0.2,0.3-0.2,0.6-0.4,0.9
	c-0.3,0.4-0.8,0.6-1.2,0.8c-0.3,0.1-0.6,0.2-0.9,0.4c-0.5,0.2-1.1-0.2-1.4-0.6C11.1,7.9,11,6.9,11.1,6.2z"/>
<path fill="#FAA220" d="M8.3,14.1c0.3-0.2,0.6-0.5,0.9-0.7c0.3-0.1,0.6-0.2,0.9-0.2c6.6-0.5,13.2,0.3,19.9,0.4c0.1,0,0.2,0,0.2,0.1
	c0,0,0.1,0.1,0.1,0.2c0.2,1.1,0.4,2.1,0.5,3.2c0,0.4,0,0.9-0.2,1.3c-0.4,0.5-1.2,0.5-1.8,0.8c-0.4,0.1-0.7,0.4-1.1,0.4
	c-0.6,0-1-0.6-1.3-1.2c-0.3-0.6-0.5-1.2-1.1-1.4c-0.1,0-0.2-0.1-0.3,0c-0.5,0.1-0.5,0.7-0.7,1.2c-0.2,0.4-0.6,0.7-1,1
	c-0.6,0.4-1.3,0.8-1.9,0.5c-0.8-0.3-1-1.5-1.7-1.8c-0.8-0.4-1.6,0.2-2.3,0.7c-0.6,0.5-1.5,1.2-2.3,0.9c-0.8-0.3-1.1-1.4-2-1.8
	c-0.2-0.1-0.4-0.1-0.6-0.1c-1.3,0.1-1.8,2.1-3.1,2.4c-0.6,0.1-1.1-0.2-1.5-0.6c-0.7-0.7-1.4-2-1.1-3c0.1-0.5,0.1-1,0.3-1.5
	C7.2,14.3,7.8,14.3,8.3,14.1z"/>
<path fill="#381C1C" d="M31.3,30.7C31.3,30.7,31.3,30.7,31.3,30.7c-0.5,0-0.9-0.1-1.3-0.4c-0.5-0.3-0.9-0.9-1.2-1.6
	c0-0.1-0.1-0.1-0.1-0.2c0-0.1,0-0.2-0.1-0.2c0,0-0.1,0-0.1,0c0,0-0.1,0-0.1,0c-0.1,0-0.1,0.1-0.1,0.2c0,0.1-0.1,0.1-0.1,0.2
	c-0.5,0.8-1.2,1.4-1.9,1.8c-0.4,0.2-0.9,0.3-1.3,0.3c-0.4,0-0.8-0.1-1.2-0.4c-0.5-0.3-0.9-0.9-1.2-1.6c0-0.1-0.1-0.1-0.1-0.2
	c0-0.1,0-0.2-0.1-0.2c0,0-0.1,0-0.1,0c0,0-0.1,0-0.1,0c-0.1,0-0.1,0.1-0.1,0.2c0,0.1-0.1,0.1-0.1,0.2c-0.4,0.6-1,1.3-1.9,1.8
	c-0.4,0.2-0.9,0.3-1.3,0.3c-0.4,0-0.8-0.1-1.2-0.4c-0.5-0.3-0.9-0.9-1.2-1.6c0-0.1-0.1-0.1-0.1-0.2c0-0.1,0-0.2-0.1-0.2
	c0,0-0.1,0-0.1,0c0,0-0.1,0-0.1,0c-0.1,0-0.1,0.1-0.1,0.2c0,0.1-0.1,0.1-0.1,0.2c-0.5,0.8-1.2,1.4-1.9,1.8c-0.4,0.2-0.8,0.3-1.3,0.3
	c-0.4,0-0.8-0.1-1.2-0.4c-0.5-0.3-0.9-0.9-1.2-1.6c0-0.1-0.1-0.1-0.1-0.2c0-0.1,0-0.2-0.1-0.2c0,0-0.1,0-0.1,0c0,0-0.1,0-0.1,0
	c-0.1,0-0.1,0.1-0.1,0.2c0,0.1-0.1,0.1-0.1,0.2c-0.4,0.6-1,1.3-1.9,1.8c-0.4,0.2-0.8,0.3-1.3,0.3c-0.4,0-0.8-0.1-1.2-0.4
	c-0.5-0.4-1-1-1.4-1.9c-0.2-0.4,0-0.8,0.4-1c0.4-0.2,0.8,0,1,0.4c0.4,0.8,0.7,1.1,0.9,1.3c0.1,0.1,0.3,0.1,0.4,0.1
	c0.2,0,0.4-0.1,0.6-0.2c0.4-0.2,0.9-0.7,1.3-1.2c0.2-0.4,0.4-0.7,0.8-0.9c0.2-0.1,0.5-0.2,0.8-0.2c0.3,0,0.7,0.1,1,0.3
	c0.3,0.3,0.6,0.6,0.7,1c0.2,0.5,0.5,0.8,0.7,1c0.1,0.1,0.3,0.1,0.4,0.1c0.2,0,0.4-0.1,0.6-0.2c0.5-0.2,0.9-0.7,1.3-1.2
	c0.2-0.4,0.4-0.7,0.8-0.9c0.2-0.1,0.5-0.2,0.8-0.2c0.3,0,0.7,0.1,1,0.3c0.3,0.3,0.6,0.6,0.7,1c0.2,0.5,0.5,0.8,0.7,1
	c0.1,0.1,0.3,0.1,0.4,0.1c0.2,0,0.4-0.1,0.6-0.2c0.4-0.2,0.9-0.7,1.3-1.2c0.2-0.4,0.4-0.7,0.8-0.9c0.2-0.1,0.5-0.2,0.8-0.2
	c0.3,0,0.7,0.1,1,0.3c0.3,0.3,0.6,0.6,0.7,1c0.2,0.5,0.5,0.8,0.7,1c0.1,0.1,0.3,0.1,0.4,0.1c0.1,0,0.4-0.1,0.6-0.2
	c0.5-0.2,0.9-0.7,1.3-1.2c0.2-0.4,0.4-0.7,0.8-0.9c0.2-0.1,0.5-0.2,0.8-0.2c0.3,0,0.7,0.1,1,0.3c0.3,0.3,0.6,0.6,0.7,1
	c0.2,0.5,0.5,0.8,0.7,1c0.1,0.1,0.3,0.1,0.4,0.1c0.2,0,0.4-0.1,0.6-0.2c0.5-0.3,1.1-0.8,1.5-1.5c0.2-0.3,0.7-0.4,1-0.2
	c0.3,0.2,0.4,0.7,0.2,1c-0.6,0.9-1.3,1.6-2.1,2C32.1,30.6,31.7,30.7,31.3,30.7z"/>
<path fill="#381C1C" d="M35.8,35.9H2.3c-0.4,0-0.7-0.3-0.7-0.7s0.3-0.7,0.7-0.7h33.4c0.4,0,0.7,0.3,0.7,0.7S36.2,35.9,35.8,35.9z"/>
<path fill="#381C1C" d="M34,35.3c-0.4,0-0.7-0.3-0.7-0.7v-8.1c0-1-0.8-1.8-1.6-1.8H6.5c-0.9,0-1.6,0.8-1.6,1.8v8.1
	c0,0.4-0.3,0.7-0.7,0.7S3.4,35,3.4,34.6v-8.1c0-1.8,1.4-3.3,3.1-3.3h25.1c1.7,0,3.1,1.5,3.1,3.3v8.1C34.7,35,34.4,35.3,34,35.3z"/>
<path fill="#381C1C" d="M27,13.5c-0.4,0-0.7-0.3-0.7-0.7V5.6c0-1-0.8-1.8-1.6-1.8H13.5c-0.9,0-1.6,0.8-1.6,1.8v7.2
	c0,0.4-0.3,0.7-0.7,0.7s-0.7-0.3-0.7-0.7V5.6c0-1.8,1.4-3.3,3.1-3.3h11.1c1.7,0,3.1,1.5,3.1,3.3v7.2C27.7,13.2,27.4,13.5,27,13.5z"
	/>
<path fill="#381C1C" d="M30.9,24.2c-0.4,0-0.7-0.3-0.7-0.7v-7.8c0-1-0.8-1.8-1.6-1.8H9.6c-0.9,0-1.6,0.8-1.6,1.8v7.8
	c0,0.4-0.3,0.7-0.7,0.7s-0.7-0.3-0.7-0.7v-7.8c0-1.8,1.4-3.3,3.1-3.3h18.9c1.7,0,3.1,1.5,3.1,3.3v7.8C31.6,23.9,31.3,24.2,30.9,24.2
	z"/>
<path fill="#381C1C" d="M28.3,20.5C28.2,20.5,28.2,20.5,28.3,20.5c-0.5,0-0.9-0.1-1.3-0.4c-0.5-0.3-0.9-0.9-1.2-1.6
	c0-0.1-0.1-0.1-0.1-0.2c0-0.1-0.1-0.2-0.1-0.2c0,0-0.1,0-0.1,0L25,17.4l0.3,0.6c-0.1,0-0.1,0.1-0.1,0.2c0,0.1-0.1,0.1-0.1,0.2
	c-0.4,0.6-1,1.3-1.9,1.8c-0.4,0.2-0.8,0.3-1.3,0.3c-0.4,0-0.8-0.1-1.2-0.4c-0.5-0.3-0.9-0.9-1.2-1.6c0-0.1-0.1-0.1-0.1-0.2
	c0-0.1-0.1-0.2-0.1-0.2c0,0-0.1,0-0.1,0c0,0-0.1,0-0.1,0c-0.1,0-0.1,0.1-0.1,0.2c0,0.1-0.1,0.1-0.1,0.2c-0.4,0.6-1,1.3-1.9,1.8
	c-0.4,0.2-0.8,0.3-1.3,0.3c-0.4,0-0.8-0.1-1.2-0.4c-0.5-0.3-0.9-0.9-1.2-1.6c0-0.1-0.1-0.1-0.1-0.2c0-0.1,0-0.2-0.1-0.2
	c0,0-0.1,0-0.1,0l-0.5-0.6l0.3,0.6c-0.1,0-0.1,0.1-0.1,0.2c0,0.1-0.1,0.1-0.1,0.2c-0.4,0.6-1,1.3-1.9,1.8c-0.4,0.2-0.9,0.3-1.3,0.3
	c-0.4,0-0.8-0.1-1.2-0.4c-0.5-0.4-1-1-1.4-1.9c-0.2-0.4,0-0.8,0.4-1c0.4-0.2,0.8,0,1,0.4c0.4,0.8,0.7,1.1,0.9,1.3
	C9.1,19,9.2,19,9.3,19c0.1,0,0.4-0.1,0.6-0.2c0.4-0.2,0.9-0.7,1.3-1.2c0.2-0.4,0.4-0.7,0.8-0.9c0.2-0.1,0.5-0.2,0.8-0.2
	c0.3,0,0.7,0.1,1,0.3c0.3,0.2,0.6,0.6,0.7,1c0.2,0.5,0.5,0.8,0.7,1c0.1,0.1,0.3,0.1,0.4,0.1c0.2,0,0.4-0.1,0.6-0.2
	c0.5-0.2,0.9-0.7,1.3-1.2c0.2-0.4,0.4-0.7,0.8-0.9c0.2-0.1,0.5-0.2,0.8-0.2c0.3,0,0.7,0.1,1,0.3c0.3,0.3,0.6,0.6,0.7,1
	c0.2,0.5,0.5,0.8,0.7,1c0.1,0.1,0.3,0.1,0.4,0.1c0.2,0,0.4-0.1,0.6-0.2c0.5-0.2,0.9-0.7,1.3-1.2c0.2-0.4,0.4-0.7,0.8-0.9
	c0.2-0.1,0.5-0.2,0.8-0.2c0.3,0,0.7,0.1,1,0.3c0.3,0.3,0.6,0.6,0.7,1c0.2,0.5,0.5,0.8,0.7,1C28,19,28.1,19,28.2,19
	c0.2,0,0.4-0.1,0.6-0.2c0.5-0.2,1-0.7,1.4-1.3c0.2-0.3,0.7-0.4,1-0.2c0.3,0.2,0.4,0.7,0.2,1c-0.4,0.6-1,1.3-1.9,1.8
	C29.1,20.4,28.6,20.5,28.3,20.5z"/>
<path fill="#381C1C" d="M18.8,10C18.8,10,18.8,10,18.8,10c-0.4,0-0.8-0.1-1.2-0.4c-0.4-0.3-0.8-0.8-1.2-1.5c0-0.1-0.1-0.1-0.1-0.2
	c0-0.1,0-0.1-0.1-0.2h0c0,0-0.1,0-0.1,0C16,7.7,16,7.8,16,7.8C16,7.9,15.9,8,15.9,8c-0.4,0.5-1,1.2-1.8,1.6
	c-0.4,0.2-0.8,0.3-1.2,0.3c-0.4,0-0.8-0.1-1.2-0.4c-0.5-0.4-0.9-0.9-1.3-1.8c-0.2-0.4,0-0.8,0.4-1c0.4-0.2,0.8,0,1,0.4
	c0.3,0.7,0.6,1,0.8,1.2c0.1,0.1,0.2,0.1,0.3,0.1c0.1,0,0.3,0,0.5-0.1c0.4-0.2,0.8-0.6,1.2-1.1c0.2-0.4,0.4-0.7,0.8-0.9
	c0.2-0.1,0.5-0.2,0.7-0.2c0.3,0,0.7,0.1,0.9,0.3c0.3,0.2,0.6,0.6,0.7,1c0.3,0.5,0.5,0.8,0.7,0.9c0.1,0.1,0.2,0.1,0.3,0.1
	c0.2,0,0.3,0,0.5-0.1c0.4-0.2,0.8-0.6,1.2-1.1c0.2-0.4,0.4-0.7,0.8-0.9c0.2-0.1,0.5-0.2,0.7-0.2c0.3,0,0.7,0.1,0.9,0.3
	c0.3,0.2,0.6,0.6,0.7,1c0.3,0.5,0.5,0.8,0.7,0.9c0.1,0.1,0.2,0.1,0.3,0.1c0.1,0,0.3,0,0.5-0.1c0.4-0.2,0.9-0.6,1.2-1.2
	c0.2-0.3,0.7-0.4,1-0.2c0.3,0.2,0.4,0.7,0.2,1c-0.4,0.5-1,1.2-1.8,1.6C25.4,9.9,25,10,24.6,10c-0.4,0-0.8-0.1-1.2-0.4
	c-0.4-0.3-0.8-0.8-1.2-1.5c0-0.1-0.1-0.1-0.1-0.2c0-0.1,0-0.1-0.1-0.2h0c0,0-0.1,0-0.1,0c-0.1,0.1-0.2,0.1-0.2,0.2
	c0,0.1-0.1,0.1-0.1,0.2c-0.4,0.5-1,1.2-1.8,1.6C19.6,9.9,19.2,10,18.8,10z"/>
<circle fill="#F9A832" cx="26.7" cy="0.5" r="0.5"/>
<circle fill="#F9A832" cx="36" cy="33.2" r="0.5"/>
<circle fill="#F9A832" cx="9.3" cy="6" r="0.8"/>
<circle fill="#F9A832" cx="29.5" cy="10.6" r="1.1"/>
<circle fill="#F9A832" cx="1.1" cy="31.8" r="1.1"/>
<circle fill="#F9A832" cx="8.5" cy="10.6" r="0.7"/>
<circle fill="#F9A832" cx="32.4" cy="5.5" r="1.7"/>
</svg>
