<!-- Generator: Adobe Illustrator 19.2.1, SVG Export Plug-In  -->
<svg version="1.1"
	 xmlns="http://www.w3.org/2000/svg" xmlns:xlink="http://www.w3.org/1999/xlink" xmlns:a="http://ns.adobe.com/AdobeSVGViewerExtensions/3.0/"
	 x="0px" y="0px" width="35.8px" height="37px" viewBox="0 0 35.8 37" enable-background="new 0 0 35.8 37" xml:space="preserve">
<defs>
</defs>
<rect x="3.4" y="13.1" fill="#F9A832" width="5.7" height="10.2"/>
<rect x="27.6" y="13.1" fill="#F9A832" width="5.7" height="10.2"/>
<circle fill="#F9A832" cx="35.2" cy="11.3" r="0.5"/>
<circle fill="#F9A832" cx="17.3" cy="0.8" r="0.8"/>
<circle fill="#F9A832" cx="26.1" cy="3.2" r="1.1"/>
<circle fill="#F9A832" cx="7.4" cy="30.5" r="0.7"/>
<circle fill="#F9A832" cx="20.3" cy="30.5" r="0.7"/>
<circle fill="#F9A832" cx="12.4" cy="4.3" r="1.2"/>
<circle fill="#F9A832" cx="0.7" cy="18.9" r="0.7"/>
<g>
	<path fill="#381C1C" d="M4.7,11.8c-0.2,0-0.3-0.1-0.5-0.2L4,11.5c-1-0.8-2.2-1.8-2.1-3.4C2,6.3,3.4,5,4.4,4
		c0.1-0.1,0.2-0.1,0.2-0.2C4.8,3.7,4.9,3.6,5,3.5C5.2,3.2,5.3,3,5.4,2.8c0.2-0.3,0.5-0.8,1-0.7c0.5,0.1,0.6,0.6,0.7,1
		c0,0.1,0.1,0.3,0.1,0.6c0,0.2,0.2,0.4,0.3,0.6c0.3,0.3,0.6,0.6,0.9,0.8C9,5.5,9.6,5.9,10,6.5c0.6,0.9,1.3,2.7-1,5.1
		c-0.3,0.3-0.7,0.3-1,0c-0.3-0.3-0.3-0.7,0-1c1.2-1.2,1.5-2.3,0.8-3.2C8.5,6.9,8.1,6.6,7.7,6.2C7.3,5.9,6.9,5.6,6.5,5.2
		C6.3,5,6.2,4.7,6,4.5C5.9,4.6,5.8,4.7,5.6,4.9C5.6,4.9,5.5,5,5.4,5C4.5,5.9,3.4,7,3.3,8.2C3.3,9,3.9,9.5,4.9,10.4l0.2,0.2
		c0.3,0.3,0.4,0.7,0.1,1C5.1,11.7,4.9,11.8,4.7,11.8z"/>
	<path fill="#381C1C" d="M9,23.7c-0.4,0-0.7-0.3-0.7-0.7v-8.9c0-0.1-0.1-0.1-0.1-0.2l-4,0c0,0-0.1,0.1-0.1,0.1V23
		c0,0.4-0.3,0.7-0.7,0.7S2.7,23.3,2.7,23v-8.9c0-0.9,0.7-1.6,1.5-1.6h4c0.8,0,1.5,0.7,1.5,1.6V23C9.8,23.3,9.4,23.7,9,23.7z"/>
	<path fill="#381C1C" d="M6.3,13.1c-0.1,0-0.1,0-0.2,0c-0.4-0.1-0.6-0.5-0.5-0.9C5.9,11,5.7,9.3,5.4,8.6c-0.2-0.4,0-0.8,0.3-1
		c0.4-0.2,0.8,0,1,0.3c0.6,1.2,0.7,3.2,0.3,4.6C6.9,12.8,6.6,13.1,6.3,13.1z"/>
	<path fill="#381C1C" d="M10.3,24H2.2c-0.4,0-0.7-0.3-0.7-0.7s0.3-0.7,0.7-0.7h8.1c0.4,0,0.7,0.3,0.7,0.7S10.7,24,10.3,24z"/>
	<path fill="#381C1C" d="M28.2,28.7H8.3c-2.2,0-2.9-0.8-2.9-3v-2.2c0-0.4,0.3-0.7,0.7-0.7s0.7,0.3,0.7,0.7v2.2
		c0,1.4,0.2,1.5,1.5,1.5h19.9c1.3,0,1.5-0.1,1.5-1.5v-2.2c0-0.4,0.3-0.7,0.7-0.7s0.7,0.3,0.7,0.7v2.2C31.1,27.9,30.3,28.7,28.2,28.7
		z"/>
	<path fill="#381C1C" d="M16.7,11.8c-0.2,0-0.3-0.1-0.5-0.2l-0.2-0.2c-1-0.8-2.2-1.8-2.1-3.4C14.1,6.3,15.5,5,16.5,4
		c0.1-0.1,0.2-0.1,0.2-0.2c0.1-0.1,0.2-0.2,0.3-0.3c0.2-0.3,0.4-0.5,0.5-0.7c0.2-0.3,0.5-0.8,1-0.7c0.5,0.1,0.6,0.6,0.7,1
		c0,0.1,0.1,0.3,0.1,0.6c0,0.2,0.2,0.4,0.3,0.6c0.3,0.3,0.6,0.6,0.9,0.8c0.5,0.4,1,0.8,1.4,1.4c0.6,0.9,1.3,2.7-1,5.1
		c-0.3,0.3-0.7,0.3-1,0c-0.3-0.3-0.3-0.7,0-1c1.2-1.2,1.5-2.3,0.8-3.2c-0.3-0.4-0.7-0.7-1.1-1.1c-0.4-0.3-0.8-0.6-1.2-1.1
		c-0.2-0.2-0.3-0.4-0.5-0.7c-0.1,0.2-0.3,0.3-0.4,0.4C17.7,4.9,17.6,5,17.5,5c-0.9,0.9-2,1.9-2.1,3.1C15.4,9,16,9.5,17,10.4l0.2,0.2
		c0.3,0.3,0.4,0.7,0.1,1C17.2,11.7,17,11.8,16.7,11.8z"/>
	<path fill="#381C1C" d="M21.1,23.7c-0.4,0-0.7-0.3-0.7-0.7v-8.9c0-0.1-0.1-0.1-0.1-0.2l-4,0c0,0-0.1,0.1-0.1,0.1V23
		c0,0.4-0.3,0.7-0.7,0.7s-0.7-0.3-0.7-0.7v-8.9c0-0.9,0.7-1.6,1.5-1.6h4c0.8,0,1.5,0.7,1.5,1.6V23C21.8,23.3,21.5,23.7,21.1,23.7z"
		/>
	<path fill="#381C1C" d="M18.4,13.1c-0.1,0-0.1,0-0.2,0c-0.4-0.1-0.6-0.5-0.5-0.9c0.3-1.2,0.1-2.8-0.2-3.6c-0.2-0.4,0-0.8,0.3-1
		c0.4-0.2,0.8,0,1,0.3c0.6,1.2,0.7,3.2,0.3,4.6C19,12.8,18.7,13.1,18.4,13.1z"/>
	<path fill="#381C1C" d="M22.4,24h-8.1c-0.4,0-0.7-0.3-0.7-0.7s0.3-0.7,0.7-0.7h8.1c0.4,0,0.7,0.3,0.7,0.7S22.8,24,22.4,24z"/>
	<path fill="#381C1C" d="M28.8,11.8c-0.2,0-0.3-0.1-0.5-0.2l-0.2-0.2c-1-0.8-2.2-1.8-2.1-3.4C26.2,6.3,27.6,5,28.6,4
		c0.1-0.1,0.2-0.1,0.2-0.2c0.1-0.1,0.2-0.2,0.3-0.3c0.2-0.3,0.4-0.5,0.5-0.7c0.2-0.3,0.5-0.8,1-0.7c0.5,0.1,0.6,0.6,0.7,1
		c0,0.1,0.1,0.3,0.1,0.6c0,0.2,0.2,0.4,0.3,0.6c0.3,0.3,0.6,0.6,0.9,0.8c0.5,0.4,1,0.8,1.4,1.4c0.6,0.9,1.3,2.7-1,5.1
		c-0.3,0.3-0.7,0.3-1,0c-0.3-0.3-0.3-0.7,0-1c1.2-1.2,1.5-2.3,0.8-3.2c-0.3-0.4-0.7-0.7-1.1-1.1c-0.4-0.3-0.8-0.6-1.2-1.1
		c-0.2-0.2-0.3-0.4-0.5-0.7c-0.1,0.2-0.3,0.3-0.4,0.4C29.8,4.9,29.7,5,29.6,5c-0.9,0.9-2,1.9-2.1,3.1C27.5,9,28,9.5,29.1,10.4
		l0.2,0.2c0.3,0.3,0.4,0.7,0.1,1C29.3,11.7,29.1,11.8,28.8,11.8z"/>
	<path fill="#381C1C" d="M33.2,23.7c-0.4,0-0.7-0.3-0.7-0.7v-8.9c0-0.1-0.1-0.1-0.1-0.2l-4,0c0,0-0.1,0.1-0.1,0.1V23
		c0,0.4-0.3,0.7-0.7,0.7s-0.7-0.3-0.7-0.7v-8.9c0-0.9,0.7-1.6,1.5-1.6h4c0.8,0,1.5,0.7,1.5,1.6V23C33.9,23.3,33.6,23.7,33.2,23.7z"
		/>
	<path fill="#381C1C" d="M30.5,13.1c-0.1,0-0.1,0-0.2,0c-0.4-0.1-0.6-0.5-0.5-0.9c0.3-1.2,0.1-2.8-0.2-3.6c-0.2-0.4,0-0.8,0.3-1
		c0.4-0.2,0.8,0,1,0.3c0.6,1.2,0.7,3.2,0.3,4.6C31.1,12.8,30.8,13.1,30.5,13.1z"/>
	<path fill="#381C1C" d="M34.5,24h-8.1c-0.4,0-0.7-0.3-0.7-0.7s0.3-0.7,0.7-0.7h8.1c0.4,0,0.7,0.3,0.7,0.7S34.9,24,34.5,24z"/>
	<path fill="#381C1C" d="M18.4,37c-0.4,0-0.7-0.3-0.7-0.7l0-13c0-0.4,0.3-0.7,0.7-0.7h0c0.4,0,0.7,0.3,0.7,0.7l0,13
		C19.1,36.7,18.8,37,18.4,37L18.4,37z"/>
	<path fill="#381C1C" d="M11.8,37c-0.4,0-0.7-0.3-0.7-0.7c0-0.4,0.3-0.7,0.7-0.7l13.2,0h0c0.4,0,0.7,0.3,0.7,0.7
		c0,0.4-0.3,0.7-0.7,0.7L11.8,37C11.8,37,11.8,37,11.8,37z"/>
</g>
</svg>