<!-- Generator: Adobe Illustrator 19.2.1, SVG Export Plug-In  -->
<svg version="1.1"
	 xmlns="http://www.w3.org/2000/svg" xmlns:xlink="http://www.w3.org/1999/xlink" xmlns:a="http://ns.adobe.com/AdobeSVGViewerExtensions/3.0/"
	 x="0px" y="0px" width="31.8px" height="36.6px" viewBox="0 0 31.8 36.6"
	 overflow="visible" enable-background="new 0 0 31.8 36.6" xml:space="preserve">
<defs>
</defs>
<path fill="#F9A832" d="M25.4,28.7c-0.1-0.5-0.2-1-0.3-1.4c-0.2-1.4-0.5-2.8-0.7-4.2c-0.1-0.5-0.2-1.1-0.1-1.6
	c0-0.4,0.1-0.8,0.3-1.3c0.1-0.5,0.3-0.9,0.5-1.4c0.2-0.4,0.4-0.7,0.5-1.1c0.3-0.9,0.1-1.9,0.2-2.8c0.1-2,1.2-3.8,1.9-5.6
	c0.5,2.3,0.7,4.7,0.9,7c0,0.3,0.1,0.7,0.1,1c0.3,3.8,0.7,7.6,1,11.4c0,0.2,0,0.4,0,0.6c-0.1,0.5-0.7,0.7-1.2,0.9
	c-0.6,0.1-1.6,0.3-2.1,0C25.8,30,25.6,29.2,25.4,28.7z"/>
<path fill="#F9A832" d="M4.7,29.8c-0.3-0.1-0.6-0.2-0.8-0.4c-0.1-0.1-0.2-0.3-0.2-0.5c-0.7-2.6-0.8-5.4-0.1-8c0.4-1.4,1.1-2.8,1-4.3
	c-0.1-1.4-0.8-2.7-0.4-4c0.1-0.3,0.2-0.5,0.4-0.8c0.3-0.6,0.5-1.3,0.5-1.9c1.2,1.7,2.1,3.6,2.6,5.6c0.6,2.3,0.6,4.6,0.6,6.9
	c0,0.7,0,1.4,0,2c-0.1,0.7-0.2,1.4-0.4,2.1c-0.3,1.1-0.4,2.3-0.8,3.4C6.8,30.8,5.5,30.1,4.7,29.8z"/>
<circle fill="#F9A832" cx="23.2" cy="2.5" r="0.5"/>
<circle fill="#F9A832" cx="7.1" cy="2.1" r="0.8"/>
<circle fill="#F9A832" cx="30.7" cy="8.1" r="1.1"/>
<circle fill="#F9A832" cx="2.3" cy="6.1" r="0.7"/>
<circle fill="#F9A832" cx="0.7" cy="21.5" r="0.7"/>
<circle fill="#F9A832" cx="28.9" cy="33.4" r="0.7"/>
<circle fill="#F9A832" cx="27.6" cy="1.7" r="1.7"/>
<g>
	<path fill="#381C1C" d="M16.4,21.5c-0.4,0-0.7,0.3-0.7,0.7s0.3,0.7,0.7,0.7s0.7-0.3,0.7-0.7S16.8,21.5,16.4,21.5z"/>
	<path fill="#381C1C" d="M13.7,25.5h-2.7c-0.4,0-0.7,0.3-0.7,0.7c0,0.4,0.3,0.7,0.7,0.7h2.7c0.4,0,0.7-0.3,0.7-0.7
		C14.4,25.8,14.1,25.5,13.7,25.5z"/>
	<path fill="#381C1C" d="M30.2,28.7L28.4,6.4c0-0.1-0.1-0.3-0.2-0.4c-0.4-0.7-3.4-0.8-8.9-3.5c-0.2-0.1-0.3-0.1-0.3-0.1h0h-5.3h0
		c-0.1,0-0.2,0-0.3,0.1C8,5.3,5,5.3,4.6,6.1C4.5,6.2,4.4,6.3,4.4,6.4L2.6,28.7c0,0.6,0.1,1.1,0.5,1.5s0.9,0.6,1.5,0.6H6
		c-0.4,1.5-0.4,1.7-0.2,2c0.1,0.2,6.4,3.7,6.6,3.7c0.3,0,0.4,0.1,4.1-3c3.6,3.1,3.7,3,4.1,3c0.2,0,6.5-3.5,6.6-3.7
		c0.1-0.3,0.1-0.5-0.2-2h1.5c0.6,0,1.1-0.2,1.5-0.6C30.1,29.8,30.3,29.2,30.2,28.7z M19.6,4.2c0.9,0.4,1.8,0.8,2.7,1.2l-2.5,4.2
		c-0.1,0.2-0.1,0.4,0,0.6l1.1,2.3L17.5,17L19.6,4.2z M16.4,15.4l-1.2-7.6h2.5L16.4,15.4z M18.3,3.8l-0.4,2.7H15l-0.4-2.7H18.3z
		 M13.2,4.2L15.3,17l-3.5-4.6l1.1-2.3c0.1-0.2,0.1-0.4,0-0.6l-2.5-4.2C11.4,5,12.3,4.6,13.2,4.2z M4.5,29.5c-0.2,0-0.4-0.1-0.5-0.2
		c-0.1-0.1-0.2-0.3-0.2-0.5l1.5-17.8c0.8,3.9,2.1,9.7,2.2,10.6c0.1,1.1-0.2,2.6-0.4,4c-0.3,1.6-0.2,1.5-0.8,4H4.5z M20.5,35.2
		c-0.5-0.4-1.8-1.4-3.4-2.8v-7.5c0-0.4-0.3-0.7-0.7-0.7s-0.7,0.3-0.7,0.7v7.5c-1.6,1.4-2.9,2.4-3.4,2.8c-1-0.5-4.3-2.3-5.2-2.9
		c0.2-1.1,1-3.9,1.2-5.3c0.1-0.4,0.1-0.8,0.2-1.2c0.2-1.4,0.5-3.1,0.4-4.3c-0.1-1.4-2.6-12.1-3-14.6c1.1-0.3,1.8-0.5,3.3-1l2.4,4.1
		l-1.2,2.3c-0.1,0.2-0.1,0.5,0.1,0.7l5.3,7.1c0.1,0.2,0.3,0.3,0.5,0.3c0.2,0,0.4-0.1,0.6-0.3l5.3-7.1c0.2-0.2,0.2-0.5,0.1-0.7
		l-1.2-2.3l2.4-4.1c1.5,0.5,2.3,0.7,3.3,1c-0.4,2.5-2.9,13.3-3,14.6c-0.1,1.2,0.2,2.9,0.4,4.3c0.3,1.8,0.2,1.5,0.9,4.5l0,0.1
		c0.1,0.6,0.4,1.5,0.4,1.9C24.8,32.9,21.5,34.7,20.5,35.2z M28.7,29.3c-0.1,0.1-0.3,0.2-0.5,0.2h-1.8c-0.6-2.5-0.5-2.4-0.8-4
		c-0.2-1.4-0.5-2.9-0.4-4c0.1-0.9,1.4-6.7,2.2-10.6l1.5,17.8C28.9,29,28.9,29.2,28.7,29.3z"/>
	<path fill="#381C1C" d="M21.7,25.5h-2.7c-0.4,0-0.7,0.3-0.7,0.7c0,0.4,0.3,0.7,0.7,0.7h2.7c0.4,0,0.7-0.3,0.7-0.7
		C22.4,25.8,22.1,25.5,21.7,25.5z"/>
</g>
</svg>
