<!-- Generator: Adobe Illustrator 19.2.1, SVG Export Plug-In  -->
<svg version="1.1"
	 xmlns="http://www.w3.org/2000/svg" xmlns:xlink="http://www.w3.org/1999/xlink" xmlns:a="http://ns.adobe.com/AdobeSVGViewerExtensions/3.0/"
	 x="0px" y="0px" width="35.2px" height="30.5px" viewBox="0 0 35.2 30.5"
	 overflow="visible" enable-background="new 0 0 35.2 30.5" xml:space="preserve">
<defs>
</defs>
<path fill="#381C1C" d="M23.7,30.5c-0.2,0-0.4-0.1-0.6-0.3l-6.4-7.9c-2-2.3-2.4-5.4-1.1-8c1.2-2.2,3.3-3.3,5.5-3.1
	c1.7,0.2,3.3,1.6,4.2,3.1c1.2-1.3,3.1-2.2,4.8-2c2.3,0.3,4,1.9,4.7,4.2c0.6,2.2,0.2,5.3-2.8,7.6l-8,6.1C24,30.5,23.9,30.5,23.7,30.5
	z M20.6,12.7c-1.5,0-2.8,0.9-3.6,2.3c-0.9,1.6-1.1,4.1,0.9,6.4l6,7.3l7.4-5.7c2.4-1.8,2.8-4.4,2.3-6.1c-0.5-1.7-1.8-3-3.5-3.2
	c-1.5-0.2-3.3,1.1-4.2,2.3c-0.1,0.2-0.4,0.4-0.7,0.3c-0.3,0-0.5-0.2-0.6-0.5c-0.5-1.4-2.1-3.1-3.5-3.3l0,0
	C20.9,12.7,20.8,12.7,20.6,12.7z"/>
<path fill="#381C1C" d="M16.7,27.3c-0.2,0-0.3,0-0.4-0.1L4.5,18.3c-3.5-2.5-5.2-6.6-4.2-10.6c0.8-3.3,3.3-5.7,6.5-6
	c2.5-0.3,5.3,1.3,7,3.2c1.2-2.3,3.5-4.5,6-4.8c3.1-0.4,6.1,1.2,7.8,4.1c1.6,2.8,2.1,7.2-1.2,11.4c-0.2,0.3-0.7,0.4-1,0.1
	c-0.3-0.2-0.4-0.7-0.1-1c2.8-3.6,2.4-7.4,1.1-9.8C25,2.5,22.5,1.2,20,1.5c-2.2,0.3-4.6,2.8-5.3,4.9c-0.1,0.3-0.3,0.4-0.6,0.5
	c-0.3,0-0.5-0.1-0.7-0.3c-1.3-1.9-4.2-3.8-6.5-3.5C4.4,3.4,2.4,5.3,1.7,8c-0.7,2.7-0.1,6.5,3.6,9.1l11.3,8.5l1.6-2
	c0.2-0.3,0.7-0.4,1-0.1c0.3,0.2,0.4,0.7,0.1,1l-2,2.6C17.1,27.2,16.9,27.3,16.7,27.3z"/>
</svg>