<!-- Generator: Adobe Illustrator 19.2.1, SVG Export Plug-In  -->
<svg version="1.1"
	 xmlns="http://www.w3.org/2000/svg" xmlns:xlink="http://www.w3.org/1999/xlink" xmlns:a="http://ns.adobe.com/AdobeSVGViewerExtensions/3.0/"
	 x="0px" y="0px" width="53.4px" height="66px" viewBox="0 0 53.4 66" enable-background="new 0 0 53.4 66" xml:space="preserve">
<defs>
</defs>
<g transform="translate(0 0)">
	<g transform="translate(0 3.17)">
		<circle fill="#F9A832" cx="52.3" cy="25.4" r="1.1"/>
		<circle fill="#F9A832" cx="1.1" cy="6.5" r="1.1"/>
		<path fill="#F9A832" d="M1.2,43.7c0-1.5-0.1-2.9,0-4.4c0.1-1.7,0.4-3.4,0.5-5.1C2.4,27,1.5,19.8,1.5,12.5C1.4,12,1.5,11.4,1.9,11
			c0.4-0.3,0.9-0.4,1.3-0.4c7.5-0.2,15-0.2,22.5,0c0.9,0,2.4-0.2,3,0.4c0.3,0.4,0.6,0.8,0.7,1.3c0.4,1.1,0,2.5,0,3.7
			c0.2,3.1,0.2,6.2,0.2,9.3l0,36.9c-3,0.4-6,0.4-9.1,0.2L6.1,62c-1.2,0.1-2.4,0-3.6-0.1c-1.3-0.3-0.9-1.1-1-2.4
			c-0.1-2.4-0.1-4.8-0.2-7.2L1.2,43.7z"/>
		<g transform="translate(0.591)">
			<path fill="#381C1C" d="M1.2,62.8c-0.7,0-1.2-0.6-1.2-1.2V10.9c0-0.7,0.6-1.2,1.2-1.2H5V5.2C5,4.6,5.5,4,6.2,4H14V1.3
				c0-0.7,0.6-1.2,1.2-1.2c0.7,0,1.2,0.5,1.2,1.2V4h8.1c0.7,0,1.2,0.5,1.2,1.2v4.4h3.7c0.7,0,1.2,0.5,1.2,1.2v5.6h2.2v-4.4
				c0-0.7,0.6-1.2,1.2-1.2h3.3V9.1c0-0.7,0.6-1.2,1.2-1.2c0.7,0,1.2,0.6,1.2,1.2v1.8h3.2c0.7,0,1.2,0.5,1.2,1.2v4.4h1.9
				c0.7,0,1.2,0.6,1.2,1.2v43.9c0,0.7-0.6,1.2-1.2,1.2L1.2,62.8z M2.5,60.4h6v-10c0-0.7,0.6-1.2,1.2-1.2H21c0.7,0,1.2,0.6,1.2,1.2
				v10h6V12.1H2.5L2.5,60.4z M30.7,60.4H45V19H30.7V60.4z M16.4,60.4h3.3v-8.8h-3.3V60.4z M10.9,60.4h3v-8.8h-3V60.4z M35.3,16.5
				h6.6v-3.1h-6.6L35.3,16.5z M7.4,9.7h15.9V6.5H7.4V9.7z"/>
			<path fill="#381C1C" d="M7,26.7c-0.7,0-1.2-0.6-1.2-1.2c0-0.7,0.5-1.2,1.2-1.2h16.7c0.7,0,1.2,0.5,1.2,1.2c0,0.7-0.6,1.2-1.2,1.2
				L7,26.7z"/>
			<path fill="#381C1C" d="M7,34.4c-0.7,0-1.2-0.6-1.2-1.2c0-0.7,0.5-1.2,1.2-1.2h16.7c0.7,0,1.2,0.5,1.2,1.2c0,0.7-0.6,1.2-1.2,1.2
				H7z"/>
			<path fill="#381C1C" d="M7,42.1c-0.7,0-1.2-0.6-1.2-1.2c0-0.7,0.5-1.2,1.2-1.2h16.7c0.7,0,1.2,0.5,1.2,1.2c0,0.7-0.6,1.2-1.2,1.2
				H7z"/>
			<path fill="#381C1C" d="M7,19c-0.7,0-1.2-0.5-1.2-1.2c0-0.7,0.5-1.2,1.2-1.2h16.7c0.7,0,1.2,0.6,1.2,1.2c0,0.7-0.6,1.2-1.2,1.2H7
				z"/>
			<path fill="#381C1C" d="M34.1,41.9c-0.7,0-1.2-0.5-1.2-1.2c0-0.7,0.5-1.2,1.2-1.2h7.2c0.7,0,1.2,0.6,1.2,1.2
				c0,0.7-0.6,1.2-1.2,1.2H34.1z"/>
			<path fill="#381C1C" d="M34.1,48.3c-0.7,0-1.2-0.6-1.2-1.2c0-0.7,0.5-1.2,1.2-1.2h7.2c0.7,0,1.2,0.5,1.2,1.2
				c0,0.7-0.6,1.2-1.2,1.2H34.1z"/>
			<path fill="#381C1C" d="M34.1,55.1c-0.7,0-1.2-0.5-1.2-1.2c0-0.7,0.5-1.2,1.2-1.2h7.2c0.7,0,1.2,0.5,1.2,1.2
				c0,0.7-0.6,1.2-1.2,1.2H34.1z"/>
			<path fill="#381C1C" d="M34.1,35c-0.7,0-1.2-0.6-1.2-1.2c0-0.7,0.5-1.2,1.2-1.2h7.2c0.7,0,1.2,0.5,1.2,1.2c0,0.7-0.6,1.2-1.2,1.2
				H34.1z"/>
			<path fill="#381C1C" d="M34.1,28.3c-0.7,0-1.2-0.6-1.2-1.2c0-0.7,0.5-1.2,1.2-1.2h7.2c0.7,0,1.2,0.6,1.2,1.2
				c0,0.7-0.6,1.2-1.2,1.2H34.1z"/>
		</g>
	</g>
	<circle fill="#F9A832" cx="22.4" cy="1.4" r="1.4"/>
	<circle fill="#F9A832" cx="35.5" cy="3.3" r="1"/>
</g>
</svg>
