<!-- Generator: Adobe Illustrator 19.2.1, SVG Export Plug-In  -->
<svg version="1.1"
	 xmlns="http://www.w3.org/2000/svg" xmlns:xlink="http://www.w3.org/1999/xlink" xmlns:a="http://ns.adobe.com/AdobeSVGViewerExtensions/3.0/"
	 x="0px" y="0px" width="66.1px" height="66.9px" viewBox="0 0 66.1 66.9" overflow="scroll" enable-background="new 0 0 66.1 66.9"
	 xml:space="preserve">
<defs>
</defs>
<g transform="translate(0)">
	<g transform="translate(20.702 1.386)">
		<path fill="#381C1C" d="M16.5,1.9c0,0.5-0.4,0.9-0.9,0.9c-0.5,0-0.9-0.4-0.9-0.9C14.6,1.4,15,1,15.5,1c0,0,0,0,0,0
			C16,1,16.5,1.4,16.5,1.9L16.5,1.9z"/>
	</g>
	<g transform="translate(11.256 5.565)">
		<path fill="#381C1C" d="M9.8,4.9c0,0.5-0.4,0.9-0.9,0.9c-0.5,0-0.9-0.4-0.9-0.9c0-0.5,0.4-0.9,0.9-0.9h0C9.4,3.9,9.8,4.3,9.8,4.9
			C9.8,4.8,9.8,4.9,9.8,4.9z"/>
	</g>
	<g transform="translate(0 10.29)">
		<path fill="#381C1C" d="M2.8,8.6c0,0.8-0.6,1.4-1.4,1.4S0,9.4,0,8.6c0-0.8,0.6-1.4,1.4-1.4C2.2,7.2,2.8,7.9,2.8,8.6z"/>
	</g>
	<g transform="translate(31.925 6.114)">
		<path fill="#381C1C" d="M26.3,6.2c0,1-0.8,1.9-1.9,1.9c-1,0-1.9-0.8-1.9-1.9s0.8-1.9,1.9-1.9C25.4,4.3,26.3,5.1,26.3,6.2L26.3,6.2
			z"/>
	</g>
	<g transform="translate(2.505 6.114)">
		<circle fill="#381C1C" cx="2.9" cy="5.5" r="1.2"/>
	</g>
	<g transform="translate(25.464)">
		<path fill="#381C1C" d="M23.7,2.9c0,1.6-1.3,2.9-2.9,2.9c-1.6,0-2.9-1.3-2.9-2.9c0-1.6,1.3-2.9,2.9-2.9C22.4,0,23.7,1.3,23.7,2.9
			C23.7,2.9,23.7,2.9,23.7,2.9z"/>
	</g>
	<g transform="translate(35.426 17.845)">
		<path fill="#381C1C" d="M30.7,15.4c0,1.6-1.3,2.9-2.9,2.9c-1.6,0-2.9-1.3-2.9-2.9c0-1.6,1.3-2.9,2.9-2.9c0,0,0,0,0,0
			C29.4,12.6,30.7,13.9,30.7,15.4z"/>
	</g>
	<path fill="#F9A832" d="M11.1,36.1c0.6-3.3,1.2-6.8-0.3-9.8c-0.9-1.9-2.6-3.4-3.4-5.4c-0.5-1.1-0.7-2.4-0.5-3.6
		c0-0.5,0.2-0.9,0.4-1.4c0.5-0.7,1.4-1.1,2.2-1c0.9,0.1,1.6,0.5,2.2,1.2c0.6,0.6,1.1,1.4,1.9,1.6c0.2-0.4-0.1-0.9-0.1-1.3
		c0-0.8,0.8-1.3,1.5-1.5c1.4-0.4,2.9,0,4,0.9c0.9,0.7,1.4,1.7,2.3,2.3c1,0.6,2.1,1,3.3,1.1c2.1,0.5,4.1,1.1,6.1,2
		c0.8,0.3,1.6,0.8,2.1,1.5c0.4,0.7,0.6,1.5,0.6,2.4c0.2,1.3,0.1,2.5,0,3.8c-0.2,1.3-0.8,2.4-1.8,3.3c-0.7,0.5-1.4,0.9-2.2,1.1
		c-2.2,0.8-4.4,1.4-6.7,1.8c-0.2,0-0.4,0.1-0.5,0.2c-0.2,0.3,0,0.6,0.2,0.9c1.1,2,0.7,4.6-1.1,6.1c-1.5,0.9-3.2,1.4-4.9,1.3
		c-0.8,0.1-1.6-0.1-2.4-0.4c-0.5-0.4-0.9-0.8-1.2-1.3c-0.8-0.9-1.5-1.9-2-3C10.3,37.9,10.9,37,11.1,36.1z"/>
	<path fill="#F9A832" d="M30.5,49.7c2.1,1.1,4.7,0.8,7.1,0.9c2.5,0.1,5.1,0.5,7.5,1.3c0.4,0.2,0.8,0.2,1.2,0.1
		c0.4-0.1,0.7-0.4,0.9-0.7c1-1.6,2.2-3,3.5-4.2c0.5-0.3,0.9-0.6,1.3-1c0.3-0.5,0.5-1.1,0.5-1.7c0.1-1.2-0.1-2.5-0.6-3.6
		c-0.5-1.1-1.2-2.2-2-3.2l-4.1-5.6c-0.3-0.5-0.7-0.9-1.1-1.2c-1-0.5-2.2-0.7-3.3-0.3c-1.5,0.3-2.9,1-4.1,2c-0.3,0.3-0.6,0.6-0.9,0.8
		l-2.6,2.6c-1.1,1.1-2.2,2.2-3.3,3.4c-1.5,1.7-3.4,3.9-3.7,6.2C26.7,47.3,29,48.9,30.5,49.7z"/>
	<g transform="translate(0.515 4.312)">
		<path fill="#381C1C" d="M18.3,62.6c-2,0-4.4-1.8-6.9-3.7L11,58.7c-2.9-2.1-5.8-4.4-5.8-6.9c0.1-1.4,1-2.7,2.3-3.4
			c2.3-1.8,4.6-3.7,6.7-5.7c3.2-2.9,3.7-3.3,4.3-3.4c0.7-0.1,1.3,0.3,1.5,0.9c0.1,0.6-0.2,1.2-0.8,1.4c-0.4,0.3-2,1.7-3.3,2.9
			c-2.2,2.1-4.5,4.1-7,5.9c-0.5,0.3-1.1,0.9-1.2,1.4c0,1.3,2.7,3.4,4.8,4.9l0.3,0.2c2,1.5,4.6,3.5,5.7,3.1c0.3-0.1,0.5-0.5,0.6-0.8
			c1.6-3.5,3.4-6.9,5.5-10.2c0.3-0.6,1.1-0.8,1.7-0.4c0.6,0.3,0.8,1.1,0.4,1.7c-2,3.1-3.7,6.4-5.3,9.7c-0.3,1.1-1.1,2-2.2,2.4
			C18.9,62.5,18.6,62.6,18.3,62.6z"/>
		<path fill="#381C1C" d="M21.6,42.3c-1.2,0-2.4-0.3-3.4-0.9c-0.6-0.3-0.8-1.1-0.5-1.7c0.3-0.6,1.1-0.8,1.7-0.5
			c1.7,0.9,3.8,0.7,5.4-0.4c4.1-2.5,8.6-10.5,8.6-25.4c0-0.7,0.5-1.2,1.2-1.2c0.7,0,1.2,0.5,1.2,1.2c0,13.5-3.6,23.8-9.8,27.5
			C24.7,41.9,23.2,42.3,21.6,42.3z"/>
		<path fill="#381C1C" d="M9.9,36.4c-0.2,0-0.3,0-0.5-0.1c-1.1-0.5-6.9-5.1-6.5-8.5c0-0.5,0.2-1,0.5-1.4c-1.9-0.9-3.8-2.4-2.7-5.4
			c0.9-2,2.9-3.3,5.1-3.5c1.9-0.3,3.7,0.6,4.7,2.2c0.4,0.6,0.2,1.3-0.4,1.7c-0.6,0.4-1.3,0.2-1.7-0.4c0,0,0,0,0,0
			c-0.5-0.8-1.4-1.2-2.3-1c-1.2,0.1-2.4,0.8-3,1.9c-0.5,1.3,0.1,1.9,2.9,3L6.5,25c0.6,0.3,0.9,1,0.7,1.6c-0.2,0.4-0.5,0.7-0.9,0.7
			c-0.5,0.1-1,0.3-1,0.6c-0.2,1.6,4,5.6,5.1,6.1c0.6,0.3,0.9,1,0.6,1.6C10.8,36.1,10.4,36.4,9.9,36.4z"/>
		<path fill="#381C1C" d="M47.6,29c-0.7,0-1.2-0.6-1.2-1.2c0-0.5,0.4-1,0.9-1.2c2.3-0.7,2.3-1.9,2-4.7c-0.1-0.7-0.1-1.3-0.2-2
			c0-0.7,0.5-1.2,1.2-1.3c0,0,0,0,0,0c0.7,0,1.2,0.5,1.3,1.2c0,0.6,0.1,1.2,0.1,1.8c0.3,2.5,0.6,6-3.7,7.3C47.8,29,47.7,29,47.6,29z
			"/>
		<path fill="#381C1C" d="M39.8,57c-2.2-0.1-4.4-1.1-5.9-2.7c-1-0.9-1.7-2.1-2.1-3.4c-2.9,0.9-6.1,0.4-8.7-1.1
			c-1.5-1.2-3.1-3.5-1.7-8c0.2-0.6,0.9-1,1.5-0.8c0.6,0.2,1,0.9,0.8,1.5c-0.8,2.5-0.5,4.3,0.9,5.3c2.4,1.3,5.2,1.4,7.7,0.3
			c0.6-0.4,1.3-0.2,1.7,0.4c0.2,0.3,0.2,0.6,0.2,1c0,1.2,0.5,2.4,1.5,3.1c1.3,1.4,3.2,2.1,5.1,1.9c1.2-0.3,2-1.4,2.4-3.1
			c0.2-0.7,0.8-1.1,1.5-0.9c0.3,0.1,0.5,0.2,0.7,0.4c0.2,0.2,0.3,0.4,0.4,0.6c0.9,1.7,1.8,2.7,2.5,2.8c0,0,0.1,0,0.1,0
			c1.4,0,3.4-2.7,5-4.9c0.9-1.3,1.9-2.5,2.9-3.7c0.1-0.1,0.2-0.2,0.3-0.2c0.4-0.2,0.2-1.1,0-1.8c-0.5-1.7-1.7-3.1-3.3-3.9
			c-0.3,0-0.6,0-0.9,0c-0.7-0.1-1.1-0.7-1-1.4c0.1-0.5,0.5-0.9,1-1c0.3-0.1,0.7-0.1,1,0c1.5-0.4,2.8-1.5,3.3-3
			c0.7-2.1-1.3-3.5-3-4.4c-0.6-0.3-0.8-0.9-0.6-1.5c0.2-0.4,0.4-0.7,0.8-0.8c1.7-0.7,3.1-2,4-3.6c0.2-1.1-0.1-2.3-0.9-3.1
			c-0.9-1.3-2.5-2.1-4.1-2c-1.3,0.2-1.3,0.4-1.3,1c0,0.7-0.5,1.2-1.2,1.3c0,0,0,0,0,0c-0.7,0-1.2-0.5-1.3-1.2
			c-0.1-2.5,1.7-3.2,3.3-3.5c2.5-0.3,5,0.8,6.5,2.9c1.4,1.5,1.9,3.7,1.2,5.7c-0.8,1.6-2,2.9-3.5,3.8c2.1,1.3,3.1,3.8,2.4,6.2
			c-0.5,1.5-1.5,2.8-2.9,3.7c1.2,1.1,2.2,2.6,2.8,4.2c0.7,2.1,0.4,3.8-1,4.7c-0.9,1.1-1.8,2.2-2.6,3.3c-2.2,3-4.4,6.1-7.2,5.9
			c-1.5-0.2-2.8-1.1-3.5-2.4c-0.7,1.2-1.8,2.1-3.2,2.5C40.8,57,40.3,57,39.8,57z"/>
		<path fill="#381C1C" d="M16.2,40.8c-0.7,0-1.4-0.1-2.1-0.3c-3-0.8-5.2-3.3-5.7-6.4c-0.1-1.2,0.2-2.3,0.8-3.3
			c0.8-1.5,1.3-3.2,1.3-5c0-1.7-0.7-3.3-1.9-4.5c-2.3-2.1-3.6-5-3.6-8.1c0-1.1,0.7-2.1,1.6-2.6c2.3-1.2,4.1-1.1,5.6,0.3
			C12.8,9.7,14,9,15.3,8.9C17.8,9.2,20,10.7,21,13c3.8,0.3,12.3,2.6,13,6.2c0.6,2.6,0.1,5.4-1.3,7.6c-0.7,1.3-1.7,2.4-3,3.1
			c-1.9,1.1-4,1.7-6.2,1.8c0.3,0.5,0.5,1,0.6,1.6c0.1,1.7-0.5,3.4-1.7,4.5C20.8,39.7,18.6,40.8,16.2,40.8z M9.4,12.1
			c-0.6,0.1-1.2,0.2-1.7,0.6c-0.2,0.1-0.3,0.4-0.3,0.7c0.1,2.3,1.1,4.4,2.7,6c1.8,1.7,2.8,4,2.9,6.4c0,2.1-0.6,4.2-1.5,6
			c-0.3,0.6-0.6,1.3-0.7,1.9c0.3,2.1,1.8,3.9,3.9,4.4c2.1,0.6,4.4-0.2,5.8-1.9c0.7-0.6,1.1-1.6,1.1-2.5c-0.1-0.7-0.8-1.5-2.2-2.3
			c-0.6-0.3-0.8-1.1-0.4-1.7c0.3-0.4,0.8-0.7,1.3-0.6c2.8,0.6,5.6,0.1,8.1-1.3c0.9-0.5,1.6-1.2,2.1-2.1c0-0.1,0.1-0.1,0.1-0.2
			c0.9-1.6,1.3-3.5,1.1-5.3c-0.1-0.2-0.2-0.3-0.2-0.5c-0.2-1.5-7.8-4.4-11.4-4.3c-0.6,0-1.1-0.3-1.2-0.9c-0.5-1.6-1.9-2.8-3.5-3.2
			c-1,0-1.5,1.2-1.7,2.2c-0.1,0.7-0.8,1.1-1.5,0.9c-0.3-0.1-0.6-0.3-0.8-0.6C10.7,12.7,10.1,12.2,9.4,12.1L9.4,12.1z M31.9,20.4"/>
		<path fill="#381C1C" d="M45.8,49.7c-1.3-0.1-2.6-0.4-3.8-1c-1.8-0.9-3.7-1.4-5.6-1.5c-3.3,0.5-8.3-0.8-10.2-3.4
			c-0.9-1.3-1.1-2.9-0.4-4.3l0,0c1.6-3.3,9.4-11.5,9.7-11.8c0.4-0.4,0.9-0.8,1.4-1.1l0.5-0.3c1.3-1.1,2.9-1.6,4.6-1.5
			c2.5,0.7,4.8,2.1,6.6,4.1c2,2.1,6.3,10.4,3.8,14.6c-0.4,0.7-1.2,1.2-2,1.2c-0.4,0.1-0.5,0.1-0.7,0.8c-0.7,2-1.2,3.4-2.5,4
			C46.7,49.6,46.2,49.7,45.8,49.7z M36.7,44.7c2.2,0.2,4.3,0.8,6.2,1.7c2.1,0.9,2.9,0.9,3.2,0.8c0.4-0.2,0.8-1.2,1.2-2.5
			c0.7-2,1.7-2.4,2.7-2.5c0.1,0,0.2,0,0.3,0c1.6-2.7-1.7-9.8-3.5-11.7c-1.4-1.6-3.2-2.8-5.3-3.3c-0.7-0.2-2,0.6-2.8,1.1l-0.6,0.3
			c-0.3,0.2-0.6,0.4-0.9,0.7c-3.2,3.3-8.2,9-9.3,11.2l0,0c-0.3,0.6-0.3,1.3,0.1,1.8c1.3,1.8,5.4,2.8,7.9,2.4
			C36.2,44.7,36.5,44.7,36.7,44.7L36.7,44.7z"/>
		<path fill="#381C1C" d="M42.9,24c-2.4,0-4.7-1.1-6.3-3c-1.7-1.7-2.8-3.8-3.2-6.2c-0.2-1,0-1.9,0.3-2.8c0.4-0.8,1.1-1.5,2-1.8
			c1.8-0.5,3.7-0.4,5.4,0.3c2.3,0.7,4.4,1.9,6.3,3.3c0.7,0.5,1.3,1.1,1.9,1.8c0.4,0.4,0.8,0.8,1.2,1.2c0.4-0.1,1-0.4,1.3-1.5
			c0.5-2.5-0.5-5.1-2.5-6.7c-1.9-1.4-4.4-1.3-7.2,0.4c-0.5,0.3-1.2,0.2-1.6-0.3c-2.3-2.9-4.8-3.9-7.1-2.8c-1.2,0.5-2.1,1.6-2.4,3
			c0.3,0.5,0.2,1.1-0.2,1.5c-0.4,0.4-1.1,0.4-1.5,0.1c-1.1-1.1-2.8-1.4-4.3-0.7c-1.4,1-2.2,2.6-2.4,4.3c0.1,0.7-0.3,1.3-0.9,1.4
			c0,0,0,0,0,0c-0.7,0.1-1.3-0.3-1.5-0.9c-0.1-2.6,1.1-5.1,3.2-6.7c1.6-1.1,3.7-1.2,5.4-0.4c0.5-1.3,1.4-2.4,2.6-3.2
			c1.2-0.9,5.5-3.1,10.3,2.2c4.4-2.3,7.5-0.9,9,0.2c2.8,2.2,4.1,5.8,3.4,9.3c-0.4,1.8-1.8,3.1-3.6,3.3c-0.1,0-0.1,0-0.2,0
			c-1,0-1.9-0.9-2.9-2c-0.5-0.6-1.1-1.1-1.6-1.6c-1.7-1.3-3.5-2.3-5.5-2.9c-1.2-0.5-2.6-0.6-3.9-0.3c-0.3,0.1-0.5,0.3-0.6,0.5
			c-0.2,0.5-0.2,1-0.1,1.5c0.4,1.8,1.3,3.5,2.6,4.8c1.3,1.7,3.5,2.6,5.7,2.2c0.4,0,0.7-0.1,1.1-0.3c-0.2-0.9-0.6-1.8-3.4-3.4
			c-0.5-0.3-1.1-0.5-1.7-0.4c-0.4,0.5-1.2,0.6-1.7,0.1c-0.2-0.2-0.3-0.4-0.4-0.6c-0.1-0.3,0-0.7,0.1-0.9c0.2-0.3,0.5-0.6,0.8-0.7
			c1.4-0.5,2.9-0.3,4.1,0.4c3.6,2,4.3,3.5,4.7,5.1c0.2,0.8,0,1.6-0.6,2.1c-0.7,0.6-1.6,1-2.5,1.1C43.9,24,43.4,24,42.9,24z"/>
	</g>
</g>
</svg>
