<!-- Generator: Adobe Illustrator 19.2.1, SVG Export Plug-In  -->
<svg version="1.1"
	 xmlns="http://www.w3.org/2000/svg" xmlns:xlink="http://www.w3.org/1999/xlink" xmlns:a="http://ns.adobe.com/AdobeSVGViewerExtensions/3.0/"
	 x="0px" y="0px" width="36px" height="32.6px" viewBox="0 0 36 32.6" overflow="visible" enable-background="new 0 0 36 32.6"
	 xml:space="preserve">
<defs>
</defs>
<path fill="#381C1C" d="M27.6,20.9c-3,0-6.2-1.3-8.7-3.8c-4.5-4.5-5.1-11-1.4-14.7c3.7-3.7,10.3-3,14.7,1.4l0,0
	c4.5,4.5,5.1,11.1,1.4,14.7C32.1,20.1,29.9,20.9,27.6,20.9z M23.5,1.4c-1.9,0-3.7,0.6-5,2c-3.1,3.1-2.4,8.8,1.4,12.7
	c3.9,3.9,9.6,4.5,12.7,1.4c3.1-3.1,2.4-8.8-1.4-12.7C28.9,2.6,26.1,1.4,23.5,1.4z"/>
<path fill="#381C1C" d="M27.1,16.7c-0.3,0-0.6,0-0.9-0.1c-1.6-0.2-3.2-1.1-4.5-2.4c-2.7-2.7-3.2-6.7-1.1-8.8
	c2.1-2.1,6.1-1.7,8.8,1.1l0,0c2.7,2.7,3.2,6.7,1.1,8.8C29.6,16.3,28.4,16.7,27.1,16.7z M24.1,5.6c-0.9,0-1.8,0.3-2.4,0.9
	c-1.6,1.6-1.1,4.6,1.1,6.8c1.1,1.1,2.4,1.8,3.7,1.9c1.2,0.2,2.3-0.1,3.1-0.9c1.6-1.6,1.1-4.6-1.1-6.8C27.1,6.3,25.5,5.6,24.1,5.6z"
	/>
<path fill="#381C1C" d="M7.3,32.6C7.2,32.6,7.2,32.6,7.3,32.6c-0.7,0-1.3-0.3-1.8-0.8l-1.3-1.3c-0.5-0.5-0.7-1.1-0.8-1.7
	c0-0.7,0.2-1.3,0.7-1.7l13.1-13.1c0.3-0.3,0.7-0.3,1,0s0.3,0.7,0,1L5.1,28.1c-0.2,0.2-0.3,0.4-0.2,0.7c0,0.3,0.1,0.5,0.3,0.7
	l1.3,1.3C6.7,31,7,31.2,7.2,31.2c0.3,0,0.5-0.1,0.7-0.2l13.1-13.1c0.3-0.3,0.7-0.3,1,0s0.3,0.7,0,1L8.9,31.9
	C8.5,32.4,7.9,32.6,7.3,32.6z"/>
<path fill="#381C1C" d="M4.7,28c-0.2,0-0.4-0.1-0.5-0.2l-4-4c-0.3-0.3-0.3-0.7,0-1c1.1-1.1,2-2,2.9-2.8c0.9-0.8,1.7-1.6,2.8-2.7
	c0.3-0.3,0.7-0.3,1,0l3.9,3.9c0.3,0.3,0.3,0.7,0,1s-0.7,0.3-1,0l-3.4-3.4c-0.8,0.8-1.5,1.5-2.3,2.2c-0.7,0.7-1.5,1.4-2.4,2.3
	l3.4,3.4c0.3,0.3,0.3,0.7,0,1C5,27.9,4.9,28,4.7,28z"/>
<path fill="#381C1C" d="M5.4,22.8c-0.2,0-0.4-0.1-0.5-0.2l-1.6-1.6c-0.3-0.3-0.3-0.7,0-1c0.3-0.3,0.7-0.3,1,0l1.6,1.6
	c0.3,0.3,0.3,0.7,0,1C5.8,22.7,5.6,22.8,5.4,22.8z"/>
</svg>
