<!-- Generator: Adobe Illustrator 19.2.1, SVG Export Plug-In  -->
<svg version="1.1"
	 xmlns="http://www.w3.org/2000/svg" xmlns:xlink="http://www.w3.org/1999/xlink" xmlns:a="http://ns.adobe.com/AdobeSVGViewerExtensions/3.0/"
	 x="0px" y="0px" width="35.5px" height="32.8px" viewBox="0 0 35.5 32.8"
	 overflow="visible" enable-background="new 0 0 35.5 32.8" xml:space="preserve">
<defs>
</defs>
<path fill="#381C1C" d="M34.7,32.8h-5c-0.4,0-0.7-0.3-0.7-0.7V29H6.5v3.1c0,0.4-0.3,0.7-0.7,0.7h-5c-0.4,0-0.7-0.3-0.7-0.7v-7.5
	c0-0.4,0.3-0.7,0.7-0.7s0.7,0.3,0.7,0.7v6.8h3.6v-3.1c0-0.4,0.3-0.7,0.7-0.7h23.9c0.4,0,0.7,0.3,0.7,0.7v3.1H34v-6.8
	c0-0.4,0.3-0.7,0.7-0.7s0.7,0.3,0.7,0.7v7.5C35.4,32.5,35.1,32.8,34.7,32.8z"/>
<path fill="#381C1C" d="M29.4,1.4H6c-0.4,0-0.7-0.3-0.7-0.7S5.6,0,6,0h23.4c0.4,0,0.7,0.3,0.7,0.7S29.8,1.4,29.4,1.4z"/>
<path fill="#381C1C" d="M31.7,3.7C31.3,3.7,31,3.4,31,3c0-0.9-0.7-1.6-1.6-1.6c-0.4,0-0.7-0.3-0.7-0.7S29,0,29.4,0c1.7,0,3,1.3,3,3
	C32.4,3.4,32.1,3.7,31.7,3.7z"/>
<path fill="#381C1C" d="M31.7,13.5c-0.4,0-0.7-0.3-0.7-0.7V3c0-0.4,0.3-0.7,0.7-0.7c0.4,0,0.7,0.3,0.7,0.7v9.7
	C32.4,13.1,32.1,13.5,31.7,13.5z"/>
<path fill="#381C1C" d="M28.7,13.1c-0.4,0-0.7-0.3-0.7-0.7v-1.5c0-1-0.8-1.8-1.8-1.8h-5.7c-1,0-1.8,0.8-1.8,1.8v1
	c0,0.4-0.3,0.7-0.7,0.7s-0.7-0.3-0.7-0.7v-1c0-1.8,1.5-3.2,3.2-3.2h5.7c1.8,0,3.2,1.5,3.2,3.2v1.5C29.4,12.7,29.1,13.1,28.7,13.1z"
	/>
<path fill="#381C1C" d="M6.8,13.1c-0.4,0-0.7-0.3-0.7-0.7v-1.5c0-1.8,1.5-3.2,3.2-3.2H15c1.8,0,3.2,1.5,3.2,3.2v1
	c0,0.4-0.3,0.7-0.7,0.7s-0.7-0.3-0.7-0.7v-1c0-1-0.8-1.8-1.8-1.8H9.3c-1,0-1.8,0.8-1.8,1.8v1.5C7.5,12.7,7.2,13.1,6.8,13.1z"/>
<path fill="#381C1C" d="M3.7,13.5c-0.4,0-0.7-0.3-0.7-0.7V3c0-0.4,0.3-0.7,0.7-0.7S4.5,2.6,4.5,3v9.7C4.5,13.1,4.1,13.5,3.7,13.5z"
	/>
<path fill="#381C1C" d="M3.7,3.7C3.3,3.7,3,3.4,3,3c0-1.7,1.3-3,3-3c0.4,0,0.7,0.3,0.7,0.7S6.4,1.4,6,1.4C5.2,1.4,4.5,2.1,4.5,3
	C4.5,3.4,4.1,3.7,3.7,3.7z"/>
<path fill="#381C1C" d="M34.7,24.8h-34c-0.2,0-0.4-0.1-0.6-0.3C0,24.3,0,24.1,0,23.9l3-10.6c0.1-0.3,0.3-0.5,0.6-0.5
	c9.3-1.5,22.9-1.2,28.4,0c0.3,0.1,0.5,0.3,0.5,0.5l2.9,10.6c0.1,0.2,0,0.4-0.1,0.6C35.2,24.7,35,24.8,34.7,24.8z M1.7,23.3h32.1
	L31.2,14c-5.4-1.1-18.2-1.3-27,0L1.7,23.3z"/>
</svg>
