<!-- Generator: Adobe Illustrator 19.2.1, SVG Export Plug-In  -->
<svg version="1.1"
	 xmlns="http://www.w3.org/2000/svg" xmlns:xlink="http://www.w3.org/1999/xlink" xmlns:a="http://ns.adobe.com/AdobeSVGViewerExtensions/3.0/"
	 x="0px" y="0px" width="68px" height="63px" viewBox="0 0 68 63" overflow="auto" enable-background="new 0 0 68 63"
	 xml:space="preserve">
<defs>
</defs>
<g transform="translate(-561 -463)">
	<path fill="#F9A832" d="M613.9,469.2c0,0.5-0.4,0.8-0.8,0.8c-0.5,0-0.8-0.4-0.8-0.8c0-0.5,0.4-0.8,0.8-0.8
		C613.5,468.4,613.9,468.8,613.9,469.2C613.9,469.2,613.9,469.2,613.9,469.2z"/>
	<path fill="#F9A832" d="M578.2,480.6c0,0.7-0.6,1.3-1.3,1.3c-0.7,0-1.3-0.6-1.3-1.3s0.6-1.3,1.3-1.3l0,0
		C577.7,479.3,578.2,479.9,578.2,480.6z"/>
	<path fill="#F9A832" d="M620.9,490.5c0,0.9-0.8,1.7-1.7,1.7c-0.9,0-1.7-0.8-1.7-1.7c0-0.9,0.8-1.7,1.7-1.7c0,0,0,0,0,0
		C620.1,488.8,620.9,489.6,620.9,490.5L620.9,490.5z"/>
	<ellipse fill="#F9A832" cx="584.2" cy="470.9" rx="1" ry="1"/>
	<ellipse fill="#F9A832" cx="564" cy="481" rx="2" ry="2"/>
	<path fill="#F9A832" d="M629,471.3c0,1.4-1.2,2.6-2.6,2.6s-2.6-1.2-2.6-2.6s1.2-2.6,2.6-2.6l0,0C627.8,468.7,629,469.9,629,471.3
		C629,471.3,629,471.3,629,471.3z"/>
	<path fill="#F9A832" d="M570.4,519.7c0.3,0.8,1,1.4,1.8,1.6c0.8,0.2,1.7,0.3,2.5,0.2l28.3-1c1.6-0.1,3.1-0.1,4.7,0.1
		c1.3,0.2,2.6,0.3,3.9,0.3c1.3-0.1,2.5-0.9,3-2.1c0.2-0.6,0.1-1.2-0.3-1.7c-0.4-0.3-0.8-0.4-1.3-0.4c-1.7-0.1-3.5-0.1-5.2,0
		c-8.5,0.6-17,0.5-25.5-0.4c-2-0.3-4.1,0.3-6.1,0.4c-1.9,0.1-3.5-0.1-5.3,0.7C570.3,517.9,570,518.8,570.4,519.7z"/>
	<path fill="#F9A832" d="M575.5,476.6c0.9-0.6,1.7-1.4,2.3-2.3c0.4-0.7,0.6-1.4,1-2.1c0.2-0.4,0.5-0.7,0.8-1.1
		c0.5-1,0.6-2.2,0.2-3.3c-0.4-1-1-2-1.7-2.8c-0.2-0.3-0.6-0.6-0.9-0.8c-0.3-0.1-0.7-0.2-1.1-0.2c-0.9-0.1-1.8,0-2.7,0.2
		c-0.9,0.2-1.6,0.9-1.8,1.8c-1.3-0.9-2.8-1.5-4.5-1.7c-0.9-0.3-1.9-0.2-2.8,0.2c-0.9,0.7-1.4,1.9-1.5,3c-0.2,1.1-0.2,2.3,0,3.4
		c0.5,1.4,1.3,2.6,2.4,3.6l3.2,3.4c0.8,0.9,2.2,2.4,3.5,1.6C573.1,478.8,574.3,477.5,575.5,476.6z"/>
	<path fill="#381C1C" d="M579.2,505.6c-1.7,0-3,1.4-3,3c0,1.7,1.4,3,3,3c1.7,0,3-1.4,3-3l0,0C582.2,507,580.8,505.6,579.2,505.6z
		 M579.2,509.7c-0.6,0-1-0.5-1-1c0-0.6,0.5-1,1-1c0.6,0,1,0.5,1,1C580.2,509.2,579.7,509.7,579.2,509.7L579.2,509.7z"/>
	<path fill="#381C1C" d="M605.4,511.7c1.7,0,3-1.4,3-3c0-1.7-1.4-3-3-3c-1.7,0-3,1.4-3,3l0,0C602.3,510.3,603.7,511.7,605.4,511.7z
		 M605.4,507.6c0.6,0,1,0.5,1,1c0,0.6-0.5,1-1,1c-0.6,0-1-0.5-1-1C604.3,508.1,604.8,507.6,605.4,507.6z"/>
	<path fill="#381C1C" d="M622.1,481.4c2.3-2.4,2.3-6.2,0-8.5c-2.3-2.3-6-2.3-8.3-0.2c-2.5-2.3-6.3-2.1-8.5,0.3
		c-2.2,2.4-2.1,6.1,0.2,8.3l7.4,7.4v2.4c0,1,0.3,2.1,0.9,2.9l0.6,0.9c0.9,1.3,0.7,3-0.4,4.1l-3.4,3.4c-0.5-0.4-1.1-0.6-1.8-0.7v-7.2
		c0-5-4.1-9.1-9.1-9.1h-14.2c-5,0-9.1,4.1-9.1,9.1v7.2c-0.8,0.2-1.6,0.6-2.2,1.1l-3-3.6c-1.3-1.6-1.1-4,0.5-5.3c0,0,0,0,0.1-0.1
		l1.6-1.3c2.4-1.9,2.8-5.4,0.9-7.8c-0.1-0.2-0.3-0.3-0.4-0.5l-0.4-0.4c-0.7-0.7-1-1.6-1-2.5v-0.7l7.4-7.4c2.4-2.4,2.4-6.2,0-8.5
		c-2.3-2.3-6-2.4-8.4-0.2c-2.4-2.3-6.3-2.1-8.5,0.3c-2.2,2.4-2.1,6.1,0.2,8.4l7.4,7.4v0.7c0,1.5,0.6,2.9,1.6,3.9l0.4,0.4
		c1.4,1.4,1.4,3.6,0,5c-0.1,0.1-0.2,0.2-0.3,0.3l-1.6,1.2c-2.5,2-2.9,5.7-0.9,8.2c0,0,0,0.1,0.1,0.1l3.2,3.9
		c-0.4,0.7-0.5,1.5-0.5,2.2v9.1c-1.7,0-3,1.4-3,3c0,1.7,1.4,3,3,3h2c0,2.2,1.7,4.1,4,4.1c2.2,0,4.1-1.7,4.1-4c0,0,0-0.1,0-0.1h20.3
		c0,2.2,1.7,4.1,4,4.1c2.2,0,4.1-1.7,4.1-4c0,0,0-0.1,0-0.1h2c1.7,0,3-1.4,3-3c0-1.7-1.4-3-3-3v-9.1c0-1-0.3-2-0.8-2.8l3.4-3.4
		c1.8-1.8,2-4.5,0.7-6.6l-0.6-0.9c-0.4-0.5-0.5-1.2-0.5-1.8v-2.4L622.1,481.4z M571.1,478.8l-6.9-6.9c-1.6-1.6-1.6-4.1,0-5.7
		s4.1-1.6,5.7,0l0,0l1.3,1.3l1.3-1.3c1.6-1.5,4.1-1.5,5.7,0.1c1.5,1.6,1.5,4,0,5.6L571.1,478.8z M610.7,506.6v9.1h-11.1v-12.2h8.1
		C609.3,503.6,610.7,504.9,610.7,506.6L610.7,506.6z M578.2,494.5c0-3.9,3.2-7.1,7.1-7.1h14.2c3.9,0,7.1,3.2,7.1,7.1v7.1h-7.1
		c0-1.1-0.9-2-2-2h-10.1c-1.1,0-2,0.9-2,2h-7.1L578.2,494.5z M597.5,505.6v2h-10.1v-2h6.1v-2h-6.1v-2h10.1v2h-2v2L597.5,505.6z
		 M587.4,511.7v-2h10.1v2H587.4z M597.5,513.7v2h-10.1v-2H597.5z M574.2,506.6c0-1.7,1.4-3,3-3h8.1v12.2h-11.1L574.2,506.6z
		 M578.2,523.9c-1.1,0-2-0.9-2-2h4.1C580.3,523,579.3,523.9,578.2,523.9L578.2,523.9z M606.6,523.9c-1.1,0-2-0.9-2-2h4.1
		C608.6,523,607.7,523.9,606.6,523.9L606.6,523.9z M612.7,517.8c0.6,0,1,0.5,1,1c0,0.5-0.4,1-1,1h-40.5c-0.6,0-1-0.5-1-1
		c0-0.5,0.4-1,1-1H612.7z M613.7,486.9l-6.9-6.9c-1.6-1.6-1.6-4.1-0.1-5.7c1.6-1.6,4.1-1.6,5.7-0.1c0,0,0,0,0,0l1.3,1.3l1.3-1.3
		c1.6-1.6,4.1-1.5,5.7,0.1c1.5,1.6,1.5,4.1,0,5.6L613.7,486.9z"/>
</g>
</svg>