<!-- Generator: Adobe Illustrator 19.2.1, SVG Export Plug-In  -->
<svg version="1.1"
	 xmlns="http://www.w3.org/2000/svg" xmlns:xlink="http://www.w3.org/1999/xlink" xmlns:a="http://ns.adobe.com/AdobeSVGViewerExtensions/3.0/"
	 x="0px" y="0px" width="45.1px" height="42.2px" viewBox="0 0 45.1 42.2"
	 overflow="visible" enable-background="new 0 0 45.1 42.2" xml:space="preserve">
<defs>
</defs>
<path fill="#F9A832" d="M27.6,39.4c0.5-0.5,0.8-1.2,1-1.9c0.9-2.4,1.3-4.9,1.2-7.4c0-0.2,0-0.5-0.1-0.7c-0.1-0.2-0.3-0.3-0.4-0.4
	c-0.9-0.8-1.9-1.5-2.8-2.3c-0.4,0.4-0.4,1.1-0.4,1.7c0,0.6-0.3,1.4-0.9,1.3c-0.3,0-0.5-0.2-0.7-0.3c-0.7-0.4-1.6-0.4-2.4-0.3
	c-0.8,0.1-1.7,0.1-2.4,0.7c-0.6,0.5-0.9,1.2-1.1,1.8c-0.5,1.3-1,2.6-1,4c0,1.5,0.6,3,1.6,4.1c0.9,1,2.9,2.2,4.4,1.8
	c0.6-0.2,1.1-0.6,1.7-0.8C26.2,40.4,27,40,27.6,39.4z"/>
<circle fill="#FFFFFF" cx="23.5" cy="35" r="3.1"/>
<circle fill="#F9A832" cx="3.4" cy="6.2" r="0.7"/>
<circle fill="#F9A832" cx="28.2" cy="1.3" r="0.7"/>
<circle fill="#F9A832" cx="35.9" cy="8.2" r="0.7"/>
<circle fill="#F9A832" cx="1" cy="14.1" r="1"/>
<circle fill="#F9A832" cx="25.1" cy="4.1" r="1.3"/>
<circle fill="#F9A832" cx="2" cy="23.3" r="1.7"/>
<circle fill="#F9A832" cx="37.6" cy="15.5" r="1.7"/>
<path fill="#F9A832" d="M6.1,37c-0.7-2.7,0.3-5.7,0-8.5c-0.1-0.7-0.2-1.4-0.3-2.1c-0.1-0.9-0.1-1.9-0.2-2.8c-0.1-3-0.1-6-0.2-8.9
	c0-1.3-0.1-2.6,0.1-3.8c0.2-1.5,0.6-3,0.7-4.6c0.1-1.6,0-3.3,1.1-4.4c0.9-0.9,2.3-0.9,3.5-0.9c1.3,0,2.6,0,3.9-0.1
	c0.6,0,1.2,0,1.7,0.3s0.9,0.9,0.6,1.4c-0.2,0.6-1,0.7-1.6,0.7c-1.6,0.1-3.3,0.3-4.9,0.4c-0.2,0-0.4,0-0.5,0.1
	C9.8,3.9,9.7,4.1,9.7,4.4c-2,5.9-2,12.4,0,18.3c0.2,0.6,0.4,1.3,0.9,1.7c0.3,0.3,0.7,0.4,1.1,0.6c0.8,0.3,1.5,0.6,2.4,0.7
	c0.6,0,1.2-0.1,1.8,0.1c0.6,0.2,1,0.8,0.8,1.4c-0.2,0.4-0.7,0.5-1.1,0.5c-0.4,0-0.9-0.2-1.3-0.2c-1,0-1.9,0.7-2.3,1.6
	C11.5,30,11.4,31,11.3,32c-0.1,2-0.2,3.9-0.3,5.9c0,0.8,0,1.5-0.3,2.2c-0.3,0.7-0.9,1.3-1.6,1.4C6.9,41.8,6.5,38.5,6.1,37z"/>
<g>
	<path fill="#381C1C" d="M41.5,30.3c-0.4,0.1-0.5,0.5-0.4,0.9c0.4,1.1,0,2.4-1,3.1c-1.2,0.8-2.9,0.6-3.7-0.6c-0.4-0.6-0.6-1.3-0.4-2
		c0.1-0.7,0.5-1.3,1.1-1.7c0.9-0.6,2-0.6,3-0.1c0.3,0.2,0.8,0.1,1-0.2c0.2-0.3,0.1-0.8-0.2-1c-1.4-0.9-3.1-0.8-4.5,0.1
		c-1.8,1.3-2.3,3.8-1,5.6c0.8,1.1,2,1.7,3.3,1.7c0.8,0,1.6-0.2,2.3-0.7c1.5-1,2.1-3,1.5-4.7C42.2,30.3,41.9,30.1,41.5,30.3z"/>
	<path fill="#381C1C" d="M43.7,28.1c-1-1.3-2.4-2.1-3.9-2.4c-1.6-0.3-3.2,0-4.6,0.8c-0.4,0.3-0.8,0.6-1.2,0.9l-5.5-7.8L31,5.3
		c1.4,2.4,1.9,5.2,1.4,7.9l-1.4,8.1c-0.1,0.4,0.2,0.7,0.6,0.8c0,0,0.1,0,0.1,0c0.3,0,0.6-0.2,0.7-0.6l1.4-8.1
		c0.6-3.7-0.3-7.4-2.6-10.4c-0.2-0.2-0.4-0.3-0.7-0.2C30.2,2.9,30,3.1,30,3.4l-2.5,14.5l-3.9-5.5c-0.2-0.3-0.7-0.4-1-0.2
		c-0.3,0.2-0.4,0.7-0.2,1l8.7,12.4L29.5,28l-8.3-11.8c-1.6-2.3-2.3-5-2.1-7.7l2,2.8c0.2,0.3,0.7,0.4,1,0.2c0.3-0.2,0.4-0.7,0.2-1
		l-3-4.2C19.1,6,18.8,5.9,18.5,6C18.3,6,18.1,6.2,18,6.5c-0.9,3.6-0.1,7.4,2,10.5l6.1,8.6l-0.6,3.2c-0.3-0.1-0.6-0.2-1-0.2
		c-1.7-0.3-3.4,0.1-4.9,1.1c-1.4,1-2.4,2.5-2.7,4.2c-0.3,1.7,0.1,3.4,1.1,4.9c1,1.4,2.5,2.4,4.2,2.7c0.4,0.1,0.8,0.1,1.1,0.1
		c1.3,0,2.6-0.4,3.7-1.2c1.4-1,2.4-2.5,2.7-4.2l0.7-4.1l2.6,3.7c1,1.5,2.6,2.4,4.3,2.7c0.4,0.1,0.8,0.1,1.1,0.1
		c1.3,0,2.6-0.4,3.7-1.2c1.5-1,2.4-2.6,2.7-4.3C45.3,31.3,44.8,29.5,43.7,28.1z M28.5,35.8c-0.2,1.4-1,2.5-2.1,3.3
		c-1.1,0.8-2.5,1.1-3.8,0.9c-1.3-0.2-2.5-1-3.3-2.1c-0.8-1.1-1.1-2.5-0.9-3.8c0.2-1.3,1-2.5,2.1-3.3c1.1-0.8,2.5-1.1,3.8-0.9
		c0.5,0.1,1,0.2,1.4,0.5c0.2,0.1,0.4,0.1,0.6,0c0.2-0.1,0.3-0.3,0.4-0.5l0.5-2.6l2.2,3.2L28.5,35.8z M43.6,32.8
		c-0.2,1.4-1,2.6-2.1,3.4c-1.1,0.8-2.5,1.1-3.8,0.8c-1.4-0.2-2.6-1-3.4-2.2l-3.5-5.1c0,0,0,0,0,0l-0.5-0.6l1.7-2.4l1.4,2
		c0.1,0.2,0.3,0.3,0.5,0.3c0.2,0,0.4-0.1,0.6-0.3c0.4-0.5,0.9-0.9,1.4-1.2c1.1-0.6,2.4-0.9,3.6-0.6c1.2,0.2,2.3,0.9,3.1,1.9
		C43.5,30,43.8,31.4,43.6,32.8z"/>
	<path fill="#381C1C" d="M24.2,31c-1.1-0.2-2.1,0.1-3,0.7c-0.9,0.6-1.5,1.6-1.7,2.6c-0.4,2.2,1.1,4.3,3.3,4.7c0.2,0,0.5,0.1,0.7,0.1
		c0.8,0,1.6-0.3,2.3-0.7c0.9-0.6,1.5-1.6,1.7-2.6C27.8,33.4,26.4,31.3,24.2,31z M26.1,35.4c-0.3,1.4-1.6,2.4-3.1,2.2
		c-1.4-0.3-2.4-1.6-2.2-3.1l0,0c0.3-1.4,1.6-2.4,3.1-2.2C25.4,32.6,26.3,34,26.1,35.4z"/>
	<path fill="#381C1C" d="M28.4,25.1c0.3,0.5,1.2,0.3,1.3-0.3c0.1-0.3-0.1-0.6-0.4-0.7C29,24,28.7,24,28.5,24.2
		C28.2,24.5,28.2,24.8,28.4,25.1z"/>
	<path fill="#381C1C" d="M17.2,27.8c0.4-0.4,0.5-1,0.4-1.6l0,0c-0.2-0.9-1-1.6-1.9-1.6h-3.5c-0.6,0-1.2-0.2-1.6-0.6h4.5
		c0.4,0,0.7-0.3,0.7-0.7c0-0.4-0.3-0.7-0.7-0.7h-5c-0.1-0.4-0.2-0.8-0.2-1.2h4.9c0.4,0,0.7-0.3,0.7-0.7c0-0.4-0.3-0.7-0.7-0.7H9.7
		c-0.1-0.4-0.1-0.8-0.2-1.2h5.1c0.4,0,0.7-0.3,0.7-0.7c0-0.4-0.3-0.7-0.7-0.7H9.4c0-0.4-0.1-0.8-0.1-1.2h5.3c0.4,0,0.7-0.3,0.7-0.7
		s-0.3-0.7-0.7-0.7H9.2c0-0.4,0-0.8,0-1.2h5.4c0.4,0,0.7-0.3,0.7-0.7s-0.3-0.7-0.7-0.7H9.3c0-0.4,0-0.8,0.1-1.2h5.4
		c0.4,0,0.7-0.3,0.7-0.7s-0.3-0.7-0.7-0.7H9.5c0-0.4,0.1-0.8,0.2-1.2h5.3c0.4,0,0.7-0.3,0.7-0.7c0-0.4-0.3-0.7-0.7-0.7h-5
		C10,6.7,10,6.3,10.1,5.9h5c0.4,0,0.7-0.3,0.7-0.7s-0.3-0.7-0.7-0.7h-4.5c0.4-0.4,0.9-0.6,1.6-0.6h3.5c0.9,0,1.8-0.7,1.9-1.6l0,0
		c0.1-0.6-0.1-1.2-0.4-1.6C16.9,0.3,16.3,0,15.7,0H9.1c-1.6,0-3,1.1-3.4,2.6C4.9,5.5,4.2,12.3,5.1,28c0,0.4,0.4,0.7,0.7,0.6
		c0.4,0,0.7-0.4,0.7-0.7C5.8,15.6,6,7,7.1,3C7.3,2,8.2,1.4,9.1,1.4h6.6c0.2,0,0.4,0.1,0.4,0.2c0.1,0.1,0.2,0.2,0.1,0.5l0,0
		c0,0.3-0.3,0.5-0.6,0.5h-3.5c-1.6,0-3,1-3.3,2.3c-1.4,6.2-1.4,12.6,0,18.8C9.2,25,10.6,26,12.2,26h3.5c0.3,0,0.5,0.2,0.6,0.5l0,0
		c0,0.2-0.1,0.4-0.1,0.5c-0.1,0.1-0.2,0.2-0.4,0.2h-2.3c-1.3,0-2.5,1-2.6,2.4l-0.7,10.1c-0.1,0.7-0.7,1.3-1.4,1.3
		c-0.7,0-1.3-0.5-1.4-1.2c-0.2-2.1-0.5-5.4-0.7-9.2c0-0.4-0.4-0.7-0.7-0.6c-0.4,0-0.7,0.4-0.6,0.7c0.3,3.9,0.5,7.2,0.7,9.3
		c0.1,1.4,1.3,2.5,2.7,2.5c1.4,0,2.6-1.1,2.7-2.6l0.7-10.1c0-0.6,0.6-1.1,1.2-1.1h2.3C16.3,28.5,16.9,28.3,17.2,27.8z"/>
</g>
</svg>