<!-- Generator: Adobe Illustrator 19.2.1, SVG Export Plug-In  -->
<svg version="1.1"
	 xmlns="http://www.w3.org/2000/svg" xmlns:xlink="http://www.w3.org/1999/xlink" xmlns:a="http://ns.adobe.com/AdobeSVGViewerExtensions/3.0/"
	 x="0px" y="0px" width="67.4px" height="67.8px" viewBox="0 0 67.4 67.8"
	 overflow="visible" enable-background="new 0 0 67.4 67.8" xml:space="preserve">
<defs>
</defs>
<g transform="translate(-620 -478)">
	<g transform="translate(620 478)">
		<path fill="#F9A832" d="M52.9,20.8c2.3-1.3,3.4-3.9,5.1-5.9c0.5-0.5,0.9-1,1.3-1.5c0.8-1.4,1.3-3,1.4-4.6c0.1-0.8,0.1-1.7-0.1-2.6
			c-0.4-1.2-1.2-2.2-2.2-3c-0.5-0.5-1-0.8-1.7-1c-0.5,0-1,0-1.4,0.2c-1.6,0.4-3.1,1.2-4.4,2.1C50.5,5,50,5.3,49.5,5.1
			C49.3,5,49.1,4.8,49,4.6c-1-1.2-2.2-2.1-3.6-2.7c-0.7-0.3-1.4-0.5-2.1-0.5c-1,0.1-2,0.5-2.8,1.1c-0.3,0.2-0.5,0.4-0.7,0.7
			c-0.2,0.3-0.4,0.6-0.5,1c-0.5,1.7-0.4,3.4,0.1,5.1c0.5,1.7,1.3,3.2,2.2,4.7c0.4,0.6,0.8,1.2,1.3,1.8c0.6,0.7,1.2,1.3,1.9,1.9
			l4.1,3.8c0.7,0.6,1,1.1,1.9,0.6C51.5,21.6,52.2,21.2,52.9,20.8z"/>
		<g transform="translate(20.821 8.756)">
			<path fill="#F9A832" d="M7.8,4.2c0,0.6-0.5,1-1,1s-1-0.5-1-1c0-0.6,0.5-1,1-1C7.4,3.2,7.8,3.6,7.8,4.2L7.8,4.2z"/>
		</g>
		<g transform="translate(9.47 19.412)">
			<path fill="#F9A832" d="M4.7,8.6c0,0.8-0.7,1.5-1.5,1.5c-0.8,0-1.5-0.7-1.5-1.5c0-0.8,0.7-1.5,1.5-1.5c0,0,0,0,0,0
				C4,7.1,4.7,7.7,4.7,8.6L4.7,8.6z"/>
		</g>
		<g transform="translate(25.102 8.597)">
			<path fill="#F9A832" d="M11.5,5.2c0,1.1-0.9,2.1-2.1,2.1S7.3,6.3,7.3,5.2s0.9-2.1,2.1-2.1S11.5,4.1,11.5,5.2L11.5,5.2z"/>
		</g>
		<g transform="translate(3.28 25.073)">
			<circle fill="#F9A832" cx="0.7" cy="10.4" r="1.3"/>
		</g>
		<g transform="translate(10.612 42.101)">
			<circle fill="#F9A832" cx="3.4" cy="16.6" r="1.3"/>
		</g>
		<g transform="translate(35.474 28.871)">
			<circle fill="#F9A832" cx="12.4" cy="11.8" r="1.3"/>
		</g>
		<g transform="translate(46.109 12.835)">
			<path fill="#F9A832" d="M21.3,7.8c0,1.7-1.4,3.2-3.2,3.2C16.4,11,15,9.6,15,7.8c0-1.7,1.4-3.2,3.2-3.2
				C19.9,4.7,21.3,6.1,21.3,7.8C21.3,7.8,21.3,7.8,21.3,7.8z"/>
		</g>
		
			<ellipse transform="matrix(0.9166 -0.3998 0.3998 0.9166 -20.5808 18.6856)" fill="#F9A832" cx="34.5" cy="58.7" rx="9.4" ry="7.4"/>
		
			<ellipse transform="matrix(0.9166 -0.3998 0.3998 0.9166 -18.4553 7.9151)" fill="#F9A832" cx="9.7" cy="48.2" rx="9.4" ry="7.4"/>
		<g transform="translate(1.304)">
			<path fill="#381C1C" d="M48.7,23.9c-0.3,0-0.7-0.1-0.9-0.4l-8.9-8.6C36,12.4,35,8.4,36.3,4.9C37.3,2,40,0,43,0
				c2.2,0.2,4.2,1.2,5.6,2.9c1.4-1.7,3.4-2.7,5.5-2.9c3,0,5.7,1.9,6.7,4.7c1.4,3.6,0.5,7.6-2.4,10.2l-8.8,8.6
				C49.4,23.7,49.1,23.9,48.7,23.9z M43,2.7c-1.9,0.1-3.6,1.3-4.2,3.1c-0.9,2.5-0.2,5.4,1.9,7.1l8,7.7l7.8-7.7
				c2-1.8,2.7-4.7,1.8-7.2c-0.6-1.8-2.3-3-4.2-3c-1.9,0.3-3.5,1.5-4.3,3.2c-0.2,0.5-0.7,0.7-1.2,0.7c-0.5,0-1-0.3-1.2-0.7
				C46.5,4.2,44.9,3,43,2.7z"/>
			<path fill="#381C1C" d="M55.9,39.1c-0.1,0-0.3,0-0.4-0.1c-0.3-0.1-0.6-0.3-0.8-0.7l-3.4-6.2c-0.8-1.2-0.9-2.7-0.5-4.1
				c0.7-2.6,3.4-4.1,5.9-3.4c1,0.3,1.9,1,2.5,1.8c2.2-1,4.8,0,5.9,2.2c1.2,2.5,0.2,5.6-2.4,6.8c0,0-0.1,0-0.1,0L56.5,39
				C56.3,39.1,56.1,39.1,55.9,39.1z M55.4,27.2c-1,0-1.8,0.7-2.1,1.7c-0.2,0.7-0.1,1.4,0.2,1.9l2.8,5.1l5.1-2.7
				c0.7-0.3,1.2-0.8,1.4-1.5c0.2-0.6,0.1-1.2-0.1-1.7c-0.2-0.5-0.7-0.8-1.2-1l0,0c-0.7-0.2-1.5,0-2,0.5c-0.4,0.3-0.9,0.5-1.3,0.3
				c-0.5-0.1-0.8-0.5-0.9-1c-0.1-0.7-0.7-1.3-1.3-1.5C55.8,27.3,55.6,27.2,55.4,27.2z"/>
			<path fill="#381C1C" d="M6.7,57.3c-2,0-3.9-0.6-5.4-1.8c-1.7-1.4-2.6-3.5-2.6-5.6c0-4.8,4.3-9.5,9.5-10.5c2.6-0.6,5.3,0,7.4,1.6
				c1.7,1.4,2.6,3.5,2.6,5.6c0,4.8-4.3,9.5-9.5,10.5C8,57.2,7.4,57.3,6.7,57.3z M10.2,41.8c-0.5,0-1,0.1-1.5,0.1l0,0
				c-4,0.8-7.3,4.3-7.3,7.9c0,1.4,0.6,2.7,1.6,3.6c1.5,1.1,3.4,1.5,5.2,1.1c4-0.8,7.3-4.3,7.3-7.9c0-1.4-0.6-2.7-1.6-3.6
				C12.8,42.2,11.5,41.8,10.2,41.8L10.2,41.8z M8.4,40.6"/>
			<path fill="#381C1C" d="M16.4,48.4c-0.7,0-1.3-0.6-1.3-1.3V13.7c0-0.7,0.6-1.3,1.3-1.3c0.7,0,1.3,0.6,1.3,1.3v33.4
				C17.7,47.8,17.1,48.4,16.4,48.4z"/>
			<path fill="#381C1C" d="M31.5,67.8c-2,0-3.9-0.6-5.4-1.8c-1.7-1.4-2.6-3.5-2.6-5.6c0-4.8,4.3-9.5,9.5-10.5l0,0
				c2.6-0.6,5.3,0,7.4,1.6c1.7,1.4,2.6,3.5,2.6,5.6c0,4.8-4.3,9.5-9.5,10.5C32.8,67.7,32.1,67.8,31.5,67.8z M35,52.3
				c-0.5,0-1,0.1-1.5,0.1l0,0c-4,0.8-7.3,4.3-7.3,7.9c0,1.4,0.6,2.7,1.6,3.6c1.5,1.1,3.4,1.5,5.2,1.1c4-0.8,7.3-4.3,7.3-7.9
				c0-1.4-0.6-2.7-1.6-3.6C37.6,52.7,36.3,52.2,35,52.3L35,52.3z M33.2,51.1"/>
			<path fill="#381C1C" d="M41.3,58.9c-0.7,0-1.3-0.6-1.3-1.3V24.2c0-0.7,0.6-1.3,1.3-1.3c0.7,0,1.3,0.6,1.3,1.3v33.4
				C42.7,58.3,42.1,58.9,41.3,58.9L41.3,58.9z"/>
			<path fill="#381C1C" d="M41.7,25.6c-0.2,0-0.3,0-0.5-0.1L15.6,15c-0.7-0.3-1-1.1-0.7-1.8c0.3-0.7,1.1-1,1.8-0.7L42.2,23
				c0.7,0.3,1,1.1,0.7,1.8C42.8,25.2,42.3,25.6,41.7,25.6L41.7,25.6z"/>
			<path fill="#381C1C" d="M41.7,35.8c-0.2,0-0.3,0-0.5-0.1L15.6,25.2c-0.7-0.3-1.1-1-0.8-1.7c0.3-0.7,1-1.1,1.7-0.8
				c0,0,0.1,0,0.1,0l25.6,10.5c0.7,0.3,1,1.1,0.7,1.8C42.7,35.5,42.3,35.8,41.7,35.8L41.7,35.8z"/>
		</g>
	</g>
</g>
</svg>
