<!-- Generator: Adobe Illustrator 19.2.1, SVG Export Plug-In  -->
<svg version="1.1"
	 xmlns="http://www.w3.org/2000/svg" xmlns:xlink="http://www.w3.org/1999/xlink" xmlns:a="http://ns.adobe.com/AdobeSVGViewerExtensions/3.0/"
	 x="0px" y="0px" width="34.6px" height="30.5px" viewBox="0 0 34.6 30.5" enable-background="new 0 0 34.6 30.5"
	 xml:space="preserve">
<defs>
</defs>
<path fill="#381C1C" d="M17.3,30.5c-0.2,0-0.4-0.1-0.6-0.3L0.1,8.3C0,8.1,0,7.8,0.1,7.5s0.4-0.4,0.6-0.4h33.2c0.3,0,0.5,0.2,0.6,0.4
	c0.1,0.2,0.1,0.5-0.1,0.8L17.9,30.2C17.8,30.4,17.5,30.5,17.3,30.5L17.3,30.5z M2.2,8.6l15.1,20l15.1-20H2.2z"/>
<path fill="#381C1C" d="M17.3,29.7C17.3,29.7,17.3,29.7,17.3,29.7C17.3,29.7,17.3,29.7,17.3,29.7c-0.4,0-0.7-0.2-0.8-0.6l-0.4-1.6
	L11,8c-0.1-0.2,0-0.4,0.1-0.6s0.3-0.3,0.6-0.3h0.8c0.4,0,0.7,0.3,0.7,0.7c0,0.3-0.2,0.6-0.6,0.7l4.7,17.5l4.9-18.4
	c0.1-0.4,0.5-0.6,0.9-0.5c0.4,0.1,0.6,0.5,0.5,0.9l-5.2,19.6L18,29.1C18,29.5,17.7,29.7,17.3,29.7C17.3,29.7,17.3,29.7,17.3,29.7z"
	/>
<path fill="#381C1C" d="M33.9,8.3c-0.3,0-0.5-0.2-0.7-0.4l-3-6.4H4.8L1.4,7.9c-0.2,0.4-0.6,0.5-1,0.3C0,8-0.1,7.6,0.1,7.2l3.7-6.9
	C3.9,0.1,4.1,0,4.4,0h26.3c0.3,0,0.5,0.2,0.7,0.4l3.2,6.9c0.2,0.4,0,0.8-0.4,1C34.1,8.3,34,8.3,33.9,8.3z"/>
<path fill="#381C1C" d="M11.8,8.5L11.8,8.5c-0.4,0-0.6-0.3-0.8-0.5c0-0.1-0.1-0.1-0.2-0.2c0-0.1-0.1-0.1-0.1-0.2L7.7,1
	c-0.2-0.4,0-0.8,0.4-1c0.4-0.2,0.8,0,1,0.4l2.7,6.1l2.7-6.1c0.2-0.4,0.6-0.5,1-0.4c0.4,0.2,0.5,0.6,0.4,1l-2.9,6.6
	c0,0.1-0.1,0.1-0.1,0.2c-0.1,0.1-0.1,0.2-0.2,0.2C12.4,8.2,12.2,8.5,11.8,8.5z"/>
<path fill="#381C1C" d="M22.9,8.5c-0.4,0-0.6-0.3-0.8-0.5C22,7.9,22,7.9,21.9,7.8c0-0.1-0.1-0.1-0.1-0.2L18.8,1
	c-0.2-0.4,0-0.8,0.4-1c0.4-0.2,0.8,0,1,0.4l2.7,6.1l2.7-6.1c0.2-0.4,0.6-0.5,1-0.4c0.4,0.2,0.5,0.6,0.4,1l-2.9,6.6
	c0,0.1-0.1,0.1-0.1,0.2c-0.1,0.1-0.1,0.2-0.2,0.2C23.5,8.2,23.2,8.5,22.9,8.5z"/>
</svg>
