<!-- Generator: Adobe Illustrator 19.2.1, SVG Export Plug-In  -->
<svg version="1.1"
	 xmlns="http://www.w3.org/2000/svg" xmlns:xlink="http://www.w3.org/1999/xlink" xmlns:a="http://ns.adobe.com/AdobeSVGViewerExtensions/3.0/"
	 x="0px" y="0px" width="30.6px" height="35.2px" viewBox="0 0 30.6 35.2"
	 overflow="visible" enable-background="new 0 0 30.6 35.2" xml:space="preserve">
<defs>
</defs>
<path fill="#381C1C" d="M12.8,35.2H1.3c-0.4,0-0.7-0.3-0.7-0.7s0.3-0.7,0.7-0.7h11.5c0.4,0,0.7,0.3,0.7,0.7S13.1,35.2,12.8,35.2z"/>
<path fill="#381C1C" d="M29.4,35.2H17.9c-0.4,0-0.7-0.3-0.7-0.7s0.3-0.7,0.7-0.7h11.5c0.4,0,0.7,0.3,0.7,0.7S29.8,35.2,29.4,35.2z"
	/>
<path fill="#381C1C" d="M7,24.5c-1.9,0-3.7-0.8-5-2.2c-1.3-1.4-2.1-3.2-2-5.1L0.5,0.7C0.5,0.3,0.8,0,1.2,0h11.6
	c0.4,0,0.7,0.3,0.7,0.7L14,17.2c0.1,1.9-0.7,3.7-2,5.1C10.7,23.7,8.9,24.5,7,24.5z M1.9,1.4L1.4,17.3c0,1.5,0.5,3,1.6,4.1
	c1.1,1.1,2.5,1.7,4,1.7c1.5,0,2.9-0.6,4-1.7c1.1-1.1,1.6-2.5,1.6-4.1L12.1,1.4H1.9z"/>
<path fill="#381C1C" d="M6.7,22.2c-0.4,0-0.7-0.3-0.7-0.7s0.3-0.7,0.7-0.7c0.9,0,1.8-0.4,2.5-1.1c0.7-0.7,1.1-1.7,1.1-2.6L10,11
	c0-0.4,0.3-0.7,0.7-0.8c0.4,0,0.7,0.3,0.8,0.7l0.3,6.1c0.1,1.3-0.5,2.6-1.5,3.7C9.3,21.6,8.1,22.2,6.7,22.2z"/>
<path fill="#381C1C" d="M13,7.7H1c-0.4,0-0.7-0.3-0.7-0.7S0.6,6.2,1,6.2h12c0.4,0,0.7,0.3,0.7,0.7S13.4,7.7,13,7.7z"/>
<path fill="#381C1C" d="M7,34.7c-0.4,0-0.7-0.3-0.7-0.7V23.8c0-0.4,0.3-0.7,0.7-0.7s0.7,0.3,0.7,0.7V34C7.7,34.4,7.4,34.7,7,34.7z"
	/>
<path fill="#381C1C" d="M23.6,24.5c-1.9,0-3.7-0.8-5-2.2c-1.3-1.4-2.1-3.2-2-5.1l0.5-16.6c0-0.4,0.3-0.7,0.7-0.7h11.6
	c0.4,0,0.7,0.3,0.7,0.7l0.5,16.6c0.1,1.9-0.7,3.7-2,5.1C27.3,23.7,25.5,24.5,23.6,24.5z M18.5,1.4L18,17.3c0,1.5,0.5,3,1.6,4.1
	c1.1,1.1,2.5,1.7,4,1.7s2.9-0.6,4-1.7c1.1-1.1,1.6-2.5,1.6-4.1L28.7,1.4H18.5z"/>
<path fill="#381C1C" d="M23.3,22.2c-0.4,0-0.7-0.3-0.7-0.7s0.3-0.7,0.7-0.7c0.9,0,1.8-0.4,2.5-1.1c0.7-0.7,1.1-1.7,1.1-2.6L26.6,11
	c0-0.4,0.3-0.7,0.7-0.8c0.4,0,0.7,0.3,0.8,0.7l0.3,6.1c0.1,1.3-0.5,2.6-1.5,3.7C25.9,21.6,24.7,22.2,23.3,22.2z"/>
<path fill="#381C1C" d="M29.6,7.7h-12c-0.4,0-0.7-0.3-0.7-0.7s0.3-0.7,0.7-0.7h12c0.4,0,0.7,0.3,0.7,0.7S30,7.7,29.6,7.7z"/>
<path fill="#381C1C" d="M23.6,34.7c-0.4,0-0.7-0.3-0.7-0.7V23.8c0-0.4,0.3-0.7,0.7-0.7s0.7,0.3,0.7,0.7V34
	C24.3,34.4,24,34.7,23.6,34.7z"/>
</svg>