<!-- Generator: Adobe Illustrator 19.2.1, SVG Export Plug-In  -->
<svg version="1.1"
	 xmlns="http://www.w3.org/2000/svg" xmlns:xlink="http://www.w3.org/1999/xlink" xmlns:a="http://ns.adobe.com/AdobeSVGViewerExtensions/3.0/"
	 x="0px" y="0px" width="34.4px" height="35.9px" viewBox="0 0 34.4 35.9"
	 overflow="visible" enable-background="new 0 0 34.4 35.9" xml:space="preserve">
<defs>
</defs>
<path fill="#381C1C" d="M29.4,35.5c-0.4,0-0.7-0.3-0.7-0.7v-2.3c0-0.3,0.2-0.6,0.5-0.7c0.2-0.1,0.9-0.2,1.2-0.4
	c0.3-0.2,0.8-0.1,1,0.2s0.1,0.8-0.2,1c-0.3,0.2-0.7,0.4-1.1,0.5v1.7C30.1,35.2,29.8,35.5,29.4,35.5z"/>
<path fill="#381C1C" d="M20,32.6c-0.8,0-1.4-0.6-1.4-1.4c0-0.8,0.6-1.4,1.4-1.4c0.8,0,1.4,0.6,1.4,1.4C21.4,32,20.8,32.6,20,32.6z
	 M20,30.5v0.7c0,0,0,0,0,0L20,30.5z"/>
<path fill="#381C1C" d="M22.6,27.5c-0.4,0-0.7-0.3-0.7-0.7l-0.1-2.2c0-0.2,0.1-0.4,0.2-0.5s0.3-0.2,0.5-0.2l7.8-0.2
	c0.3,0,0.7,0.3,0.7,0.7c0,0.4-0.3,0.7-0.7,0.7l-7,0.2l0.1,1.5C23.3,27.2,23,27.5,22.6,27.5C22.6,27.5,22.6,27.5,22.6,27.5z"/>
<path fill="#381C1C" d="M10.6,35.5c-0.4,0-0.7-0.3-0.7-0.7V28c0-0.7,0.6-1.3,1.3-1.3h17.7c0.7,0,1.3,0.6,1.3,1.3v4.5
	c0,0.4-0.3,0.7-0.7,0.7s-0.7-0.3-0.7-0.7v-4.3H11.3v6.6C11.3,35.2,11,35.5,10.6,35.5z"/>
<path fill="#381C1C" d="M31.2,35.9H8.8c-0.4,0-0.7-0.3-0.7-0.7s0.3-0.7,0.7-0.7h22.4c0.4,0,0.7,0.3,0.7,0.7S31.6,35.9,31.2,35.9z"/>
<path fill="#381C1C" d="M30.8,32.7c-0.2,0-0.5-0.1-0.6-0.3c-0.2-0.3-0.1-0.8,0.2-1c1.3-0.9,1.3-2.2,1.2-4.2c0-0.5,0-0.9,0-1.4
	c0-0.4,0.3-0.7,0.7-0.7s0.7,0.3,0.7,0.7c0,0.4,0,0.9,0,1.3c0.1,2,0.2,4-1.9,5.5C31.1,32.6,31,32.7,30.8,32.7z"/>
<path fill="#381C1C" d="M32.1,22.9c-0.1,0-0.2,0-0.2,0c-1-0.3-3.1-1.1-4-1.6c-3.5-1.7-10.6-10.9-12.2-14.6c-0.2-0.4,0-0.8,0.4-0.9
	c0.4-0.2,0.8,0,0.9,0.4c1.5,3.5,8.3,12.3,11.5,13.9c0.9,0.4,2.9,1.2,3.9,1.5c0.4,0.1,0.6,0.5,0.5,0.9C32.7,22.8,32.4,22.9,32.1,22.9
	z"/>
<path fill="#381C1C" d="M9.3,25.4c-0.3,0-0.5-0.2-0.6-0.4c-0.2-0.4,0-0.8,0.3-1c5.2-2.5,14-4.8,19.3-4.1c0.4,0,0.7,0.4,0.6,0.8
	c0,0.4-0.4,0.7-0.8,0.6c-5.1-0.6-13.6,1.6-18.6,4C9.5,25.4,9.4,25.4,9.3,25.4z"/>
<path fill="#381C1C" d="M3.9,28c-0.2,0-0.3,0-0.5-0.1c-0.8-0.3-1.2-1.2-1.1-2.3c-0.2,0-0.4,0-0.6,0c-0.3-0.1-0.9-0.3-1.2-1.1
	c-0.3-0.9-0.1-2.3,0.4-3.6c0,0-0.1,0-0.1-0.1c-0.6-0.4-0.9-1.3-0.8-2.4c0.1-1.4,0.8-2.8,1.6-3.7c-0.4-0.8-0.4-2.1,0.1-3.5
	C2.3,9.8,3.2,8.8,4,8.5c0-1.2,0.4-2.7,1.2-3.7c0.7-0.9,1.5-1.4,2.2-1.3c0.1,0,0.1,0,0.2,0c0.4-1.2,1.2-2.4,2.1-2.9
	c0.6-0.3,1.2-0.3,1.7,0c0.2,0.1,0.3,0.3,0.4,0.4c0.7-0.8,1.6-1.2,2.3-0.9c0.8,0.3,1.2,1.2,1.1,2.3c0.2,0,0.4,0,0.6,0
	c0.3,0.1,0.9,0.3,1.2,1.1c0.3,0.9,0.1,2.3-0.4,3.6c0,0,0.1,0,0.1,0.1c0.6,0.4,0.9,1.3,0.8,2.4c-0.1,1.4-0.8,2.8-1.6,3.7
	c0.4,0.8,0.4,2.1-0.1,3.5c-0.5,1.4-1.4,2.4-2.3,2.7c0,1.2-0.4,2.7-1.2,3.7c-0.7,0.9-1.5,1.4-2.2,1.3c-0.1,0-0.1,0-0.2,0
	c-0.4,1.2-1.2,2.4-2.1,2.9l0,0c-0.6,0.3-1.2,0.3-1.7,0c-0.2-0.1-0.3-0.3-0.4-0.4C5.2,27.6,4.5,28,3.9,28z M7.5,26.7L7.5,26.7
	L7.5,26.7z M3.4,23.2c0.1,0,0.2,0,0.4,0.1C4,23.5,4.2,23.9,4,24.2c-0.5,1.4-0.2,2.3-0.1,2.3c0.1,0,0.9-0.4,1.5-1.8
	c0.1-0.3,0.5-0.5,0.8-0.4c0.3,0.1,0.6,0.4,0.6,0.8c-0.1,0.7,0.1,1,0.2,1.1c0,0,0.1,0,0.2-0.1c0.8-0.4,1.5-2,1.7-3
	c0-0.3,0.3-0.6,0.6-0.6c0.3,0,0.6,0.1,0.8,0.5c0,0.1,0.1,0.2,0.1,0.2c0,0,0.4-0.1,0.9-0.7c0.8-1.1,1.1-2.6,0.9-3.3
	c-0.1-0.3,0-0.5,0.2-0.7c0.2-0.2,0.5-0.3,0.7-0.2c0.2,0,1-0.5,1.5-1.9c0.5-1.4,0.3-2.3,0.1-2.4c-0.2-0.1-0.4-0.4-0.4-0.6
	c0-0.3,0.1-0.5,0.3-0.6c0.7-0.4,1.4-1.7,1.6-3.1C16.2,8.7,16,8.4,16,8.4c0,0-0.1,0-0.2,0c-0.3,0.1-0.6,0.1-0.9-0.2
	c-0.2-0.3-0.2-0.6,0-0.9C15.7,6.2,16,4.7,15.8,4c0-0.1-0.1-0.2-0.1-0.2c-0.1,0-0.4,0.1-0.8,0.6c-0.2,0.3-0.6,0.4-0.9,0.2
	c-0.3-0.2-0.4-0.5-0.3-0.9c0.5-1.4,0.2-2.3,0.1-2.3c-0.2,0-0.9,0.4-1.5,1.8c-0.1,0.3-0.5,0.5-0.8,0.4c-0.3-0.1-0.6-0.4-0.6-0.8
	c0.1-0.7-0.1-1-0.2-1.1c0,0-0.1,0-0.2,0.1c-0.8,0.4-1.5,2-1.7,3c0,0.3-0.3,0.6-0.6,0.6c-0.3,0-0.6-0.1-0.8-0.5
	c0-0.1-0.1-0.2-0.1-0.2c0,0-0.4,0.1-0.9,0.7C5.6,6.7,5.3,8.2,5.5,8.9c0.1,0.3,0,0.5-0.2,0.7C5.1,9.8,4.9,9.9,4.6,9.8
	c-0.2-0.1-1,0.5-1.5,1.9C2.6,13.1,2.8,14,3,14.1c0.2,0.1,0.4,0.4,0.4,0.6c0,0.3-0.1,0.5-0.3,0.6c-0.7,0.4-1.4,1.7-1.6,3.1
	c-0.1,0.8,0.1,1.1,0.2,1.1c0,0,0.1,0,0.2,0c0.3-0.1,0.6-0.1,0.9,0.2c0.2,0.3,0.2,0.6,0,0.9c-0.8,1.1-1.1,2.6-0.8,3.3
	c0,0.1,0.1,0.2,0.1,0.2c0.1,0,0.4-0.1,0.8-0.6C2.9,23.3,3.1,23.2,3.4,23.2z"/>
<path fill="#381C1C" d="M32.1,26.1c-1.3,0-2.3-1-2.3-2.3s1-2.3,2.3-2.3s2.3,1,2.3,2.3S33.4,26.1,32.1,26.1z M32.1,22.9
	c-0.5,0-0.8,0.4-0.8,0.8s0.4,0.8,0.8,0.8s0.8-0.4,0.8-0.8S32.6,22.9,32.1,22.9z"/>
<path fill="#381C1C" d="M14.9,14.1c-0.1,0-0.2,0-0.3-0.1c-2-1-4.5-3.4-5.4-4.9C9,8.7,9.1,8.3,9.4,8.1c0.3-0.2,0.8-0.1,1,0.2
	c0.8,1.3,3.1,3.5,4.9,4.4c0.4,0.2,0.5,0.6,0.3,1C15.4,13.9,15.2,14.1,14.9,14.1z"/>
<path fill="#381C1C" d="M14.3,16c-0.1,0-0.2,0-0.3-0.1c-1.9-0.9-4.7-2.5-5.9-3.4c-0.3-0.2-0.4-0.7-0.2-1c0.2-0.3,0.7-0.4,1-0.2
	c1.1,0.8,3.8,2.4,5.6,3.2c0.4,0.2,0.5,0.6,0.4,1C14.9,15.8,14.6,16,14.3,16z"/>
<path fill="#381C1C" d="M13.7,17.9c-0.1,0-0.2,0-0.3-0.1c-1.9-0.8-4.9-1.6-6.2-1.9c-0.4-0.1-0.6-0.4-0.6-0.8
	c0.1-0.4,0.4-0.6,0.8-0.6c1.4,0.3,4.5,1.2,6.5,2c0.4,0.2,0.5,0.6,0.4,0.9C14.3,17.7,14,17.9,13.7,17.9z"/>
<path fill="#381C1C" d="M13.1,19.8c-0.1,0-0.2,0-0.2,0c-1.8-0.7-5-0.8-6.6-0.5c-0.4,0.1-0.8-0.2-0.8-0.6c-0.1-0.4,0.2-0.8,0.6-0.8
	c1.7-0.3,5.2-0.2,7.3,0.6c0.4,0.1,0.6,0.5,0.4,0.9C13.7,19.6,13.4,19.8,13.1,19.8z"/>
</svg>
