<!-- Generator: Adobe Illustrator 19.2.1, SVG Export Plug-In  -->
<svg version="1.1"
	 xmlns="http://www.w3.org/2000/svg" xmlns:xlink="http://www.w3.org/1999/xlink" xmlns:a="http://ns.adobe.com/AdobeSVGViewerExtensions/3.0/"
	 x="0px" y="0px" width="44.3px" height="43px" viewBox="0 0 44.3 43" overflow="visible" enable-background="new 0 0 44.3 43"
	 xml:space="preserve">
<defs>
</defs>
<path fill="#F9A832" d="M36.5,29.1v11.4c0,1-0.8,1.8-1.8,1.8H9.6c-1,0-1.8-0.8-1.8-1.8V29.1H36.5z"/>
<path fill="#F9A832" d="M36.5,7v12.9H7.8V7c0-1,0.8-1.8,1.8-1.8h25.1C35.7,5.2,36.5,6,36.5,7z"/>
<rect x="10.5" y="29.1" fill="#FFFFFF" width="23.3" height="9.6"/>
<rect x="10.5" y="9" fill="#FFFFFF" width="23.3" height="10.9"/>
<circle fill="#F9A832" cx="19" cy="2.4" r="0.7"/>
<circle fill="#F9A832" cx="3.5" cy="1.7" r="1"/>
<circle fill="#F9A832" cx="30.4" cy="1.3" r="1.3"/>
<circle fill="#F9A832" cx="4.1" cy="12.4" r="1.7"/>
<circle fill="#F9A832" cx="41.3" cy="8.9" r="1.7"/>
<path fill="#FFFFFF" d="M43.6,22v4.9c0,0.2-0.2,0.4-0.4,0.4H5.3c-0.1,0-0.1,0-0.2,0l-4-2.5c-0.3-0.1-0.3-0.5,0-0.7l4-2.5
	c0,0,0.1,0,0.2,0h37.9C43.4,21.7,43.6,21.8,43.6,22z"/>
<g>
	<path fill="#381C1C" d="M7.1,19.9V7c0-1.4,1.1-2.5,2.5-2.5h1.8V6H9.6c-0.6,0-1,0.5-1,1v12.9H7.1z"/>
	<path fill="#381C1C" d="M37.2,29.1v11.4c0,1.4-1.1,2.5-2.5,2.5H9.6c-1.4,0-2.5-1.1-2.5-2.5V29.1h1.5v11.4c0,0.6,0.5,1,1,1h25.1
		c0.6,0,1-0.5,1-1V29.1H37.2z"/>
	<path fill="#381C1C" d="M37.2,7v12.9h-1.5V7c0-0.6-0.5-1-1-1H18.5V4.5h16.2C36.1,4.5,37.2,5.6,37.2,7z"/>
	<rect id="XMLID_13_" x="13.6" y="4.5" fill="#381C1C" width="3.2" height="1.5"/>
	<rect id="XMLID_12_" x="18.9" y="6.5" fill="#381C1C" width="6.5" height="1.5"/>
	<rect id="XMLID_11_" x="12.2" y="11.3" fill="#381C1C" width="19.7" height="1.5"/>
	<rect id="XMLID_10_" x="12.2" y="14.8" fill="#381C1C" width="19.7" height="1.5"/>
	<rect id="XMLID_9_" x="12.2" y="18.3" fill="#381C1C" width="19.7" height="1.5"/>
	<rect x="12.3" y="29.1" fill="#381C1C" width="19.7" height="1.1"/>
	<rect id="XMLID_8_" x="12.2" y="32.1" fill="#381C1C" width="19.7" height="1.5"/>
	<rect id="XMLID_7_" x="12.2" y="35.6" fill="#381C1C" width="19.7" height="1.5"/>
	<rect id="XMLID_6_" x="21" y="39.5" fill="#381C1C" width="2.3" height="1.5"/>
	<path id="XMLID_3_" fill="#381C1C" d="M44.3,28.1H5l-4.5-2.7C0.2,25.2,0,24.9,0,24.5c0-0.4,0.2-0.7,0.6-0.9L5,20.9h39.3V28.1z
		 M5.4,26.6h37.4v-4.1H5.4L2,24.5L5.4,26.6z"/>
	<rect id="XMLID_2_" x="5.8" y="21.7" fill="#381C1C" width="1.5" height="5.7"/>
	<rect id="XMLID_1_" x="39.2" y="21.4" fill="#381C1C" width="1.5" height="6.1"/>
</g>
</svg>
