<!-- Generator: Adobe Illustrator 19.2.1, SVG Export Plug-In  -->
<svg version="1.1"
	 xmlns="http://www.w3.org/2000/svg" xmlns:xlink="http://www.w3.org/1999/xlink" xmlns:a="http://ns.adobe.com/AdobeSVGViewerExtensions/3.0/"
	 x="0px" y="0px" width="31.4px" height="37px" viewBox="0 0 31.4 37" overflow="scroll" enable-background="new 0 0 31.4 37"
	 xml:space="preserve">
<defs>
</defs>
<path fill="#381C1C" d="M15.9,37c-0.2,0-0.4-0.1-0.5-0.2L3.8,25.6c-3.5-3.1-4.7-7.8-3.1-12C2,10.2,5,8,8.5,8c2.7,0,5.6,2.1,7.2,4.4
	c1.6-2.3,4.5-4.4,7.2-4.4c3.4,0,6.4,2.1,7.8,5.5c1.3,3.2,1.3,8.1-2.8,12.1L16.4,36.8C16.3,37,16.1,37,15.9,37z M8.5,9.5
	c-2.8,0-5.3,1.8-6.4,4.7C0.9,17,1.1,21.3,4.8,24.6l11.1,10.7l10.9-10.7c3.6-3.5,3.7-7.8,2.5-10.6c-1.2-2.8-3.6-4.6-6.5-4.6
	c-2.5,0-5.4,2.4-6.5,4.7c-0.1,0.2-0.4,0.4-0.6,0.4c0,0,0,0,0,0c-0.3,0-0.5-0.2-0.6-0.4C13.9,11.9,11,9.5,8.5,9.5z"/>
<path fill="#381C1C" d="M25.7,9.4c-0.4,0-0.7-0.3-0.7-0.7c0-2.8-1.5-4.5-2.8-5.4c-1.7-1.2-4-1.9-6.5-1.9c-4.5,0-9.3,2.3-9.3,7.3
	c0,0.4-0.3,0.7-0.7,0.7S5,9.1,5,8.7C5,2.7,10.5,0,15.7,0c5.2,0,10.8,2.7,10.8,8.7C26.5,9.1,26.1,9.4,25.7,9.4z"/>
<path fill="#381C1C" d="M17.4,27.5H14c-0.2,0-0.4-0.1-0.5-0.2s-0.2-0.4-0.2-0.6l0.5-4c-0.8-0.6-1.3-1.6-1.3-2.6
	c0-1.8,1.5-3.3,3.3-3.3s3.3,1.5,3.3,3.3c0,1.1-0.5,2-1.3,2.6l0.5,4c0,0.2,0,0.4-0.2,0.6S17.7,27.5,17.4,27.5z M14.8,26h1.8l-0.5-3.6
	c0-0.3,0.1-0.6,0.4-0.7c0.6-0.3,1-0.9,1-1.6c0-1-0.8-1.8-1.8-1.8s-1.8,0.8-1.8,1.8c0,0.7,0.4,1.3,1,1.6c0.3,0.1,0.4,0.4,0.4,0.7
	L14.8,26z"/>
<path fill="#381C1C" d="M23,9.4c-0.4,0-0.7-0.3-0.7-0.7c0-1.4-0.6-2.5-1.9-3.3c-1.2-0.8-2.8-1.2-4.6-1.2c-3.1,0-6.5,1.4-6.5,4.5
	c0,0.4-0.3,0.7-0.7,0.7S7.9,9.1,7.9,8.7c0-1.9,0.9-3.5,2.6-4.6c1.4-0.9,3.3-1.4,5.3-1.4c3.8,0,7.9,1.9,7.9,6
	C23.7,9.1,23.4,9.4,23,9.4z"/>
</svg>