<!-- Generator: Adobe Illustrator 19.2.1, SVG Export Plug-In  -->
<svg version="1.1"
	 xmlns="http://www.w3.org/2000/svg" xmlns:xlink="http://www.w3.org/1999/xlink" xmlns:a="http://ns.adobe.com/AdobeSVGViewerExtensions/3.0/"
	 x="0px" y="0px" width="34.3px" height="34.3px" viewBox="0 0 34.3 34.3"
	 overflow="visible" enable-background="new 0 0 34.3 34.3" xml:space="preserve">
<defs>
</defs>
<g>
	<path fill="#F9A832" d="M13.7,17.7c0.6-0.2,1.2-0.3,1.8-0.2c0.6,0,1.3-0.1,1.9-0.2c0.3-0.1,0.6-0.1,0.9-0.1c0.2,0,0.4,0.1,0.6,0.2
		c0.9,0.3,1.6,0.8,2.3,1.4c1,1.2,0.9,3.1-0.3,4.1c-0.1,0-0.1,0.1-0.2,0.1c-0.3,0.2-0.6,0.4-0.9,0.6c-0.2,0.2-0.4,0.4-0.6,0.6
		c-0.5,0.5-1.1,0.9-1.7,1.2c-0.2,0.1-0.4,0.1-0.6,0.1c-0.2-0.1-0.4-0.2-0.5-0.3c-1.4-1.2-2.7-2.6-3.9-4c-0.7-0.8-0.2-1,0.2-1.8
		C12.8,18.6,13.2,18.1,13.7,17.7z"/>
	<g transform="translate(16.592)">
		<path fill="#F9A832" d="M8,0.5c0,0.3-0.2,0.5-0.5,0.5c-0.3,0-0.5-0.2-0.5-0.5S7.1,0,7.4,0C7.7,0,8,0.2,8,0.5z"/>
	</g>
	<g transform="translate(20.309 20.958)">
		<path fill="#F9A832" d="M9.5,9.3c0,0.3-0.2,0.5-0.5,0.5c-0.3,0-0.5-0.2-0.5-0.5C8.5,9,8.7,8.7,9,8.7l0,0C9.3,8.7,9.5,9,9.5,9.3z"
			/>
	</g>
	<g transform="translate(6.133 0.117)">
		<path fill="#F9A832" d="M4.2,0.9c0,0.4-0.4,0.8-0.8,0.8S2.5,1.3,2.5,0.9S2.9,0,3.4,0l0,0C3.8,0,4.2,0.4,4.2,0.9z"/>
	</g>
	<g transform="translate(21.146 3.954)">
		<path fill="#F9A832" d="M11,2.7c0,0.6-0.5,1.1-1.1,1.1c-0.6,0-1.1-0.5-1.1-1.1c0-0.6,0.5-1.1,1.1-1.1C10.5,1.6,11,2.1,11,2.7
			L11,2.7z"/>
	</g>
	<g transform="translate(0.344 16.829)">
		<path fill="#F9A832" d="M2.3,8.1c0,0.6-0.5,1.1-1.1,1.1c-0.6,0-1.1-0.5-1.1-1.1C0.1,7.5,0.6,7,1.2,7S2.3,7.5,2.3,8.1
			C2.3,8.1,2.3,8.1,2.3,8.1z"/>
	</g>
	<g transform="translate(3.012 2.983)">
		<circle fill="#F9A832" cx="1.9" cy="1.9" r="0.7"/>
	</g>
	<g transform="translate(18.804 0.209)">
		<path fill="#F9A832" d="M11.1,1.7c0,0.9-0.7,1.7-1.7,1.7c-0.9,0-1.7-0.7-1.7-1.7c0-0.9,0.7-1.7,1.7-1.7S11.1,0.8,11.1,1.7
			L11.1,1.7z"/>
	</g>
	<circle fill="#F9A832" cx="9.2" cy="8.1" r="1.4"/>
	<circle fill="#F9A832" cx="12" cy="10.3" r="1.4"/>
	<circle fill="#F9A832" cx="15.2" cy="11.4" r="1.4"/>
	<circle fill="#F9A832" cx="18.8" cy="11.5" r="1.4"/>
	<circle fill="#F9A832" cx="22.1" cy="10.3" r="1.4"/>
	<circle fill="#F9A832" cx="25.1" cy="8.1" r="1.4"/>
	<path fill="#381C1C" d="M33.9,9.8c-0.3-0.4-0.7-0.7-1.2-0.7c-1.9-0.2-3.8-0.9-5.5-2c-0.4-0.7-1-1.3-1.8-1.4
		c-0.5-0.4-0.8-0.9-1.1-1.4C24,3.5,23.6,2.8,23,2.2C22.1,0.9,19.8,0,17.1,0s-5,0.9-5.9,2.2c-0.6,0.6-1,1.3-1.3,2.1
		c0,0-0.3,0.5-0.4,0.6c0,0-0.1,0.1-0.1,0.2C9.3,5.3,9.2,5.4,9.1,5.5L8.8,5.8C8,5.9,7.3,6.4,7,7.2C6.5,7.4,6,7.7,5.6,7.9
		c0,0-0.1,0-0.1,0L5.3,8C4.9,8.2,4.5,8.3,4.1,8.5C3.7,8.6,3.4,8.7,3,8.8L2.4,8.9C2.2,9,1.9,9,1.6,9C1.1,9.1,0.6,9.4,0.3,9.8
		c-0.3,0.4-0.4,1-0.3,1.5c1.3,5.4,6.5,23,17,23h0.1c10.6,0,15.7-17.6,17.1-23C34.3,10.7,34.2,10.2,33.9,9.8z M25.1,7
		c0.6,0,1,0.5,1,1c0,0.6-0.5,1-1,1c-0.6,0-1-0.5-1-1C24,7.5,24.5,7,25.1,7z M17.1,1.3c2.9,0,5,1.1,5,2.2s-2.1,2.2-5,2.2
		s-5-1.1-5-2.2S14.2,1.3,17.1,1.3L17.1,1.3z M10.6,5.8c0.1-0.1,0.2-0.3,0.3-0.4L11,5.2c0-0.1,0.1-0.1,0.1-0.2l0.1-0.2L11.3,5
		c3.4,2.7,8.2,2.7,11.6,0L23,4.8L23.2,5c0.2,0.3,0.3,0.6,0.6,0.9L23.8,6l-0.1,0.1c-0.6,0.4-0.9,1-1,1.7l0,0.2l-0.2,0
		c-0.1,0-0.2,0-0.4,0c-0.9,0-1.7,0.5-2.1,1.3L20,9.4l-0.1-0.1c-0.9-0.5-2-0.3-2.7,0.4l-0.1,0.1L17,9.7c-0.4-0.4-1-0.6-1.6-0.6
		c-0.4,0-0.7,0.1-1.1,0.3l-0.1,0.1l-0.1-0.1C13.7,8.5,12.9,8,12,8c-0.1,0-0.2,0-0.3,0l-0.1,0l0-0.2c-0.1-0.7-0.4-1.3-1-1.7L10.4,6
		L10.6,5.8z M23.3,10.3c0,0.6-0.5,1-1,1.1c-0.6,0-1-0.5-1.1-1c0-0.6,0.5-1,1-1.1c0,0,0,0,0,0C22.8,9.3,23.3,9.7,23.3,10.3
		C23.3,10.3,23.3,10.3,23.3,10.3L23.3,10.3z M19.9,11.5c0,0.6-0.5,1-1,1s-1-0.5-1-1c0-0.6,0.5-1,1-1C19.4,10.4,19.9,10.9,19.9,11.5
		C19.9,11.4,19.9,11.5,19.9,11.5L19.9,11.5z M14.6,18.4h5l1.7,2.1l-4.2,4.4l0,0l-3.6-3.7l-0.7-0.7l0.5-0.6L14.6,18.4z M17.6,17h-0.9
		v-1c0-0.3,0.2-0.5,0.5-0.5c0.3,0,0.5,0.2,0.5,0.5V17z M16.5,11.5c0,0.6-0.5,1-1,1c-0.6,0-1-0.5-1-1c0-0.6,0.5-1,1-1c0,0,0,0,0,0
		C16,10.4,16.5,10.9,16.5,11.5C16.5,11.5,16.5,11.5,16.5,11.5L16.5,11.5z M13.1,10.3c0,0.6-0.5,1-1,1.1c-0.6,0-1-0.5-1.1-1
		c0-0.6,0.5-1,1-1.1c0,0,0,0,0,0C12.6,9.3,13.1,9.7,13.1,10.3C13.1,10.3,13.1,10.3,13.1,10.3L13.1,10.3z M8.2,7.7
		C8.3,7.4,8.6,7.1,9,7h0.3c0.6,0.1,1,0.6,0.9,1.2c0,0.3-0.2,0.5-0.4,0.7C9.6,9.1,9.4,9.1,9.2,9.1C9,9.1,8.7,9.1,8.6,8.9
		C8.2,8.7,8,8.2,8.2,7.7L8.2,7.7z M32.9,10.9c-1.3,5.2-6.1,22-15.8,22c-9.6,0-14.5-16.9-15.8-22c0-0.1,0-0.3,0.1-0.4
		c0.1-0.1,0.2-0.2,0.3-0.2c0.3,0,0.7-0.1,1-0.1c0.2,0,0.4-0.1,0.6-0.1c0.2,0,0.4-0.1,0.7-0.2c0.1,0,0.2-0.1,0.4-0.1l0.3-0.1l0.5-0.2
		c0,0,0.5-0.2,0.7-0.3c0.1,0,0.2-0.1,0.3-0.2C6.3,9,6.5,8.9,6.7,8.8l0.1-0.1l0.1,0.2c0.3,0.9,1.2,1.6,2.2,1.6c0.1,0,0.2,0,0.3,0
		l0.2,0l0,0.2c0.1,1.2,1.1,2.2,2.4,2.2c0.4,0,0.8-0.1,1.1-0.3l0.1-0.1l0.1,0.1c0.4,0.8,1.2,1.3,2.1,1.3c0.3,0,0.6-0.1,0.8-0.2
		l0.2-0.1v0.8l-0.1,0c-0.6,0.3-1,0.9-1,1.6v1h-1c-0.2,0-0.4,0.1-0.5,0.3l-2.2,2.8l-0.1,0.1c-0.1,0.1-0.1,0.2-0.1,0.3
		c0,0,0,0.1,0,0.1c0,0.2,0.1,0.3,0.2,0.5l4.6,4.8c0.2,0.3,0.6,0.5,1,0.5c0.4,0,0.7-0.2,1-0.5l4.6-4.8c0.2-0.2,0.2-0.6,0-0.9
		l-2.3-2.8C20.4,17.1,20.2,17,20,17h-1v-1c0-0.7-0.4-1.3-1-1.6l-0.1,0v-0.8l0.2,0.1c0.3,0.1,0.6,0.2,0.9,0.2c0.9,0,1.7-0.5,2.1-1.3
		l0.1-0.1l0.1,0.1c0.3,0.2,0.7,0.3,1.1,0.3c1.2,0,2.2-0.9,2.4-2.2l0-0.2l0.2,0c0.1,0,0.2,0,0.3,0c1,0,1.9-0.6,2.2-1.6l0-0.2l0.2,0.1
		c1.6,0.8,3.3,1.4,5,1.6c0.1,0,0.2,0.1,0.3,0.2C32.9,10.6,33,10.8,32.9,10.9L32.9,10.9z"/>
	<path fill="#939393" d="M14.6,18.4l-1.2,1.5L14.6,18.4L14.6,18.4z"/>
</g>
</svg>
