<!-- Generator: Adobe Illustrator 19.2.1, SVG Export Plug-In  -->
<svg version="1.1"
	 xmlns="http://www.w3.org/2000/svg" xmlns:xlink="http://www.w3.org/1999/xlink" xmlns:a="http://ns.adobe.com/AdobeSVGViewerExtensions/3.0/"
	 x="0px" y="0px" width="59.5px" height="57.7px" viewBox="0 0 59.5 57.7" style="enable-background:new 0 0 59.5 57.7;"
	 xml:space="preserve">
<style type="text/css">
	.st0{fill:#FFFFFF;}
	.st1{fill:#FCA416;}
</style>
<defs>
</defs>
<g transform="translate(-1174.382 -124.184)">
	<g transform="translate(1176.337 124.68)">
		<g transform="translate(13.388 36.369)">
			<rect x="-0.6" y="2.9" transform="matrix(0.7071 -0.7071 0.7071 0.7071 -1.6066 3.8766)" class="st0" width="8.9" height="2"/>
		</g>
		<g transform="translate(13.32 1.001)">
			<path class="st1" d="M6.3,6.3c-8.4,8.4-8.4,22.1,0,30.5c8.4,8.4,22.1,8.4,30.5,0c8.4-8.4,8.4-22.1,0-30.5
				C28.4-2.1,14.8-2.1,6.3,6.3z M10,10c6.4-6.4,16.8-6.4,23.2,0c6.4,6.4,6.4,16.8,0,23.2c-6.4,6.4-16.8,6.4-23.2,0c0,0,0,0,0,0
				C3.6,26.8,3.6,16.4,10,10C10,10,10,10,10,10L10,10z"/>
		</g>
		<g transform="translate(12.321 0.394)">
			<path class="st0" d="M22.6,44.8C10.1,44.8,0,34.7,0,22.2c0-6,2.4-11.8,6.6-16L8,7.6c-8,8-8,21.1,0,29.1c8,8,21.1,8,29.1,0
				c8-8,8-21.1,0-29.1C34.2,4.7,30.5,2.8,26.5,2l0.4-2c12.3,2.3,20.3,14.1,18,26.4C42.8,37.1,33.5,44.8,22.6,44.8L22.6,44.8z"/>
		</g>
		<g transform="translate(22.919)">
			<path class="st0" d="M1.1,5.1L0,3.4C3.4,1.3,7.3,0.1,11.4,0l0.1,2C7.8,2.1,4.2,3.2,1.1,5.1z"/>
		</g>
		<g transform="translate(1.001 38.528)">
			<rect x="0.5" y="4.7" transform="matrix(0.7071 -0.7071 0.7071 0.7071 -3.7239 8.9902)" class="st1" width="16.9" height="8.5"/>
		</g>
		<g transform="translate(0 37.11)">
			<path class="st0" d="M7.4,20.1L6,18.6L17.5,7.4l-4.6-4.6L1.4,14.1L0,12.6L13,0l7.5,7.5L7.4,20.1z"/>
		</g>
		<g transform="translate(7.747 42.01)">
			<rect x="2.9" y="-0.6" transform="matrix(0.7071 -0.7071 0.7071 0.7071 -1.6057 3.8762)" class="st0" width="2" height="8.9"/>
		</g>
		<g transform="translate(4.583 45.173)">
			<rect x="2.9" y="-0.6" transform="matrix(0.7071 -0.7071 0.7071 0.7071 -1.6057 3.8769)" class="st0" width="2" height="8.9"/>
		</g>
		<g transform="translate(26.917 11.47)">
			<g transform="translate(2.344)">
				<path class="st0" d="M5.3,10.6C2.4,10.6,0,8.3,0,5.3S2.4,0,5.3,0c2.9,0,5.3,2.4,5.3,5.3C10.6,8.3,8.3,10.6,5.3,10.6z M5.3,2
					C3.5,2,2,3.5,2,5.3s1.5,3.3,3.3,3.3c1.8,0,3.3-1.5,3.3-3.3C8.6,3.5,7.1,2,5.3,2L5.3,2z"/>
			</g>
			<g transform="translate(0 11.917)">
				<path class="st0" d="M16,9.3h-2V8c0-3.3-2.7-6-6-6C4.7,2,2,4.7,2,8v1.3H0V8c0-4.4,3.6-8,8-8s8,3.6,8,8L16,9.3z"/>
			</g>
		</g>
	</g>
	<g transform="translate(1184.85 141.207)">
		<path class="st0" d="M2.7,1.3c0,0.7-0.6,1.3-1.3,1.3C0.6,2.7,0,2.1,0,1.3C0,0.6,0.6,0,1.3,0l0,0C2.1,0,2.7,0.6,2.7,1.3
			C2.7,1.3,2.7,1.3,2.7,1.3z"/>
	</g>
	<g transform="translate(1189.242 124.184)">
		<path class="st0" d="M3.8,1.9c0,1-0.8,1.9-1.9,1.9C0.8,3.8,0,2.9,0,1.9S0.8,0,1.9,0l0,0C2.9,0,3.8,0.8,3.8,1.9z"/>
	</g>
	<g transform="translate(1174.382 129.561)">
		<circle class="st0" cx="2.7" cy="2.7" r="2.7"/>
	</g>
</g>
</svg>